SplineFontDB: 3.0
FontName: Kaumudi
FullName: Kaumudi
FamilyName: Kaumudi
Weight: Bold
Copyright: Copyright(C) 2012 Rahul.V, All rights reserved.Mob:+91-99464 29992, 88910 29992. Email: rahul@kaumudi.com, rahulv@kimo.com; \nNCL_Kaumudi font Licensed under the GNU GENERAL PUBLIC LICENSE Version 3. As a special exception, if you create a document which uses this font, and embed this font or unaltered portions of this font into the document, this font does not by itself cause the resulting document to be covered by the GNU General Public License. This exception does not however invalidate any other reasons why the document might be covered by the GNU General Public License. \nSpecial Thanks To: Jijo George & Amjith Sher.
Version: 1.021 february 07, 2013,  Designed & Developed By Rahul Vijay, Kerala Kaumudi. +91-9946429992, rahulv@kimo.com
ItalicAngle: 0
UnderlinePosition: -204
UnderlineWidth: 70
Ascent: 1638
Descent: 410
sfntRevision: 0x000105a2
LayerCount: 2
Layer: 0 1 "Back"  1
Layer: 1 1 "Fore"  0
XUID: [1021 367 8562 11433]
FSType: 8
OS2Version: 3
OS2_WeightWidthSlopeOnly: 0
OS2_UseTypoMetrics: 1
CreationTime: 1357092539
ModificationTime: 1372243367
PfmFamily: 81
TTFWeight: 700
TTFWidth: 5
LineGap: 205
VLineGap: 0
Panose: 0 0 0 0 0 0 0 0 0 0
OS2TypoAscent: 1546
OS2TypoAOffset: 0
OS2TypoDescent: -800
OS2TypoDOffset: 0
OS2TypoLinegap: 205
OS2WinAscent: 1995
OS2WinAOffset: 0
OS2WinDescent: 950
OS2WinDOffset: 0
HheadAscent: 1547
HheadAOffset: 0
HheadDescent: -800
HheadDOffset: 0
OS2SubXSize: 1550
OS2SubYSize: 1550
OS2SubXOff: 0
OS2SubYOff: 286
OS2SupXSize: 1531
OS2SupYSize: 1533
OS2SupXOff: 0
OS2SupYOff: 983
OS2StrikeYSize: 102
OS2StrikeYPos: 530
OS2Vendor: 'rahu'
OS2CodePages: 00000001.00000000
OS2UnicodeRanges: 80808003.1000e042.00000200.00000000

StartChar: .notdef
Encoding: 65536 -1 0
Width: 1294
Flags: W
LayerCount: 2
Fore
SplineSet
919 562 m 1,0,1
 884 532 884 532 851 506 c 0,2,3
 774 444 774 444 774 379 c 2,4,-1
 774 285 l 1,5,-1
 639 285 l 1,6,-1
 639 386 l 2,7,8
 639 479 639 479 743 572 c 1,9,-1
 743 569 l 1,10,11
 740 566 740 566 757 580.5 c 128,-1,12
 774 595 774 595 813 631 c 1,13,-1
 813 628 l 1,14,15
 867 672 867 672 867 740 c 0,16,17
 867 807 867 807 827 841 c 0,18,19
 784 877 784 877 704 877 c 256,20,21
 624 877 624 877 590.5 832.5 c 128,-1,22
 557 788 557 788 557 686 c 1,23,-1
 429 686 l 1,24,25
 430 843 430 843 503 919 c 128,-1,26
 576 995 576 995 713 995 c 0,27,28
 847 995 847 995 924 928 c 1,29,30
 1004 860 1004 860 1004 751 c 0,31,32
 1004 641 1004 641 919 562 c 1,0,1
774 241 m 1,33,-1
 774 90 l 1,34,-1
 639 90 l 1,35,-1
 639 241 l 1,36,-1
 774 241 l 1,33,-1
1224 1316 m 1,37,-1
 1224 -208 l 1,38,-1
 223 -208 l 1,39,-1
 223 1316 l 1,40,-1
 1224 1316 l 1,37,-1
361 1171 m 1,41,-1
 361 -71 l 1,42,-1
 1091 -71 l 1,43,-1
 1091 1171 l 1,44,-1
 361 1171 l 1,41,-1
EndSplineSet
Ligature2: "<1,0> Required Ligatures in Malay+AQEA-lam2 lookup 0 subtable" ml_reph ml_ka
EndChar

StartChar: exclam
Encoding: 33 33 6
Width: 569
Flags: W
LayerCount: 2
Fore
SplineSet
235 345 m 1,0,1
 220 547 220 547 206.5 738 c 128,-1,2
 193 929 193 929 179 1120 c 1,3,-1
 179 1452 l 1,4,-1
 423 1452 l 1,5,-1
 423 1120 l 1,6,7
 410 927 410 927 397 738 c 128,-1,8
 384 549 384 549 370 345 c 1,9,-1
 235 345 l 1,0,1
187 -13 m 1,10,-1
 187 211 l 1,11,-1
 415 211 l 1,12,-1
 415 -13 l 1,13,-1
 187 -13 l 1,10,-1
EndSplineSet
EndChar

StartChar: quotedbl
Encoding: 34 34 7
Width: 588
Flags: W
LayerCount: 2
Fore
SplineSet
481 852 m 1,0,-1
 455 884 l 2,1,2
 456 883 456 883 455 883.5 c 128,-1,3
 454 884 454 884 452 887 c 0,4,5
 313 1032 313 1032 315 1258 c 1,6,-1
 315 1315 l 1,7,8
 338 1307 338 1307 344 1305.5 c 128,-1,9
 350 1304 350 1304 356 1302 c 0,10,11
 365 1300 365 1300 376 1299 c 128,-1,12
 387 1298 387 1298 398 1298 c 256,13,14
 409 1298 409 1298 419.5 1299 c 128,-1,15
 430 1300 430 1300 439 1302 c 1,16,17
 446 1305 446 1305 453.5 1306.5 c 128,-1,18
 461 1308 461 1308 486 1315 c 1,19,-1
 480 1264 l 2,20,21
 479 1254 479 1254 479 1241 c 128,-1,22
 479 1228 479 1228 479 1214 c 0,23,24
 479 1064 479 1064 541 966 c 0,25,26
 543 963 543 963 547 958.5 c 128,-1,27
 551 954 551 954 564 938 c 1,28,-1
 530 920 l 1,29,30
 514 907 514 907 505 894 c 1,31,-1
 481 852 l 1,0,-1
223 884 m 1,32,33
 83 1024 83 1024 84 1258 c 1,34,-1
 84 1315 l 1,35,36
 107 1308 107 1308 113.5 1306.5 c 128,-1,37
 120 1305 120 1305 126 1302 c 1,38,39
 134 1300 134 1300 145 1299 c 128,-1,40
 156 1298 156 1298 167 1298 c 256,41,42
 178 1298 178 1298 188 1299 c 128,-1,43
 198 1300 198 1300 206 1302 c 0,44,45
 214 1305 214 1305 222 1306.5 c 128,-1,46
 230 1308 230 1308 257 1314 c 1,47,-1
 249 1264 l 1,48,-1
 249 1214 l 2,49,50
 249 1065 249 1065 312 967 c 1,51,-1
 333 938 l 1,52,-1
 300 919 l 1,53,54
 293 913 293 913 286 907 c 128,-1,55
 279 901 279 901 275 894 c 0,56,57
 271 888 271 888 266.5 881 c 128,-1,58
 262 874 262 874 248 853 c 1,59,-1
 223 884 l 1,32,33
EndSplineSet
EndChar

StartChar: numbersign
Encoding: 35 35 8
Width: 1139
Flags: W
LayerCount: 2
Fore
SplineSet
102 -38 m 1,0,-1
 190 382 l 1,1,-1
 23 382 l 1,2,-1
 23 550 l 1,3,-1
 225 550 l 1,4,-1
 294 885 l 1,5,-1
 23 885 l 1,6,-1
 23 1054 l 1,7,-1
 329 1054 l 1,8,-1
 416 1476 l 1,9,-1
 588 1476 l 1,10,-1
 501 1054 l 1,11,-1
 796 1054 l 1,12,-1
 883 1476 l 1,13,-1
 1056 1476 l 1,14,-1
 968 1054 l 1,15,-1
 1139 1054 l 1,16,-1
 1139 885 l 1,17,-1
 933 885 l 1,18,-1
 863 550 l 1,19,-1
 1139 550 l 1,20,-1
 1139 382 l 1,21,-1
 828 382 l 1,22,-1
 741 -38 l 1,23,-1
 569 -38 l 1,24,-1
 655 382 l 1,25,-1
 361 382 l 1,26,-1
 274 -38 l 1,27,-1
 102 -38 l 1,0,-1
396 550 m 1,28,-1
 691 550 l 1,29,-1
 761 885 l 1,30,-1
 466 885 l 1,31,-1
 396 550 l 1,28,-1
EndSplineSet
EndChar

StartChar: dollar
Encoding: 36 36 9
Width: 1078
Flags: W
LayerCount: 2
Fore
SplineSet
500 -215 m 1,0,-1
 500 -43 l 1,1,2
 438 -37 438 -37 383.5 -21.5 c 128,-1,3
 329 -6 329 -6 288 13 c 1,4,5
 206 55 206 55 146 150 c 1,6,7
 115 197 115 197 97.5 253.5 c 128,-1,8
 80 310 80 310 75 382 c 1,9,10
 123 391 123 391 165.5 399 c 128,-1,11
 208 407 208 407 259 416 c 1,12,13
 279 275 279 275 330 211 c 0,14,15
 366 167 366 167 410.5 141.5 c 128,-1,16
 455 116 455 116 500 111 c 1,17,-1
 500 647 l 1,18,19
 392 666 392 666 280 728 c 0,20,21
 196 774 196 774 151 856 c 128,-1,22
 106 938 106 938 106 1042 c 0,23,24
 106 1227 106 1227 239 1341 c 0,25,26
 329 1419 329 1419 500 1436 c 1,27,-1
 500 1517 l 1,28,-1
 610 1517 l 1,29,-1
 610 1436 l 1,30,31
 759 1422 759 1422 850 1347 c 1,32,33
 966 1254 966 1254 990 1083 c 1,34,35
 940 1076 940 1076 897 1069 c 128,-1,36
 854 1062 854 1062 802 1054 c 1,37,38
 786 1160 786 1160 737 1212 c 128,-1,39
 688 1264 688 1264 610 1281 c 1,40,-1
 610 797 l 1,41,42
 671 783 671 783 715.5 770.5 c 128,-1,43
 760 758 760 758 783 747 c 0,44,45
 903 695 903 695 964 604.5 c 128,-1,46
 1025 514 1025 514 1025 388 c 0,47,48
 1025 207 1025 207 907 86 c 0,49,50
 791 -34 791 -34 610 -41 c 1,51,-1
 610 -215 l 1,52,-1
 500 -215 l 1,0,-1
500 1282 m 1,53,54
 403 1267 403 1267 345 1204 c 0,55,56
 316 1172 316 1172 302.5 1135 c 128,-1,57
 289 1098 289 1098 289 1056 c 0,58,59
 289 1012 289 1012 300 977 c 128,-1,60
 311 942 311 942 337.5 912 c 128,-1,61
 364 882 364 882 406 859 c 128,-1,62
 448 836 448 836 500 821 c 1,63,-1
 500 1282 l 1,53,54
610 112 m 1,64,65
 706 124 706 124 771 197 c 0,66,67
 802 232 802 232 819.5 277.5 c 128,-1,68
 837 323 837 323 837 376 c 0,69,70
 837 465 837 465 790 521 c 1,71,72
 744 578 744 578 610 620 c 1,73,-1
 610 112 l 1,64,65
EndSplineSet
EndChar

StartChar: percent
Encoding: 37 37 10
Width: 1821
Flags: W
LayerCount: 2
Fore
SplineSet
121 1094 m 0,0,1
 121 1254 121 1254 202 1363 c 1,2,3
 284 1476 284 1476 440 1476 c 0,4,5
 583 1476 583 1476 676 1375 c 1,6,7
 770 1277 770 1277 770 1083 c 0,8,9
 770 895 770 895 676 793 c 0,10,11
 582 692 582 692 442 692 c 0,12,13
 304 692 304 692 211 792 c 1,14,15
 121 891 121 891 121 1094 c 0,0,1
298 1076 m 0,16,17
 298 943 298 943 341 887 c 1,18,19
 385 835 385 835 445 835 c 0,20,21
 508 835 508 835 549 888 c 1,22,23
 569 916 569 916 581 967 c 128,-1,24
 593 1018 593 1018 593 1090 c 0,25,26
 593 1157 593 1157 581 1204.5 c 128,-1,27
 569 1252 569 1252 549 1279 c 0,28,29
 508 1332 508 1332 445 1332 c 256,30,31
 382 1332 382 1332 340 1279 c 1,32,33
 298 1224 298 1224 298 1076 c 0,16,17
429 -66 m 1,34,35
 639 328 639 328 841 711 c 128,-1,36
 1043 1094 1043 1094 1245 1476 c 1,37,-1
 1414 1476 l 1,38,39
 1206 1082 1206 1082 1004 698.5 c 128,-1,40
 802 315 802 315 601 -66 c 1,41,-1
 429 -66 l 1,34,35
1072 336 m 0,42,43
 1072 497 1072 497 1154 606 c 1,44,45
 1235 719 1235 719 1392 719 c 0,46,47
 1536 719 1536 719 1628 618 c 1,48,49
 1723 521 1723 521 1723 325 c 0,50,51
 1723 137 1723 137 1628 35 c 0,52,53
 1534 -66 1534 -66 1393 -66 c 0,54,55
 1324 -66 1324 -66 1267 -40.5 c 128,-1,56
 1210 -15 1210 -15 1163 34 c 1,57,58
 1119 86 1119 86 1095.5 162.5 c 128,-1,59
 1072 239 1072 239 1072 336 c 0,42,43
1398 574 m 0,60,61
 1332 574 1332 574 1292 521 c 0,62,63
 1250 466 1250 466 1250 319 c 0,64,65
 1250 186 1250 186 1293 131 c 1,66,67
 1333 78 1333 78 1397 78 c 256,68,69
 1461 78 1461 78 1502 131 c 1,70,71
 1522 159 1522 159 1533.5 209.5 c 128,-1,72
 1545 260 1545 260 1545 332 c 0,73,74
 1545 400 1545 400 1533.5 447.5 c 128,-1,75
 1522 495 1522 495 1502 521 c 0,76,77
 1461 574 1461 574 1398 574 c 0,60,61
EndSplineSet
EndChar

StartChar: ampersand
Encoding: 38 38 11
Width: 1366
Flags: W
LayerCount: 2
Fore
SplineSet
983 162 m 1,0,1
 804 -32 804 -32 560 -32 c 0,2,3
 448 -32 448 -32 356.5 7.5 c 128,-1,4
 265 47 265 47 198 118 c 1,5,6
 146 179 146 179 118 250 c 128,-1,7
 90 321 90 321 90 396 c 0,8,9
 90 666 90 666 437 827 c 1,10,11
 343 933 343 933 308 1006 c 0,12,13
 275 1076 275 1076 275 1143 c 0,14,15
 275 1276 275 1276 379 1373 c 1,16,17
 485 1470 485 1470 644 1470 c 0,18,19
 797 1470 797 1470 893 1378 c 0,20,21
 990 1286 990 1286 990 1157 c 0,22,23
 990 948 990 948 716 805 c 1,24,-1
 972 485 l 1,25,26
 990 520 990 520 1008.5 569.5 c 128,-1,27
 1027 619 1027 619 1041 682 c 1,28,29
 1095 672 1095 672 1138.5 662 c 128,-1,30
 1182 652 1182 652 1236 640 c 1,31,32
 1185 447 1185 447 1106 328 c 1,33,34
 1208 198 1208 198 1336 105 c 1,35,36
 1301 65 1301 65 1271.5 31.5 c 128,-1,37
 1242 -2 1242 -2 1210 -42 c 1,38,39
 1148 -2 1148 -2 1092.5 48 c 128,-1,40
 1037 98 1037 98 981 162 c 1,41,-1
 983 162 l 1,0,1
617 927 m 1,42,43
 729 993 729 993 764 1042 c 1,44,45
 798 1092 798 1092 798 1152 c 0,46,47
 798 1224 798 1224 750 1268 c 1,48,49
 705 1314 705 1314 635 1314 c 256,50,51
 565 1314 565 1314 516 1268 c 1,52,53
 468 1225 468 1225 468 1159 c 0,54,55
 468 1130 468 1130 485.5 1093 c 128,-1,56
 503 1056 503 1056 538 1016 c 2,57,-1
 617 927 l 1,42,43
536 704 m 1,58,59
 470 665 470 665 420 624.5 c 128,-1,60
 370 584 370 584 344 547 c 0,61,62
 293 476 293 476 293 407 c 0,63,64
 293 321 293 321 363 228 c 256,65,66
 433 135 433 135 562 135 c 0,67,68
 603 135 603 135 644 147 c 128,-1,69
 685 159 685 159 728 183 c 1,70,71
 772 209 772 209 806.5 240.5 c 128,-1,72
 841 272 841 272 863 306 c 1,73,-1
 536 704 l 1,58,59
EndSplineSet
EndChar

StartChar: quotesingle
Encoding: 39 39 12
Width: 368
Flags: W
LayerCount: 2
Fore
SplineSet
320 1258 m 2,0,1
 320 1141 320 1141 284 1048 c 128,-1,2
 248 955 248 955 177 884 c 0,3,4
 173 880 173 880 169.5 875.5 c 128,-1,5
 166 871 166 871 150 851 c 1,6,-1
 126 895 l 2,7,8
 117 910 117 910 103 919 c 1,9,10
 98 921 98 921 92 924.5 c 128,-1,11
 86 928 86 928 68 936 c 1,12,-1
 87 967 l 1,13,14
 153 1064 153 1064 153 1214 c 0,15,16
 153 1228 153 1228 152.5 1241 c 128,-1,17
 152 1254 152 1254 151 1264 c 0,18,19
 150 1271 150 1271 148.5 1279.5 c 128,-1,20
 147 1288 147 1288 144 1315 c 1,21,22
 171 1309 171 1309 177.5 1307 c 128,-1,23
 184 1305 184 1305 192 1303 c 0,24,25
 201 1300 201 1300 211 1299 c 128,-1,26
 221 1298 221 1298 232 1298 c 0,27,28
 245 1298 245 1298 255.5 1299 c 128,-1,29
 266 1300 266 1300 277 1303 c 1,30,-1
 285 1303 l 2,31,32
 286 1303 286 1303 292 1305 c 128,-1,33
 298 1307 298 1307 320 1316 c 1,34,-1
 320 1258 l 2,0,1
EndSplineSet
EndChar

StartChar: parenleft
Encoding: 40 40 13
Width: 682
Flags: W
LayerCount: 2
Fore
SplineSet
488 -437 m 1,0,1
 411 -341 411 -341 346.5 -231.5 c 128,-1,2
 282 -122 282 -122 231 3 c 1,3,4
 127 252 127 252 127 520 c 0,5,6
 127 637 127 637 146.5 751 c 128,-1,7
 166 865 166 865 205 972 c 0,8,9
 227 1032 227 1032 256.5 1096 c 128,-1,10
 286 1160 286 1160 322.5 1224 c 128,-1,11
 359 1288 359 1288 399.5 1350 c 128,-1,12
 440 1412 440 1412 487 1476 c 1,13,-1
 641 1476 l 1,14,15
 568 1355 568 1355 529.5 1283 c 128,-1,16
 491 1211 491 1211 471 1169 c 1,17,18
 442 1103 442 1103 417.5 1030 c 128,-1,19
 393 957 393 957 376 886 c 0,20,21
 355 796 355 796 343.5 703.5 c 128,-1,22
 332 611 332 611 332 519 c 0,23,24
 332 283 332 283 406 51.5 c 128,-1,25
 480 -180 480 -180 642 -437 c 1,26,-1
 488 -437 l 1,0,1
EndSplineSet
EndChar

StartChar: parenright
Encoding: 41 41 14
Width: 682
Flags: W
LayerCount: 2
Fore
SplineSet
129 -437 m 1,0,1
 438 53 438 53 438 519 c 0,2,3
 438 609 438 609 427 702 c 128,-1,4
 416 795 416 795 395 883 c 0,5,6
 378 954 378 954 353 1027.5 c 128,-1,7
 328 1101 328 1101 300 1165 c 0,8,9
 280 1209 280 1209 240.5 1282 c 128,-1,10
 201 1355 201 1355 130 1476 c 1,11,-1
 282 1476 l 1,12,13
 379 1349 379 1349 449 1224 c 128,-1,14
 519 1099 519 1099 565 972 c 1,15,16
 603 864 603 864 623.5 751.5 c 128,-1,17
 644 639 644 639 644 520 c 0,18,19
 644 386 644 386 617 257.5 c 128,-1,20
 590 129 590 129 538 3 c 0,21,22
 486 -121 486 -121 422 -230.5 c 128,-1,23
 358 -340 358 -340 282 -437 c 1,24,-1
 129 -437 l 1,0,1
EndSplineSet
EndChar

StartChar: asterisk
Encoding: 42 42 15
Width: 797
Flags: W
LayerCount: 2
Fore
SplineSet
120 1328 m 1,0,1
 210 1299 210 1299 269 1274 c 128,-1,2
 328 1249 328 1249 346 1239 c 1,3,4
 329 1390 329 1390 327 1476 c 1,5,-1
 494 1476 l 1,6,7
 490 1367 490 1367 473 1240 c 1,8,9
 554 1280 554 1280 703 1328 c 1,10,-1
 756 1169 l 1,11,12
 680 1144 680 1144 615.5 1129.5 c 128,-1,13
 551 1115 551 1115 519 1112 c 1,14,15
 531 1102 531 1102 575 1056 c 128,-1,16
 619 1010 619 1010 682 934 c 1,17,18
 641 903 641 903 611.5 883 c 128,-1,19
 582 863 582 863 543 836 c 1,20,21
 508 883 508 883 473.5 937 c 128,-1,22
 439 991 439 991 409 1042 c 1,23,24
 382 991 382 991 348.5 936 c 128,-1,25
 315 881 315 881 280 836 c 1,26,27
 241 863 241 863 213 883.5 c 128,-1,28
 185 904 185 904 145 934 c 1,29,30
 211 1014 211 1014 252.5 1060.5 c 128,-1,31
 294 1107 294 1107 301 1113 c 1,32,33
 263 1121 263 1121 201 1134 c 128,-1,34
 139 1147 139 1147 68 1168 c 1,35,-1
 120 1328 l 1,0,1
EndSplineSet
EndChar

StartChar: plus
Encoding: 43 43 16
Width: 1196
Flags: W
LayerCount: 2
Fore
SplineSet
517 220 m 1,0,-1
 517 615 l 1,1,-1
 116 615 l 1,2,-1
 116 803 l 1,3,-1
 517 803 l 1,4,-1
 517 1196 l 1,5,-1
 707 1196 l 1,6,-1
 707 803 l 1,7,-1
 1108 803 l 1,8,-1
 1108 615 l 1,9,-1
 707 615 l 1,10,-1
 707 220 l 1,11,-1
 517 220 l 1,0,-1
EndSplineSet
EndChar

StartChar: comma
Encoding: 44 44 17
Width: 569
Flags: W
LayerCount: 2
Fore
SplineSet
412 -37 m 0,1,2
 356 -155 356 -155 225 -264 c 1,3,4
 185 -212 185 -212 121 -180 c 1,5,6
 246 -28 246 -28 246 161 c 0,7,8
 246 175 246 175 244 197 c 0,9,10
 243 210 243 210 240 239 c 1,11,-1
 469 237 l 1,12,0
 467 79 467 79 412 -37 c 0,1,2
EndSplineSet
EndChar

StartChar: hyphen
Encoding: 45 45 18
Width: 682
Flags: W
LayerCount: 2
Fore
SplineSet
68 420 m 1,0,-1
 68 620 l 1,1,-1
 643 620 l 1,2,-1
 643 420 l 1,3,-1
 68 420 l 1,0,-1
EndSplineSet
EndChar

StartChar: period
Encoding: 46 46 19
Width: 569
Flags: W
LayerCount: 2
Fore
SplineSet
189 -13 m 1,0,-1
 189 211 l 1,1,-1
 415 211 l 1,2,-1
 415 -13 l 1,3,-1
 189 -13 l 1,0,-1
EndSplineSet
EndChar

StartChar: slash
Encoding: 47 47 20
Width: 705
Flags: W
LayerCount: 2
Fore
SplineSet
143 -38 m 1,0,-1
 576 1476 l 1,1,-1
 771 1476 l 1,2,-1
 339 -38 l 1,3,-1
 143 -38 l 1,0,-1
EndSplineSet
EndChar

StartChar: zero
Encoding: 48 48 21
Width: 1139
Flags: W
LayerCount: 2
Fore
SplineSet
87 710 m 0,0,1
 87 836 87 836 100.5 940.5 c 128,-1,2
 114 1045 114 1045 141 1123 c 1,3,4
 169 1199 169 1199 210.5 1263 c 128,-1,5
 252 1327 252 1327 304 1369 c 0,6,7
 415 1458 415 1458 577 1458 c 0,8,9
 698 1458 698 1458 789.5 1410 c 128,-1,10
 881 1362 881 1362 940 1270 c 0,11,12
 970 1225 970 1225 993 1170.5 c 128,-1,13
 1016 1116 1016 1116 1034 1052 c 1,14,15
 1067 925 1067 925 1067 710 c 0,16,17
 1067 583 1067 583 1053.5 479 c 128,-1,18
 1040 375 1040 375 1013 296 c 0,19,20
 987 219 987 219 945 155.5 c 128,-1,21
 903 92 903 92 850 50 c 0,22,23
 741 -38 741 -38 577 -38 c 0,24,25
 471 -38 471 -38 384 2 c 128,-1,26
 297 42 297 42 235 115 c 1,27,28
 161 208 161 208 124 357 c 128,-1,29
 87 506 87 506 87 710 c 0,0,1
861 710 m 0,30,31
 861 881 861 881 839 999 c 128,-1,32
 817 1117 817 1117 777 1177 c 1,33,34
 736 1232 736 1232 685.5 1260.5 c 128,-1,35
 635 1289 635 1289 575 1289 c 0,36,37
 454 1289 454 1289 385 1191 c 0,38,39
 293 1060 293 1060 293 710 c 0,40,41
 293 358 293 358 376 243 c 1,42,43
 460 130 460 130 577 130 c 0,44,45
 695 130 695 130 777 244 c 1,46,47
 820 301 820 301 840.5 417 c 128,-1,48
 861 533 861 533 861 710 c 0,30,31
EndSplineSet
EndChar

StartChar: one
Encoding: 49 49 22
Width: 1044
Flags: W
LayerCount: 2
Fore
SplineSet
788 -13 m 1,0,-1
 587 -13 l 1,1,-1
 587 1098 l 1,2,3
 540 1053 540 1053 430 993 c 1,4,5
 376 962 376 962 330.5 939 c 128,-1,6
 285 916 285 916 226 894 c 1,7,-1
 226 1087 l 1,8,9
 308 1124 308 1124 373 1166.5 c 128,-1,10
 438 1209 438 1209 494 1259 c 1,11,12
 551 1307 551 1307 591 1354 c 128,-1,13
 631 1401 631 1401 657 1453 c 1,14,-1
 788 1453 l 1,15,-1
 788 -13 l 1,0,-1
EndSplineSet
EndChar

StartChar: two
Encoding: 50 50 23
Width: 1139
Flags: W
LayerCount: 2
Fore
SplineSet
1080 180 m 1,0,-1
 1080 -13 l 1,1,-1
 88 -13 l 1,2,3
 86 26 86 26 93 61.5 c 128,-1,4
 100 97 100 97 109 124 c 1,5,6
 129 173 129 173 160 224.5 c 128,-1,7
 191 276 191 276 229 321 c 1,8,9
 270 366 270 366 329.5 421.5 c 128,-1,10
 389 477 389 477 468 539 c 1,11,12
 587 636 587 636 667 711 c 128,-1,13
 747 786 747 786 790 843 c 1,14,15
 872 955 872 955 872 1050 c 0,16,17
 872 1149 872 1149 798 1219 c 256,18,19
 724 1289 724 1289 605 1289 c 0,20,21
 479 1289 479 1289 403 1215 c 0,22,23
 329 1142 329 1142 327 997 c 1,24,25
 268 1004 268 1004 223.5 1008.5 c 128,-1,26
 179 1013 179 1013 120 1019 c 1,27,28
 130 1135 130 1135 167.5 1215 c 128,-1,29
 205 1295 205 1295 268 1349 c 128,-1,30
 331 1403 331 1403 417 1430.5 c 128,-1,31
 503 1458 503 1458 609 1458 c 0,32,33
 824 1458 824 1458 951 1340 c 256,34,35
 1078 1222 1078 1222 1078 1046 c 0,36,37
 1078 957 1078 957 1041 871 c 128,-1,38
 1004 785 1004 785 919 692 c 0,39,40
 880 648 880 648 808.5 583 c 128,-1,41
 737 518 737 518 639 438 c 1,42,43
 567 377 567 377 512 330 c 128,-1,44
 457 283 457 283 431 256 c 0,45,46
 409 232 409 232 388.5 206.5 c 128,-1,47
 368 181 368 181 367 180 c 1,48,-1
 1080 180 l 1,0,-1
EndSplineSet
EndChar

StartChar: three
Encoding: 51 51 24
Width: 1139
Flags: W
LayerCount: 2
Fore
SplineSet
289 414 m 1,0,1
 306 328 306 328 332 277 c 128,-1,2
 358 226 358 226 392.5 193 c 128,-1,3
 427 160 427 160 471.5 145 c 128,-1,4
 516 130 516 130 569 130 c 0,5,6
 693 130 693 130 776 214 c 1,7,8
 862 297 862 297 862 420 c 0,9,10
 862 537 862 537 783 612 c 1,11,12
 705 690 705 690 584 690 c 0,13,14
 559 690 559 690 529 685 c 128,-1,15
 499 680 499 680 444 667 c 1,16,17
 452 724 452 724 457 761 c 128,-1,18
 462 798 462 798 468 847 c 1,19,-1
 485 847 l 1,20,-1
 486 846 l 1,21,-1
 485 846 l 1,22,23
 490 845 490 845 496 845 c 2,24,-1
 506 845 l 2,25,26
 619 845 619 845 708 902 c 1,27,28
 796 960 796 960 796 1075 c 0,29,30
 796 1168 796 1168 732 1228 c 0,31,32
 699 1259 699 1259 657.5 1274.5 c 128,-1,33
 616 1290 616 1290 565 1290 c 0,34,35
 463 1290 463 1290 395.5 1228.5 c 128,-1,36
 328 1167 328 1167 306 1028 c 1,37,38
 248 1038 248 1038 205.5 1045 c 128,-1,39
 163 1052 163 1052 105 1063 c 1,40,41
 125 1162 125 1162 164.5 1234.5 c 128,-1,42
 204 1307 204 1307 262 1356 c 0,43,44
 384 1458 384 1458 561 1458 c 0,45,46
 684 1458 684 1458 787 1405 c 1,47,48
 890 1354 890 1354 945 1263 c 1,49,50
 1002 1174 1002 1174 1002 1071 c 0,51,52
 1002 973 1002 973 947.5 893.5 c 128,-1,53
 893 814 893 814 822 782 c 1,54,55
 852 775 852 775 906 743 c 128,-1,56
 960 711 960 711 997 664 c 128,-1,57
 1034 617 1034 617 1054 556 c 128,-1,58
 1074 495 1074 495 1074 424 c 0,59,60
 1074 229 1074 229 929 95 c 1,61,62
 788 -38 788 -38 568 -38 c 0,63,64
 369 -38 369 -38 239 76 c 1,65,66
 176 133 176 133 138.5 210 c 128,-1,67
 101 287 101 287 88 388 c 1,68,-1
 289 414 l 1,0,1
EndSplineSet
EndChar

StartChar: four
Encoding: 52 52 25
Width: 1150
Flags: W
LayerCount: 2
Fore
SplineSet
830 -13 m 1,0,-1
 830 332 l 1,1,-1
 191 332 l 1,2,-1
 191 485 l 1,3,-1
 867 1452 l 1,4,-1
 1030 1452 l 1,5,-1
 1030 517 l 1,6,-1
 1229 517 l 1,7,-1
 1229 332 l 1,8,-1
 1030 332 l 1,9,-1
 1030 -13 l 1,10,-1
 830 -13 l 1,0,-1
830 517 m 1,11,-1
 830 1122 l 1,12,-1
 400 517 l 1,13,-1
 830 517 l 1,11,-1
EndSplineSet
EndChar

StartChar: five
Encoding: 53 53 26
Width: 1139
Flags: W
LayerCount: 2
Fore
SplineSet
296 405 m 1,0,1
 308 327 308 327 332.5 278 c 128,-1,2
 357 229 357 229 392.5 196 c 128,-1,3
 428 163 428 163 473.5 147 c 128,-1,4
 519 131 519 131 571 131 c 0,5,6
 698 131 698 131 785 225 c 1,7,8
 872 317 872 317 872 473 c 0,9,10
 872 545 872 545 849.5 603.5 c 128,-1,11
 827 662 827 662 788 705 c 1,12,13
 748 744 748 744 691 767 c 128,-1,14
 634 790 634 790 568 790 c 0,15,16
 527 790 527 790 489 779.5 c 128,-1,17
 451 769 451 769 417.5 751 c 128,-1,18
 384 733 384 733 356.5 708.5 c 128,-1,19
 329 684 329 684 305 649 c 1,20,21
 255 654 255 654 214.5 660 c 128,-1,22
 174 666 174 666 118 673 c 1,23,24
 157 873 157 873 193 1056 c 128,-1,25
 229 1239 229 1239 266 1436 c 1,26,-1
 1015 1436 l 1,27,-1
 1015 1244 l 1,28,-1
 425 1244 l 1,29,-1
 353 890 l 1,30,31
 466 969 466 969 616 969 c 0,32,33
 813 969 813 969 948 833 c 1,34,35
 1084 700 1084 700 1084 489 c 0,36,37
 1084 288 1084 288 965 143 c 1,38,39
 821 -38 821 -38 571 -38 c 0,40,41
 472 -38 472 -38 387 -9 c 128,-1,42
 302 20 302 20 237 74 c 1,43,44
 175 132 175 132 136.5 207.5 c 128,-1,45
 98 283 98 283 87 386 c 1,46,-1
 296 405 l 1,0,1
EndSplineSet
EndChar

StartChar: six
Encoding: 54 54 27
Width: 1139
Flags: W
LayerCount: 2
Fore
SplineSet
858 1061 m 1,0,1
 832 1171 832 1171 790 1217 c 1,2,3
 719 1290 719 1290 616 1290 c 0,4,5
 575 1290 575 1290 538 1278 c 128,-1,6
 501 1266 501 1266 471 1245 c 0,7,8
 430 1216 430 1216 396 1170.5 c 128,-1,9
 362 1125 362 1125 339 1071 c 1,10,11
 317 1014 317 1014 303.5 928.5 c 128,-1,12
 290 843 290 843 289 775 c 1,13,14
 336 843 336 843 433 894 c 128,-1,15
 530 945 530 945 636 945 c 0,16,17
 822 945 822 945 950 811 c 1,18,19
 1081 679 1081 679 1081 467 c 0,20,21
 1081 327 1081 327 1020 209 c 0,22,23
 990 150 990 150 947.5 104.5 c 128,-1,24
 905 59 905 59 852 26 c 0,25,26
 747 -38 747 -38 610 -38 c 0,27,28
 380 -38 380 -38 234 128 c 0,29,30
 89 293 89 293 89 673 c 0,31,32
 89 1096 89 1096 249 1288 c 0,33,34
 391 1458 391 1458 627 1458 c 0,35,36
 804 1458 804 1458 917 1359 c 1,37,38
 1032 1262 1032 1262 1057 1077 c 1,39,-1
 858 1061 l 1,0,1
317 466 m 0,40,41
 317 375 317 375 355 295 c 256,42,43
 393 215 393 215 463 172 c 0,44,45
 496 151 496 151 532.5 140.5 c 128,-1,46
 569 130 569 130 607 130 c 0,47,48
 715 130 715 130 796 218 c 0,49,50
 876 304 876 304 876 456 c 0,51,52
 876 598 876 598 798 683 c 1,53,54
 759 723 759 723 708.5 744.5 c 128,-1,55
 658 766 658 766 600 766 c 0,56,57
 483 766 483 766 399 683 c 1,58,59
 317 600 317 600 317 466 c 0,40,41
EndSplineSet
EndChar

StartChar: seven
Encoding: 55 55 28
Width: 1139
Flags: W
LayerCount: 2
Fore
SplineSet
94 1269 m 1,0,-1
 93 1451 l 1,1,-1
 1071 1451 l 1,2,-1
 1068 1343 l 1,3,-1
 1064 1303 l 1,4,5
 994 1229 994 1229 927 1128 c 128,-1,6
 860 1027 860 1027 791 904 c 0,7,8
 760 847 760 847 730 783.5 c 128,-1,9
 700 720 700 720 672.5 654 c 128,-1,10
 645 588 645 588 621 523 c 128,-1,11
 597 458 597 458 580 399 c 0,12,13
 554 308 554 308 536.5 208 c 128,-1,14
 519 108 519 108 510 -13 c 1,15,-1
 305 -13 l 1,16,17
 308 173 308 173 374 419 c 0,18,19
 439 665 439 665 562 893 c 0,20,21
 624 1010 624 1010 687.5 1109.5 c 128,-1,22
 751 1209 751 1209 802 1269 c 1,23,-1
 94 1269 l 1,0,-1
EndSplineSet
EndChar

StartChar: eight
Encoding: 56 56 29
Width: 1139
Flags: W
LayerCount: 2
Fore
SplineSet
200 888.5 m 128,-1,1
 144 966 144 966 144 1074 c 0,2,3
 144 1237 144 1237 263 1348 c 0,4,5
 382 1458 382 1458 577 1458 c 0,6,7
 773 1458 773 1458 894 1345 c 0,8,9
 1015 1233 1015 1233 1015 1069 c 0,10,11
 1015 965 1015 965 958 887.5 c 128,-1,12
 901 810 901 810 821 781 c 1,13,14
 928 747 928 747 1001.5 647.5 c 128,-1,15
 1075 548 1075 548 1075 411 c 0,16,17
 1075 218 1075 218 938 91 c 1,18,19
 801 -38 801 -38 580 -38 c 0,20,21
 472 -38 472 -38 381 -4 c 128,-1,22
 290 30 290 30 222 90 c 1,23,24
 154 155 154 155 119.5 236.5 c 128,-1,25
 85 318 85 318 85 416 c 0,26,27
 85 560 85 560 159.5 657.5 c 128,-1,28
 234 755 234 755 333 788 c 1,29,0
 256 811 256 811 200 888.5 c 128,-1,1
349 1080 m 0,30,31
 349 982 349 982 413 921 c 0,32,33
 478 859 478 859 581 859 c 0,34,35
 680 859 680 859 745 920 c 0,36,37
 809 981 809 981 809 1070 c 0,38,39
 809 1162 809 1162 743 1226 c 0,40,41
 678 1290 678 1290 579 1290 c 0,42,43
 528 1290 528 1290 487.5 1274 c 128,-1,44
 447 1258 447 1258 414 1227 c 0,45,46
 349 1166 349 1166 349 1080 c 0,30,31
291 415 m 0,47,48
 291 340 291 340 326 273 c 0,49,50
 362 205 362 205 431 167 c 1,51,52
 501 130 501 130 582 130 c 0,53,54
 646 130 646 130 697 150 c 128,-1,55
 748 170 748 170 789 209 c 0,56,57
 870 286 870 286 870 409 c 0,58,59
 870 530 870 530 786 611 c 1,60,61
 704 693 704 693 576 693 c 0,62,63
 452 693 452 693 371 612 c 0,64,65
 291 531 291 531 291 415 c 0,47,48
EndSplineSet
EndChar

StartChar: nine
Encoding: 57 57 30
Width: 1139
Flags: W
LayerCount: 2
Fore
SplineSet
306 359 m 1,0,1
 330 231 330 231 389 180.5 c 128,-1,2
 448 130 448 130 542 130 c 0,3,4
 623 130 623 130 684 166 c 128,-1,5
 745 202 745 202 783 262 c 0,6,7
 820 321 820 321 848 428 c 0,8,9
 875 533 875 533 876 647 c 1,10,11
 867 632 867 632 827.5 593.5 c 128,-1,12
 788 555 788 555 741 530 c 0,13,14
 693 504 693 504 641 490 c 128,-1,15
 589 476 589 476 533 476 c 0,16,17
 346 476 346 476 217 608 c 0,18,19
 87 742 87 742 87 960 c 0,20,21
 87 1068 87 1068 122 1160.5 c 128,-1,22
 157 1253 157 1253 222 1320 c 1,23,24
 289 1386 289 1386 374.5 1422 c 128,-1,25
 460 1458 460 1458 560 1458 c 0,26,27
 633 1458 633 1458 699 1437.5 c 128,-1,28
 765 1417 765 1417 827 1379 c 1,29,30
 946 1303 946 1303 1012 1158 c 1,31,32
 1075 1014 1075 1014 1075 749 c 0,33,34
 1075 470 1075 470 1013 304 c 0,35,36
 981 221 981 221 935 158 c 128,-1,37
 889 95 889 95 827 50 c 0,38,39
 703 -38 703 -38 538 -38 c 0,40,41
 450 -38 450 -38 378.5 -13 c 128,-1,42
 307 12 307 12 250 59 c 1,43,44
 196 108 196 108 160.5 175.5 c 128,-1,45
 125 243 125 243 112 341 c 1,46,-1
 306 359 l 1,0,1
582 1289 m 0,47,48
 467 1289 467 1289 380 1196 c 1,49,50
 293 1101 293 1101 293 954 c 0,51,52
 293 822 293 822 374 737 c 1,53,54
 457 654 457 654 577 654 c 0,55,56
 635 654 635 654 686.5 676.5 c 128,-1,57
 738 699 738 699 775 737 c 1,58,59
 813 779 813 779 833.5 838 c 128,-1,60
 854 897 854 897 854 968 c 0,61,62
 854 1113 854 1113 773 1202 c 0,63,64
 694 1289 694 1289 582 1289 c 0,47,48
EndSplineSet
EndChar

StartChar: colon
Encoding: 58 58 31
Width: 569
Flags: W
LayerCount: 2
Fore
SplineSet
188 780 m 1,0,-1
 188 1023 l 1,1,-1
 426 1023 l 1,2,-1
 426 780 l 1,3,-1
 188 780 l 1,0,-1
188 -19 m 1,4,-1
 188 233 l 1,5,-1
 426 233 l 1,6,-1
 426 -19 l 1,7,-1
 188 -19 l 1,4,-1
EndSplineSet
EndChar

StartChar: semicolon
Encoding: 59 59 32
Width: 569
Flags: W
LayerCount: 2
Fore
SplineSet
412 -37 m 0,1,2
 356 -155 356 -155 225 -264 c 1,3,4
 185 -212 185 -212 121 -180 c 1,5,6
 246 -28 246 -28 246 161 c 0,7,8
 246 175 246 175 244 197 c 0,9,10
 243 210 243 210 240 239 c 1,11,-1
 469 237 l 1,12,0
 467 79 467 79 412 -37 c 0,1,2
419 1034.5 m 128,-1,14
 458 996 458 996 458 941 c 0,15,16
 458 887 458 887 419 847.5 c 128,-1,17
 380 808 380 808 324 808 c 256,18,19
 268 808 268 808 228.5 847.5 c 128,-1,20
 189 887 189 887 189 941 c 0,21,22
 189 996 189 996 228.5 1034.5 c 128,-1,23
 268 1073 268 1073 324 1073 c 256,24,13
 380 1073 380 1073 419 1034.5 c 128,-1,14
EndSplineSet
EndChar

StartChar: less
Encoding: 60 60 33
Width: 1196
Flags: W
LayerCount: 2
Fore
SplineSet
114 620 m 1,0,-1
 114 802 l 1,1,2
 366 906 366 906 607 1005.5 c 128,-1,3
 848 1105 848 1105 1109 1213 c 1,4,-1
 1109 1000 l 1,5,-1
 355 711 l 1,6,7
 518 643 518 643 713 564.5 c 128,-1,8
 908 486 908 486 1109 405 c 1,9,-1
 1109 204 l 1,10,-1
 114 620 l 1,0,-1
EndSplineSet
EndChar

StartChar: equal
Encoding: 61 61 34
Width: 1196
Flags: W
LayerCount: 2
Fore
SplineSet
1108 835 m 1,0,-1
 116 835 l 1,1,-1
 116 1023 l 1,2,-1
 1108 1023 l 1,3,-1
 1108 835 l 1,0,-1
1108 398 m 1,4,-1
 116 398 l 1,5,-1
 116 584 l 1,6,-1
 1108 584 l 1,7,-1
 1108 398 l 1,4,-1
EndSplineSet
EndChar

StartChar: greater
Encoding: 62 62 35
Width: 1196
Flags: W
LayerCount: 2
Fore
SplineSet
1109 620 m 1,0,1
 858 516 858 516 617 414.5 c 128,-1,2
 376 313 376 313 114 205 c 1,3,-1
 114 405 l 1,4,-1
 867 711 l 1,5,6
 704 776 704 776 509.5 854.5 c 128,-1,7
 315 933 315 933 114 1013 c 1,8,-1
 114 1213 l 1,9,10
 376 1105 376 1105 616.5 1005.5 c 128,-1,11
 857 906 857 906 1109 802 c 1,12,-1
 1109 620 l 1,0,1
EndSplineSet
EndChar

StartChar: question
Encoding: 63 63 36
Width: 1139
Flags: W
LayerCount: 2
Fore
SplineSet
478 342 m 1,0,1
 477 372 477 372 477 385 c 128,-1,2
 477 398 477 398 477 407 c 0,3,4
 477 513 477 513 507 590 c 0,5,6
 519 621 519 621 537 651 c 128,-1,7
 555 681 555 681 580 709 c 1,8,9
 598 731 598 731 630.5 761.5 c 128,-1,10
 663 792 663 792 733 851 c 1,11,-1
 733 850 l 1,12,13
 759 872 759 872 788.5 904.5 c 128,-1,14
 818 937 818 937 831 960 c 0,15,16
 858 1006 858 1006 858 1059 c 0,17,18
 858 1157 858 1157 779 1233 c 1,19,20
 698 1308 698 1308 584 1308 c 0,21,22
 472 1308 472 1308 397.5 1240.5 c 128,-1,23
 323 1173 323 1173 297 1015 c 1,24,25
 240 1021 240 1021 195.5 1027 c 128,-1,26
 151 1033 151 1033 92 1040 c 1,27,28
 119 1259 119 1259 245.5 1367.5 c 128,-1,29
 372 1476 372 1476 581 1476 c 0,30,31
 799 1476 799 1476 931 1359 c 0,32,33
 1064 1240 1064 1240 1064 1071 c 0,34,35
 1064 975 1064 975 1017 892 c 0,36,37
 969 808 969 808 817 677 c 1,38,-1
 817 678 l 1,39,40
 794 659 794 659 766.5 631 c 128,-1,41
 739 603 739 603 725 583 c 0,42,43
 712 564 712 564 702 544.5 c 128,-1,44
 692 525 692 525 685 504 c 0,45,46
 672 459 672 459 670 342 c 1,47,-1
 478 342 l 1,0,1
467 -13 m 1,48,-1
 467 211 l 1,49,-1
 692 211 l 1,50,-1
 692 -13 l 1,51,-1
 467 -13 l 1,48,-1
EndSplineSet
EndChar

StartChar: at
Encoding: 64 64 37
Width: 2079
Flags: W
LayerCount: 2
Fore
SplineSet
1179 146 m 1,0,1
 1117 75 1117 75 1034.5 29.5 c 128,-1,2
 952 -16 952 -16 868 -16 c 0,3,4
 822 -16 822 -16 776.5 -2 c 128,-1,5
 731 12 731 12 690 38.5 c 128,-1,6
 649 65 649 65 612.5 105.5 c 128,-1,7
 576 146 576 146 548 199 c 1,8,9
 495 309 495 309 495 437 c 0,10,11
 495 594 495 594 577 755 c 1,12,13
 661 915 661 915 785 995 c 0,14,15
 910 1075 910 1075 1026 1075 c 0,16,17
 1117 1075 1117 1075 1198.5 1027.5 c 128,-1,18
 1280 980 1280 980 1324 909 c 1,19,20
 1325 916 1325 916 1335 958 c 128,-1,21
 1345 1000 1345 1000 1356 1047 c 1,22,-1
 1556 1047 l 1,23,-1
 1408 372 l 2,24,25
 1378 237 1378 237 1378 223 c 0,26,27
 1378 202 1378 202 1395 186 c 128,-1,28
 1412 170 1412 170 1438 170 c 0,29,30
 1462 170 1462 170 1497 184.5 c 128,-1,31
 1532 199 1532 199 1573 228 c 0,32,33
 1628 266 1628 266 1673 318.5 c 128,-1,34
 1718 371 1718 371 1750 434 c 256,35,36
 1782 497 1782 497 1799 566.5 c 128,-1,37
 1816 636 1816 636 1816 703 c 0,38,39
 1816 863 1816 863 1732 1003 c 0,40,41
 1647 1143 1647 1143 1479 1228 c 0,42,43
 1311 1312 1311 1312 1108 1312 c 0,44,45
 875 1312 875 1312 684 1206 c 1,46,47
 587 1151 587 1151 513 1076 c 128,-1,48
 439 1001 439 1001 385 901 c 0,49,50
 281 705 281 705 281 475 c 0,51,52
 281 237 281 237 385 66 c 1,53,54
 438 -19 438 -19 514 -83 c 128,-1,55
 590 -147 590 -147 691 -187 c 1,56,57
 890 -269 890 -269 1135 -269 c 0,58,59
 1397 -269 1397 -269 1571 -184 c 0,60,61
 1658 -142 1658 -142 1723.5 -90 c 128,-1,62
 1789 -38 1789 -38 1836 28 c 1,63,-1
 2041 28 l 1,64,65
 2005 -42 2005 -42 1959.5 -95 c 128,-1,66
 1914 -148 1914 -148 1855 -202 c 1,67,68
 1791 -257 1791 -257 1716 -300 c 128,-1,69
 1641 -343 1641 -343 1555 -373 c 1,70,71
 1383 -437 1383 -437 1138 -437 c 0,72,73
 913 -437 913 -437 724.5 -380.5 c 128,-1,74
 536 -324 536 -324 400 -209 c 0,75,76
 333 -152 333 -152 283 -86 c 128,-1,77
 233 -20 233 -20 198 54 c 1,78,79
 156 148 156 148 134 250 c 128,-1,80
 112 352 112 352 112 460 c 0,81,82
 112 701 112 701 214 921 c 0,83,84
 338 1191 338 1191 565.5 1334.5 c 128,-1,85
 793 1478 793 1478 1117 1478 c 0,86,87
 1369 1478 1369 1478 1569 1376 c 1,88,89
 1666 1328 1666 1328 1746.5 1249.5 c 128,-1,90
 1827 1171 1827 1171 1885 1075 c 1,91,92
 1933 990 1933 990 1958.5 894.5 c 128,-1,93
 1984 799 1984 799 1984 700 c 0,94,95
 1984 409 1984 409 1778 185 c 0,96,97
 1593 -17 1593 -17 1370 -17 c 0,98,99
 1299 -17 1299 -17 1254.5 5 c 128,-1,100
 1210 27 1210 27 1187 68 c 0,101,102
 1172 95 1172 95 1167 148 c 1,103,-1
 1179 146 l 1,0,1
701 425 m 0,104,105
 701 296 701 296 764 223 c 0,106,107
 825 152 825 152 905 152 c 0,108,109
 959 152 959 152 1019 185 c 128,-1,110
 1079 218 1079 218 1134 280 c 0,111,112
 1162 312 1162 312 1185.5 352 c 128,-1,113
 1209 392 1209 392 1227 439 c 1,114,115
 1262 537 1262 537 1262 636 c 0,116,117
 1262 764 1262 764 1196 836 c 0,118,119
 1131 907 1131 907 1039 907 c 0,120,121
 977 907 977 907 923 876.5 c 128,-1,122
 869 846 869 846 816 776 c 0,123,124
 763 705 763 705 732 608 c 1,125,126
 701 507 701 507 701 425 c 0,104,105
EndSplineSet
EndChar

StartChar: A
Encoding: 65 65 38
Width: 1366
Flags: W
LayerCount: 2
Fore
SplineSet
0 -13 m 1,0,1
 147 362 147 362 289 723.5 c 128,-1,2
 431 1085 431 1085 574 1450 c 1,3,-1
 795 1450 l 1,4,5
 950 1081 950 1081 1098.5 723.5 c 128,-1,6
 1247 366 1247 366 1407 -13 c 1,7,-1
 1163 -13 l 1,8,-1
 992 423 l 1,9,-1
 389 423 l 1,10,11
 373 380 373 380 352.5 325 c 128,-1,12
 332 270 332 270 311.5 214 c 128,-1,13
 291 158 291 158 270.5 102 c 128,-1,14
 250 46 250 46 228 -13 c 1,15,-1
 0 -13 l 1,0,1
454 601 m 1,16,-1
 923 601 l 1,17,-1
 775 985 l 2,18,19
 740 1075 740 1075 714.5 1150 c 128,-1,20
 689 1225 689 1225 674 1275 c 1,21,-1
 688 1278 l 1,22,23
 676 1216 676 1216 655.5 1146.5 c 128,-1,24
 635 1077 635 1077 610 1008 c 1,25,-1
 454 601 l 1,16,-1
EndSplineSet
EndChar

StartChar: B
Encoding: 66 66 39
Width: 1366
Flags: W
LayerCount: 2
Fore
SplineSet
152 -13 m 1,0,-1
 152 1450 l 1,1,-1
 714 1450 l 2,2,3
 799 1450 799 1450 867 1439 c 128,-1,4
 935 1428 935 1428 988 1405 c 128,-1,5
 1041 1382 1041 1382 1081 1348 c 128,-1,6
 1121 1314 1121 1314 1151 1266 c 0,7,8
 1211 1173 1211 1173 1211 1070 c 0,9,10
 1211 974 1211 974 1157.5 889 c 128,-1,11
 1104 804 1104 804 1026 766 c 1,12,13
 1133 735 1133 735 1207.5 641 c 128,-1,14
 1282 547 1282 547 1282 416 c 0,15,16
 1282 314 1282 314 1237 222 c 0,17,18
 1193 133 1193 133 1127 85 c 0,19,20
 1061 36 1061 36 963 11.5 c 128,-1,21
 865 -13 865 -13 723 -13 c 2,22,-1
 152 -13 l 1,0,-1
367 844 m 1,23,-1
 675 844 l 2,24,25
 738 844 738 844 784.5 848.5 c 128,-1,26
 831 853 831 853 857 860 c 0,27,28
 928 881 928 881 964 928 c 128,-1,29
 1000 975 1000 975 1000 1048 c 0,30,31
 1000 1115 1000 1115 966.5 1166 c 128,-1,32
 933 1217 933 1217 871 1238 c 1,33,34
 840 1247 840 1247 784.5 1252.5 c 128,-1,35
 729 1258 729 1258 651 1258 c 2,36,-1
 367 1258 l 1,37,-1
 367 844 l 1,23,-1
367 179 m 1,38,-1
 723 179 l 2,39,40
 770 179 770 179 803 180.5 c 128,-1,41
 836 182 836 182 854 185 c 0,42,43
 918 197 918 197 961.5 223 c 128,-1,44
 1005 249 1005 249 1034 299 c 1,45,46
 1061 350 1061 350 1061 416 c 0,47,48
 1061 453 1061 453 1050 486 c 128,-1,49
 1039 519 1039 519 1019 547 c 128,-1,50
 999 575 999 575 970.5 595.5 c 128,-1,51
 942 616 942 616 908 629 c 1,52,53
 872 640 872 640 818 646 c 128,-1,54
 764 652 764 652 697 652 c 2,55,-1
 367 652 l 1,56,-1
 367 179 l 1,38,-1
EndSplineSet
EndChar

StartChar: C
Encoding: 67 67 40
Width: 1479
Flags: W
LayerCount: 2
Fore
SplineSet
1427 462 m 1,0,1
 1363 216 1363 216 1199 88 c 0,2,3
 1037 -38 1037 -38 805 -38 c 0,4,5
 685 -38 685 -38 588 -13 c 128,-1,6
 491 12 491 12 414 59.5 c 128,-1,7
 337 107 337 107 279.5 177 c 128,-1,8
 222 247 222 247 182 339 c 0,9,10
 104 521 104 521 104 729 c 0,11,12
 104 957 104 957 193 1126 c 0,13,14
 238 1212 238 1212 302 1276.5 c 128,-1,15
 366 1341 366 1341 446 1385 c 1,16,17
 527 1427 527 1427 619.5 1450.5 c 128,-1,18
 712 1474 712 1474 808 1474 c 0,19,20
 1032 1474 1032 1474 1185 1362 c 0,21,22
 1337 1251 1337 1251 1401 1035 c 1,23,24
 1341 1021 1341 1021 1294.5 1010.5 c 128,-1,25
 1248 1000 1248 1000 1190 988 c 1,26,27
 1137 1150 1137 1150 1042.5 1220 c 128,-1,28
 948 1290 948 1290 804 1290 c 0,29,30
 637 1290 637 1290 525 1211 c 0,31,32
 416 1135 416 1135 370 1004 c 0,33,34
 325 873 325 873 325 730 c 0,35,36
 325 639 325 639 338.5 559 c 128,-1,37
 352 479 352 479 378.5 413.5 c 128,-1,38
 405 348 405 348 446.5 297 c 128,-1,39
 488 246 488 246 544 214 c 1,40,41
 657 147 657 147 789 147 c 0,42,43
 869 147 869 147 937 169.5 c 128,-1,44
 1005 192 1005 192 1058.5 236.5 c 128,-1,45
 1112 281 1112 281 1150.5 348 c 128,-1,46
 1189 415 1189 415 1211 516 c 1,47,-1
 1427 462 l 1,0,1
EndSplineSet
EndChar

StartChar: D
Encoding: 68 68 41
Width: 1479
Flags: W
LayerCount: 2
Fore
SplineSet
160 -13 m 1,0,-1
 160 1450 l 1,1,-1
 677 1450 l 2,2,3
 848 1450 848 1450 940 1429 c 0,4,5
 1004 1415 1004 1415 1059 1389 c 128,-1,6
 1114 1363 1114 1363 1160 1323 c 1,7,8
 1279 1224 1279 1224 1337.5 1072.5 c 128,-1,9
 1396 921 1396 921 1396 726 c 0,10,11
 1396 601 1396 601 1372.5 498.5 c 128,-1,12
 1349 396 1349 396 1310.5 316 c 128,-1,13
 1272 236 1272 236 1222 178.5 c 128,-1,14
 1172 121 1172 121 1117 85 c 0,15,16
 1043 37 1043 37 939.5 12 c 128,-1,17
 836 -13 836 -13 701 -13 c 2,18,-1
 160 -13 l 1,0,-1
375 179 m 1,19,-1
 679 179 l 2,20,21
 824 179 824 179 903 205 c 0,22,23
 984 231 984 231 1032 278 c 0,24,25
 1100 344 1100 344 1137.5 455.5 c 128,-1,26
 1175 567 1175 567 1175 729 c 0,27,28
 1175 951 1175 951 1101 1070 c 0,29,30
 1065 1127 1065 1127 1019 1168 c 128,-1,31
 973 1209 973 1209 921 1229 c 0,32,33
 847 1258 847 1258 674 1258 c 2,34,-1
 375 1258 l 1,35,-1
 375 179 l 1,19,-1
EndSplineSet
EndChar

StartChar: E
Encoding: 69 69 42
Width: 1366
Flags: W
LayerCount: 2
Fore
SplineSet
164 -13 m 1,0,-1
 164 1450 l 1,1,-1
 1247 1450 l 1,2,-1
 1247 1258 l 1,3,-1
 379 1258 l 1,4,-1
 379 838 l 1,5,-1
 1192 838 l 1,6,-1
 1192 648 l 1,7,-1
 379 648 l 1,8,-1
 379 179 l 1,9,-1
 1281 179 l 1,10,-1
 1281 -13 l 1,11,-1
 164 -13 l 1,0,-1
EndSplineSet
EndChar

StartChar: F
Encoding: 70 70 43
Width: 1251
Flags: W
LayerCount: 2
Fore
SplineSet
171 -13 m 1,0,-1
 171 1450 l 1,1,-1
 1182 1450 l 1,2,-1
 1182 1258 l 1,3,-1
 385 1258 l 1,4,-1
 385 833 l 1,5,-1
 1075 833 l 1,6,-1
 1075 642 l 1,7,-1
 385 642 l 1,8,-1
 385 -13 l 1,9,-1
 171 -13 l 1,0,-1
EndSplineSet
EndChar

StartChar: G
Encoding: 71 71 44
Width: 1593
Flags: W
LayerCount: 2
Fore
SplineSet
848 553 m 1,0,-1
 848 743 l 1,1,2
 1017 743 1017 743 1169.5 743.5 c 128,-1,3
 1322 744 1322 744 1491 744 c 1,4,-1
 1491 194 l 1,5,6
 1341 79 1341 79 1186.5 20.5 c 128,-1,7
 1032 -38 1032 -38 872 -38 c 0,8,9
 764 -38 764 -38 664 -14 c 128,-1,10
 564 10 564 10 473 54 c 1,11,12
 388 99 388 99 318 168 c 128,-1,13
 248 237 248 237 202 322 c 1,14,15
 159 410 159 410 135 508.5 c 128,-1,16
 111 607 111 607 111 712 c 0,17,18
 111 815 111 815 135 916 c 128,-1,19
 159 1017 159 1017 201 1109 c 1,20,21
 247 1198 247 1198 314.5 1269 c 128,-1,22
 382 1340 382 1340 464 1385 c 1,23,24
 549 1427 549 1427 649.5 1450.5 c 128,-1,25
 750 1474 750 1474 857 1474 c 0,26,27
 1021 1474 1021 1474 1149 1422 c 1,28,29
 1279 1371 1279 1371 1356 1279 c 1,30,31
 1392 1234 1392 1234 1420.5 1173 c 128,-1,32
 1449 1112 1449 1112 1472 1028 c 1,33,34
 1416 1012 1416 1012 1374 1001.5 c 128,-1,35
 1332 991 1332 991 1276 976 c 1,36,37
 1242 1090 1242 1090 1193 1154 c 1,38,39
 1168 1185 1168 1185 1134.5 1210 c 128,-1,40
 1101 1235 1101 1235 1057 1252 c 1,41,42
 967 1290 967 1290 858 1290 c 0,43,44
 757 1290 757 1290 680 1267 c 128,-1,45
 603 1244 603 1244 545.5 1205 c 128,-1,46
 488 1166 488 1166 449 1115 c 128,-1,47
 410 1064 410 1064 387 1009 c 0,48,49
 332 876 332 876 332 723 c 0,50,51
 332 630 332 630 350 551.5 c 128,-1,52
 368 473 368 473 402 409 c 128,-1,53
 436 345 436 345 483.5 297.5 c 128,-1,54
 531 250 531 250 591 219 c 1,55,56
 718 156 718 156 861 156 c 0,57,58
 987 156 987 156 1104 203 c 1,59,60
 1163 228 1163 228 1208 253 c 128,-1,61
 1253 278 1253 278 1280 301 c 1,62,-1
 1280 553 l 1,63,-1
 848 553 l 1,0,-1
EndSplineSet
EndChar

StartChar: H
Encoding: 72 72 45
Width: 1479
Flags: W
LayerCount: 2
Fore
SplineSet
166 -13 m 1,0,-1
 166 1450 l 1,1,-1
 381 1450 l 1,2,-1
 381 858 l 1,3,-1
 1125 858 l 1,4,-1
 1125 1450 l 1,5,-1
 1340 1450 l 1,6,-1
 1340 -13 l 1,7,-1
 1125 -13 l 1,8,-1
 1125 666 l 1,9,-1
 381 666 l 1,10,-1
 381 -13 l 1,11,-1
 166 -13 l 1,0,-1
EndSplineSet
EndChar

StartChar: I
Encoding: 73 73 46
Width: 569
Flags: W
LayerCount: 2
Fore
SplineSet
194 -13 m 1,0,-1
 194 1450 l 1,1,-1
 409 1450 l 1,2,-1
 409 -13 l 1,3,-1
 194 -13 l 1,0,-1
EndSplineSet
EndChar

StartChar: J
Encoding: 74 74 47
Width: 1024
Flags: W
LayerCount: 2
Fore
SplineSet
272 442 m 1,0,1
 281 270 281 270 334 213 c 1,2,3
 387 154 387 154 482 154 c 0,4,5
 553 154 553 154 603 185.5 c 128,-1,6
 653 217 653 217 672 269 c 1,7,8
 691 325 691 325 691 446 c 2,9,-1
 691 1450 l 1,10,-1
 906 1450 l 1,11,-1
 906 457 l 2,12,13
 906 274 906 274 860 172 c 0,14,15
 814 68 814 68 714 16 c 1,16,17
 614 -38 614 -38 483 -38 c 0,18,19
 387 -38 387 -38 312 -8 c 128,-1,20
 237 22 237 22 185 79 c 128,-1,21
 133 136 133 136 106 219 c 128,-1,22
 79 302 79 302 78 417 c 1,23,-1
 272 442 l 1,0,1
EndSplineSet
EndChar

StartChar: K
Encoding: 75 75 48
Width: 1366
Flags: W
LayerCount: 2
Fore
SplineSet
152 -13 m 1,0,-1
 152 1450 l 1,1,-1
 367 1450 l 1,2,-1
 367 749 l 1,3,4
 397 778 397 778 457 837.5 c 128,-1,5
 517 897 517 897 581 959 c 128,-1,6
 645 1021 645 1021 711 1086 c 128,-1,7
 777 1151 777 1151 841.5 1213.5 c 128,-1,8
 906 1276 906 1276 966 1335 c 128,-1,9
 1026 1394 1026 1394 1083 1450 c 1,10,-1
 1379 1450 l 1,11,-1
 748 854 l 1,12,13
 902 649 902 649 1062 436 c 128,-1,14
 1222 223 1222 223 1400 -13 c 1,15,-1
 1115 -13 l 1,16,-1
 596 710 l 1,17,-1
 367 491 l 1,18,-1
 367 -13 l 1,19,-1
 152 -13 l 1,0,-1
EndSplineSet
EndChar

StartChar: L
Encoding: 76 76 49
Width: 1139
Flags: W
LayerCount: 2
Fore
SplineSet
153 -13 m 1,0,-1
 153 1450 l 1,1,-1
 367 1450 l 1,2,-1
 367 179 l 1,3,-1
 1091 179 l 1,4,-1
 1091 -13 l 1,5,-1
 153 -13 l 1,0,-1
EndSplineSet
EndChar

StartChar: M
Encoding: 77 77 50
Width: 1706
Flags: W
LayerCount: 2
Fore
SplineSet
154 -13 m 1,0,-1
 154 1450 l 1,1,-1
 463 1450 l 1,2,3
 551 1191 551 1191 640 931 c 128,-1,4
 729 671 729 671 814 422 c 0,5,6
 838 350 838 350 857 292.5 c 128,-1,7
 876 235 876 235 876 238 c 2,8,9
 876 238 876 238 897 301.5 c 128,-1,10
 918 365 918 365 944 439 c 0,11,12
 1032 688 1032 688 1120 940 c 128,-1,13
 1208 1192 1208 1192 1299 1450 c 1,14,-1
 1577 1450 l 1,15,-1
 1577 -13 l 1,16,-1
 1370 -13 l 1,17,-1
 1370 1194 l 1,18,-1
 1386 1191 l 1,19,20
 1283 902 1283 902 1175 599 c 128,-1,21
 1067 296 1067 296 958 -13 c 1,22,-1
 771 -13 l 1,23,-1
 346 1211 l 1,24,-1
 362 1214 l 1,25,-1
 362 -13 l 1,26,-1
 154 -13 l 1,0,-1
EndSplineSet
EndChar

StartChar: N
Encoding: 78 78 51
Width: 1479
Flags: W
LayerCount: 2
Fore
SplineSet
158 -13 m 1,0,-1
 158 1450 l 1,1,-1
 374 1450 l 1,2,-1
 1130 342 l 1,3,-1
 1130 1450 l 1,4,-1
 1337 1450 l 1,5,-1
 1337 -13 l 1,6,-1
 1121 -13 l 1,7,-1
 365 1096 l 1,8,-1
 365 -13 l 1,9,-1
 158 -13 l 1,0,-1
EndSplineSet
EndChar

StartChar: O
Encoding: 79 79 52
Width: 1593
Flags: W
LayerCount: 2
Fore
SplineSet
101 700 m 0,0,1
 101 1064 101 1064 301 1269 c 0,2,3
 502 1475 502 1475 815 1475 c 0,4,5
 1021 1475 1021 1475 1187 1378 c 0,6,7
 1352 1281 1352 1281 1440 1108 c 1,8,9
 1527 934 1527 934 1527 716 c 0,10,11
 1527 494 1527 494 1436 319 c 0,12,13
 1390 232 1390 232 1323.5 165 c 128,-1,14
 1257 98 1257 98 1176 53 c 1,15,16
 1094 10 1094 10 1001.5 -14 c 128,-1,17
 909 -38 909 -38 814 -38 c 0,18,19
 604 -38 604 -38 438 63 c 0,20,21
 356 113 356 113 293 181.5 c 128,-1,22
 230 250 230 250 186 335 c 1,23,24
 101 507 101 507 101 700 c 0,0,1
322 697 m 0,25,26
 322 440 322 440 461 294 c 1,27,28
 603 147 603 147 813 147 c 0,29,30
 1029 147 1029 147 1166 296 c 1,31,32
 1306 444 1306 444 1306 717 c 0,33,34
 1306 803 1306 803 1290 878.5 c 128,-1,35
 1274 954 1274 954 1244 1017.5 c 128,-1,36
 1214 1081 1214 1081 1170.5 1131.5 c 128,-1,37
 1127 1182 1127 1182 1073 1218 c 1,38,39
 960 1290 960 1290 816 1290 c 0,40,41
 717 1290 717 1290 628 1254 c 128,-1,42
 539 1218 539 1218 467 1152 c 1,43,44
 399 1084 399 1084 360.5 969 c 128,-1,45
 322 854 322 854 322 697 c 0,25,26
EndSplineSet
EndChar

StartChar: P
Encoding: 80 80 53
Width: 1366
Flags: W
LayerCount: 2
Fore
SplineSet
160 -13 m 1,0,-1
 160 1450 l 1,1,-1
 725 1450 l 2,2,3
 797 1450 797 1450 854 1446.5 c 128,-1,4
 911 1443 911 1443 950 1436 c 0,5,6
 1061 1417 1061 1417 1135 1366 c 128,-1,7
 1209 1315 1209 1315 1256 1223 c 0,8,9
 1279 1177 1279 1177 1291 1127 c 128,-1,10
 1303 1077 1303 1077 1303 1022 c 0,11,12
 1303 835 1303 835 1180 703 c 0,13,14
 1058 573 1058 573 742 573 c 2,15,-1
 375 573 l 1,16,-1
 375 -13 l 1,17,-1
 160 -13 l 1,0,-1
375 765 m 1,18,-1
 745 765 l 2,19,20
 930 765 930 765 1006 831 c 256,21,22
 1082 897 1082 897 1082 1016 c 0,23,24
 1082 1104 1082 1104 1037.5 1165 c 128,-1,25
 993 1226 993 1226 921 1245 c 0,26,27
 873 1258 873 1258 741 1258 c 2,28,-1
 375 1258 l 1,29,-1
 375 765 l 1,18,-1
EndSplineSet
EndChar

StartChar: Q
Encoding: 81 81 54
Width: 1593
Flags: W
LayerCount: 2
Fore
SplineSet
1295 157 m 1,0,1
 1356 116 1356 116 1416.5 84 c 128,-1,2
 1477 52 1477 52 1547 25 c 1,3,4
 1528 -20 1528 -20 1514.5 -51.5 c 128,-1,5
 1501 -83 1501 -83 1482 -127 c 1,6,7
 1315 -69 1315 -69 1161 50 c 1,8,9
 1002 -38 1002 -38 800 -38 c 256,10,11
 598 -38 598 -38 433 59 c 0,12,13
 351 107 351 107 287.5 174.5 c 128,-1,14
 224 242 224 242 178 328 c 1,15,16
 137 414 137 414 113.5 514.5 c 128,-1,17
 90 615 90 615 90 718 c 0,18,19
 90 935 90 935 179 1112 c 1,20,21
 225 1200 225 1200 289.5 1268 c 128,-1,22
 354 1336 354 1336 434 1382 c 1,23,24
 516 1427 516 1427 609.5 1451 c 128,-1,25
 703 1475 703 1475 804 1475 c 0,26,27
 1010 1475 1010 1475 1176 1378 c 0,28,29
 1341 1282 1341 1282 1429 1109 c 1,30,31
 1516 935 1516 935 1516 719 c 0,32,33
 1516 357 1516 357 1295 147 c 1,34,-1
 1295 157 l 1,0,1
851 409 m 1,35,36
 1030 360 1030 360 1134 273 c 1,37,38
 1295 418 1295 418 1295 719 c 0,39,40
 1295 804 1295 804 1279 879.5 c 128,-1,41
 1263 955 1263 955 1233 1018 c 128,-1,42
 1203 1081 1203 1081 1159.5 1131.5 c 128,-1,43
 1116 1182 1116 1182 1062 1218 c 1,44,45
 949 1290 949 1290 805 1290 c 0,46,47
 592 1290 592 1290 451 1146 c 0,48,49
 311 1003 311 1003 311 718 c 0,50,51
 311 442 311 442 449 295 c 0,52,53
 589 147 589 147 805 147 c 0,54,55
 905 147 905 147 978 176 c 1,56,57
 906 222 906 222 796 250 c 1,58,-1
 851 409 l 1,35,36
EndSplineSet
EndChar

StartChar: R
Encoding: 82 82 55
Width: 1479
Flags: W
LayerCount: 2
Fore
SplineSet
163 -13 m 1,0,-1
 163 1450 l 1,1,-1
 825 1450 l 2,2,3
 1024 1450 1024 1450 1128 1410 c 1,4,5
 1231 1372 1231 1372 1295 1269 c 0,6,7
 1359 1165 1359 1165 1359 1046 c 0,8,9
 1359 888 1359 888 1254 779 c 0,10,11
 1203 725 1203 725 1121.5 690 c 128,-1,12
 1040 655 1040 655 973 647 c 1,13,14
 975 646 975 646 1006.5 627.5 c 128,-1,15
 1038 609 1038 609 1059 591 c 1,16,17
 1098 554 1098 554 1141 503 c 128,-1,18
 1184 452 1184 452 1221 396 c 0,19,20
 1284 298 1284 298 1348 201.5 c 128,-1,21
 1412 105 1412 105 1488 -13 c 1,22,-1
 1219 -13 l 1,23,-1
 1022 292 l 2,24,25
 979 359 979 359 945 407 c 128,-1,26
 911 455 911 455 882 489.5 c 128,-1,27
 853 524 853 524 830 546.5 c 128,-1,28
 807 569 807 569 785.5 583.5 c 128,-1,29
 764 598 764 598 743.5 606.5 c 128,-1,30
 723 615 723 615 700 620 c 0,31,32
 671 627 671 627 593 627 c 2,33,-1
 378 627 l 1,34,-1
 378 -13 l 1,35,-1
 163 -13 l 1,0,-1
378 814 m 1,36,-1
 786 814 l 2,37,38
 852 814 852 814 903 820 c 128,-1,39
 954 826 954 826 992 840 c 128,-1,40
 1030 854 1030 854 1056 874 c 128,-1,41
 1082 894 1082 894 1101 922 c 0,42,43
 1138 979 1138 979 1138 1046 c 0,44,45
 1138 1141 1138 1141 1065 1204 c 1,46,47
 1030 1236 1030 1236 970.5 1252.5 c 128,-1,48
 911 1269 911 1269 833 1269 c 2,49,-1
 378 1269 l 1,50,-1
 378 814 l 1,36,-1
EndSplineSet
EndChar

StartChar: S
Encoding: 83 83 56
Width: 1366
Flags: W
LayerCount: 2
Fore
SplineSet
297 488 m 1,0,1
 304 423 304 423 318.5 381 c 128,-1,2
 333 339 333 339 357 305.5 c 128,-1,3
 381 272 381 272 416 245 c 128,-1,4
 451 218 451 218 500 197 c 0,5,6
 598 155 598 155 722 155 c 1,7,8
 807 154 807 154 874 173 c 128,-1,9
 941 192 941 192 986.5 224.5 c 128,-1,10
 1032 257 1032 257 1055.5 299.5 c 128,-1,11
 1079 342 1079 342 1077 389 c 1,12,13
 1077 452 1077 452 1036.5 501 c 128,-1,14
 996 550 996 550 912 583 c 1,15,16
 881 594 881 594 815 611.5 c 128,-1,17
 749 629 749 629 651 652 c 0,18,19
 548 676 548 676 477 698.5 c 128,-1,20
 406 721 406 721 364 743 c 0,21,22
 256 798 256 798 203 880.5 c 128,-1,23
 150 963 150 963 150 1066 c 0,24,25
 150 1176 150 1176 216 1276 c 0,26,27
 283 1377 283 1377 405 1424 c 1,28,29
 530 1474 530 1474 678 1474 c 0,30,31
 843 1474 843 1474 970 1422 c 128,-1,32
 1097 1370 1097 1370 1166 1266 c 0,33,34
 1236 1161 1236 1161 1241 1023 c 1,35,36
 1182 1019 1182 1019 1138 1015 c 128,-1,37
 1094 1011 1094 1011 1036 1007 c 1,38,39
 1019 1150 1019 1150 935 1217.5 c 128,-1,40
 851 1285 851 1285 686 1285 c 0,41,42
 512 1285 512 1285 434 1223 c 0,43,44
 358 1162 358 1162 358 1079 c 0,45,46
 358 1044 358 1044 372 1014 c 128,-1,47
 386 984 386 984 412 961 c 0,48,49
 439 936 439 936 511.5 910.5 c 128,-1,50
 584 885 584 885 700 859 c 0,51,52
 817 833 817 833 900 809.5 c 128,-1,53
 983 786 983 786 1029 767 c 1,54,55
 1157 706 1157 706 1221 614.5 c 128,-1,56
 1285 523 1285 523 1285 405 c 256,57,58
 1285 287 1285 287 1215 182 c 0,59,60
 1180 128 1180 128 1131.5 88.5 c 128,-1,61
 1083 49 1083 49 1019 19 c 1,62,63
 891 -38 891 -38 731 -38 c 0,64,65
 529 -38 529 -38 393 20 c 128,-1,66
 257 78 257 78 163 216 c 1,67,-1
 164 216 l 1,68,69
 138 255 138 255 117 320 c 128,-1,70
 96 385 96 385 94 471 c 1,71,-1
 297 488 l 1,0,1
EndSplineSet
EndChar

StartChar: T
Encoding: 84 84 57
Width: 1251
Flags: W
LayerCount: 2
Fore
SplineSet
535 -13 m 1,0,-1
 535 1258 l 1,1,-1
 50 1258 l 1,2,-1
 50 1450 l 1,3,-1
 1235 1450 l 1,4,-1
 1235 1258 l 1,5,-1
 749 1258 l 1,6,-1
 749 -13 l 1,7,-1
 535 -13 l 1,0,-1
EndSplineSet
EndChar

StartChar: U
Encoding: 85 85 58
Width: 1479
Flags: W
LayerCount: 2
Fore
SplineSet
1125 1450 m 1,0,-1
 1340 1450 l 1,1,-1
 1340 607 l 2,2,3
 1340 387 1340 387 1288 258 c 0,4,5
 1262 191 1262 191 1216 138.5 c 128,-1,6
 1170 86 1170 86 1103 44 c 0,7,8
 969 -38 969 -38 755 -38 c 0,9,10
 653 -38 653 -38 568 -18.5 c 128,-1,11
 483 1 483 1 416 37 c 128,-1,12
 349 73 349 73 300 124.5 c 128,-1,13
 251 176 251 176 221 241 c 1,14,15
 192 309 192 309 177.5 401 c 128,-1,16
 163 493 163 493 163 607 c 2,17,-1
 163 1450 l 1,18,-1
 378 1450 l 1,19,-1
 378 608 l 2,20,21
 378 422 378 422 412 334 c 0,22,23
 445 250 445 250 529 203 c 256,24,25
 613 156 613 156 738 156 c 0,26,27
 948 156 948 156 1037 249 c 0,28,29
 1125 341 1125 341 1125 608 c 2,30,-1
 1125 1450 l 1,0,-1
EndSplineSet
EndChar

StartChar: V
Encoding: 86 86 59
Width: 1366
Flags: W
LayerCount: 2
Fore
SplineSet
591 -13 m 1,0,1
 445 356 445 356 303.5 713.5 c 128,-1,2
 162 1071 162 1071 12 1450 c 1,3,-1
 244 1450 l 1,4,-1
 629 395 l 2,5,6
 652 332 652 332 673 268 c 128,-1,7
 694 204 694 204 697 192 c 1,8,9
 702 208 702 208 723 272 c 128,-1,10
 744 336 744 336 767 396 c 0,11,12
 866 657 866 657 966 919 c 128,-1,13
 1066 1181 1066 1181 1167 1450 c 1,14,-1
 1387 1450 l 1,15,16
 1237 1075 1237 1075 1092.5 713.5 c 128,-1,17
 948 352 948 352 802 -13 c 1,18,-1
 591 -13 l 1,0,1
EndSplineSet
EndChar

StartChar: W
Encoding: 87 87 60
Width: 1933
Flags: W
LayerCount: 2
Fore
SplineSet
424 -13 m 1,0,1
 323 358 323 358 226 715.5 c 128,-1,2
 129 1073 129 1073 28 1450 c 1,3,-1
 247 1450 l 1,4,-1
 474 497 l 2,5,6
 492 422 492 422 507.5 348 c 128,-1,7
 523 274 523 274 534 212 c 1,8,-1
 519 212 l 1,9,10
 571 430 571 430 582 469 c 0,11,12
 652 711 652 711 722.5 955 c 128,-1,13
 793 1199 793 1199 865 1450 c 1,14,-1
 1114 1450 l 1,15,-1
 1326 713 l 2,16,17
 1367 574 1367 574 1395.5 447.5 c 128,-1,18
 1424 321 1424 321 1440 212 c 1,19,-1
 1424 212 l 1,20,21
 1436 271 1436 271 1454 348.5 c 128,-1,22
 1472 426 1472 426 1495 516 c 0,23,24
 1552 749 1552 749 1610 978 c 128,-1,25
 1668 1207 1668 1207 1728 1450 c 1,26,-1
 1944 1450 l 1,27,28
 1840 1080 1840 1080 1738 714.5 c 128,-1,29
 1636 349 1636 349 1535 -13 c 1,30,-1
 1333 -13 l 1,31,-1
 1020 1093 l 2,32,33
 1000 1162 1000 1162 989 1204.5 c 128,-1,34
 978 1247 978 1247 977 1253 c 1,35,-1
 991 1253 l 1,36,37
 983 1214 983 1214 971.5 1171 c 128,-1,38
 960 1128 960 1128 950 1093 c 0,39,40
 875 823 875 823 795 544.5 c 128,-1,41
 715 266 715 266 636 -13 c 1,42,-1
 424 -13 l 1,0,1
EndSplineSet
EndChar

StartChar: X
Encoding: 88 88 61
Width: 1366
Flags: W
LayerCount: 2
Fore
SplineSet
12 -13 m 1,0,-1
 590 749 l 1,1,2
 471 914 471 914 345.5 1084.5 c 128,-1,3
 220 1255 220 1255 80 1450 c 1,4,-1
 339 1450 l 1,5,6
 408 1355 408 1355 475.5 1260.5 c 128,-1,7
 543 1166 543 1166 609 1076 c 1,8,9
 647 1022 647 1022 678 975 c 128,-1,10
 709 928 709 928 719 911 c 1,11,12
 736 938 736 938 765.5 981 c 128,-1,13
 795 1024 795 1024 826 1064 c 0,14,15
 899 1157 899 1157 974 1254.5 c 128,-1,16
 1049 1352 1049 1352 1125 1450 c 1,17,-1
 1364 1450 l 1,18,-1
 838 760 l 1,19,20
 973 576 973 576 1111 387.5 c 128,-1,21
 1249 199 1249 199 1404 -13 c 1,22,-1
 1136 -13 l 1,23,24
 1043 115 1043 115 947.5 248 c 128,-1,25
 852 381 852 381 763 505 c 0,26,27
 746 528 746 528 729.5 555 c 128,-1,28
 713 582 713 582 708 591 c 1,29,30
 694 569 694 569 675.5 539.5 c 128,-1,31
 657 510 657 510 646 493 c 1,32,33
 555 370 555 370 461.5 242.5 c 128,-1,34
 368 115 368 115 274 -13 c 1,35,-1
 12 -13 l 1,0,-1
EndSplineSet
EndChar

StartChar: Y
Encoding: 89 89 62
Width: 1366
Flags: W
LayerCount: 2
Fore
SplineSet
587 -13 m 1,0,-1
 587 605 l 1,1,2
 446 808 446 808 306 1015 c 128,-1,3
 166 1222 166 1222 9 1450 c 1,4,-1
 272 1450 l 1,5,6
 347 1338 347 1338 420 1227 c 128,-1,7
 493 1116 493 1116 565 1011 c 1,8,9
 605 949 605 949 643.5 886 c 128,-1,10
 682 823 682 823 706 781 c 1,11,12
 727 818 727 818 769 884.5 c 128,-1,13
 811 951 811 951 858 1021 c 0,14,15
 929 1125 929 1125 1000.5 1232.5 c 128,-1,16
 1072 1340 1072 1340 1146 1450 c 1,17,-1
 1399 1450 l 1,18,-1
 801 605 l 1,19,-1
 801 -13 l 1,20,-1
 587 -13 l 1,0,-1
EndSplineSet
EndChar

StartChar: Z
Encoding: 90 90 63
Width: 1251
Flags: W
LayerCount: 2
Fore
SplineSet
202 -13 m 1,0,-1
 202 143 l 1,1,-1
 42 -17 l 1,2,-1
 956 1105 l 2,3,4
 997 1155 997 1155 1036 1198.5 c 128,-1,5
 1075 1242 1075 1242 1091 1258 c 1,6,-1
 288 1258 l 1,7,-1
 288 1450 l 1,8,-1
 1360 1450 l 1,9,-1
 1360 1300 l 1,10,-1
 1521 1462 l 1,11,12
 1157 1016 1157 1016 946 762.5 c 128,-1,13
 735 509 735 509 532 263 c 1,14,-1
 459 179 l 1,15,-1
 1384 179 l 1,16,-1
 1384 -13 l 1,17,-1
 202 -13 l 1,0,-1
EndSplineSet
EndChar

StartChar: bracketleft
Encoding: 91 91 64
Width: 569
Flags: W
LayerCount: 2
Fore
SplineSet
142 -414 m 1,0,-1
 142 1452 l 1,1,-1
 560 1452 l 1,2,-1
 560 1283 l 1,3,-1
 343 1283 l 1,4,-1
 343 -245 l 1,5,-1
 560 -245 l 1,6,-1
 560 -414 l 1,7,-1
 142 -414 l 1,0,-1
EndSplineSet
EndChar

StartChar: backslash
Encoding: 92 92 65
Width: 569
Flags: W
LayerCount: 2
Fore
SplineSet
436 -38 m 1,0,1
 328 346 328 346 221.5 715.5 c 128,-1,2
 115 1085 115 1085 3 1476 c 1,3,-1
 169 1476 l 1,4,-1
 601 -38 l 1,5,-1
 436 -38 l 1,0,1
EndSplineSet
EndChar

StartChar: bracketright
Encoding: 93 93 66
Width: 569
Flags: W
LayerCount: 2
Fore
SplineSet
460 -414 m 1,0,-1
 42 -414 l 1,1,-1
 42 -245 l 1,2,-1
 260 -245 l 1,3,-1
 260 1283 l 1,4,-1
 42 1283 l 1,5,-1
 42 1452 l 1,6,-1
 460 1452 l 1,7,-1
 460 -414 l 1,0,-1
EndSplineSet
EndChar

StartChar: asciicircum
Encoding: 94 94 67
Width: 961
Flags: W
LayerCount: 2
Fore
SplineSet
265 666 m 1,0,-1
 57 666 l 1,1,2
 151 875 151 875 242 1076 c 128,-1,3
 333 1277 333 1277 423 1476 c 1,4,-1
 579 1476 l 1,5,6
 671 1271 671 1271 760 1076 c 128,-1,7
 849 881 849 881 946 666 c 1,8,-1
 742 666 l 1,9,-1
 500 1238 l 1,10,-1
 265 666 l 1,0,-1
EndSplineSet
EndChar

StartChar: underscore
Encoding: 95 95 68
Width: 1139
Flags: W
LayerCount: 2
Fore
SplineSet
-29 -414 m 1,0,-1
 -29 -263 l 1,1,-1
 1188 -263 l 1,2,-1
 1188 -414 l 1,3,-1
 -29 -414 l 1,0,-1
EndSplineSet
EndChar

StartChar: grave
Encoding: 96 96 69
Width: 682
Flags: W
LayerCount: 2
Fore
SplineSet
510 1162 m 1,0,-1
 344 1162 l 1,1,2
 281 1235 281 1235 225.5 1302.5 c 128,-1,3
 170 1370 170 1370 94 1460 c 1,4,-1
 364 1460 l 1,5,-1
 510 1162 l 1,0,-1
EndSplineSet
EndChar

StartChar: a
Encoding: 97 97 70
Width: 1139
Flags: W
LayerCount: 2
Fore
SplineSet
843 113 m 1,0,1
 798 75 798 75 749.5 45 c 128,-1,2
 701 15 701 15 652 -1 c 1,3,4
 557 -37 557 -37 451 -37 c 0,5,6
 271 -37 271 -37 174 49 c 0,7,8
 76 135 76 135 76 273 c 0,9,10
 76 335 76 335 97.5 386 c 128,-1,11
 119 437 119 437 155.5 477 c 128,-1,12
 192 517 192 517 240 544 c 128,-1,13
 288 571 288 571 343 584 c 0,14,15
 369 591 369 591 411 597.5 c 128,-1,16
 453 604 453 604 504 611 c 0,17,18
 611 624 611 624 693 639 c 128,-1,19
 775 654 775 654 818 670 c 1,20,21
 819 679 819 679 819 691 c 128,-1,22
 819 703 819 703 819 708 c 0,23,24
 819 808 819 808 771 851 c 1,25,26
 739 878 739 878 688 893.5 c 128,-1,27
 637 909 637 909 572 909 c 0,28,29
 512 909 512 909 464.5 897 c 128,-1,30
 417 885 417 885 388 866 c 1,31,32
 331 826 331 826 301 710 c 1,33,34
 246 717 246 717 204 722 c 128,-1,35
 162 727 162 727 104 735 c 1,36,37
 132 860 132 860 189.5 931.5 c 128,-1,38
 247 1003 247 1003 353 1039 c 1,39,40
 460 1077 460 1077 598 1077 c 256,41,42
 736 1077 736 1077 824 1045 c 128,-1,43
 912 1013 912 1013 953 963 c 0,44,45
 973 940 973 940 988 906 c 128,-1,46
 1003 872 1003 872 1012 838 c 1,47,48
 1016 814 1016 814 1018.5 771 c 128,-1,49
 1021 728 1021 728 1021 672 c 2,50,-1
 1021 436 l 2,51,52
 1021 312 1021 312 1024 235 c 128,-1,53
 1027 158 1027 158 1032 125 c 0,54,55
 1037 94 1037 94 1048 63.5 c 128,-1,56
 1059 33 1059 33 1085 -13 c 1,57,-1
 873 -13 l 1,58,59
 856 20 856 20 846.5 55.5 c 128,-1,60
 837 91 837 91 834 117 c 1,61,-1
 843 113 l 1,0,1
818 507 m 1,62,63
 783 494 783 494 707.5 476 c 128,-1,64
 632 458 632 458 535 445 c 1,65,66
 422 428 422 428 379 410 c 0,67,68
 337 392 337 392 325 376 c 1,69,-1
 327 376 l 1,70,71
 289 321 289 321 289 278 c 0,72,73
 289 246 289 246 302 217.5 c 128,-1,74
 315 189 315 189 340 168.5 c 128,-1,75
 365 148 365 148 403.5 136 c 128,-1,76
 442 124 442 124 494 124 c 0,77,78
 545 124 545 124 591 135 c 128,-1,79
 637 146 637 146 675 167 c 128,-1,80
 713 188 713 188 742.5 218 c 128,-1,81
 772 248 772 248 790 285 c 0,82,83
 818 344 818 344 818 458 c 2,84,-1
 818 507 l 1,62,63
EndSplineSet
EndChar

StartChar: b
Encoding: 98 98 71
Width: 1139
Flags: W
LayerCount: 2
Fore
SplineSet
324 -13 m 1,0,-1
 136 -13 l 1,1,-1
 136 1452 l 1,2,-1
 337 1452 l 1,3,-1
 337 956 l 1,4,5
 436 1077 436 1077 619 1077 c 0,6,7
 721 1077 721 1077 810 1038 c 128,-1,8
 899 999 899 999 957 925 c 1,9,10
 1016 853 1016 853 1048.5 752.5 c 128,-1,11
 1081 652 1081 652 1081 536 c 0,12,13
 1081 262 1081 262 943 113 c 0,14,15
 803 -37 803 -37 610 -37 c 0,16,17
 513 -37 513 -37 435.5 4.5 c 128,-1,18
 358 46 358 46 324 95 c 1,19,-1
 324 -13 l 1,0,-1
322 528 m 0,20,21
 322 345 322 345 372 263 c 1,22,23
 414 198 414 198 470 164.5 c 128,-1,24
 526 131 526 131 595 131 c 0,25,26
 710 131 710 131 792 228 c 0,27,28
 876 327 876 327 876 521 c 0,29,30
 876 720 876 720 795 816 c 0,31,32
 716 910 716 910 603 910 c 256,33,34
 490 910 490 910 406 812 c 0,35,36
 322 713 322 713 322 528 c 0,20,21
EndSplineSet
EndChar

StartChar: c
Encoding: 99 99 72
Width: 1024
Flags: W
LayerCount: 2
Fore
SplineSet
1033 367 m 1,0,1
 1002 172 1002 172 877 67 c 1,2,3
 756 -37 756 -37 577 -37 c 0,4,5
 353 -37 353 -37 218 106 c 0,6,7
 82 249 82 249 82 517 c 0,8,9
 82 602 82 602 96.5 678 c 128,-1,10
 111 754 111 754 140 817.5 c 128,-1,11
 169 881 169 881 213.5 930 c 128,-1,12
 258 979 258 979 318 1012 c 0,13,14
 439 1077 439 1077 578 1077 c 0,15,16
 665 1077 665 1077 737.5 1054.5 c 128,-1,17
 810 1032 810 1032 866 988.5 c 128,-1,18
 922 945 922 945 959.5 882 c 128,-1,19
 997 819 997 819 1017 726 c 1,20,21
 959 717 959 717 917 711.5 c 128,-1,22
 875 706 875 706 820 699 c 1,23,24
 792 809 792 809 732 859.5 c 128,-1,25
 672 910 672 910 585 910 c 0,26,27
 519 910 519 910 466.5 886.5 c 128,-1,28
 414 863 414 863 371 816 c 0,29,30
 288 724 288 724 288 521 c 0,31,32
 288 316 288 316 368 224 c 0,33,34
 448 131 448 131 575 131 c 0,35,36
 678 131 678 131 746.5 192 c 128,-1,37
 815 253 815 253 835 393 c 1,38,-1
 1033 367 l 1,0,1
EndSplineSet
EndChar

StartChar: d
Encoding: 100 100 73
Width: 1139
Flags: W
LayerCount: 2
Fore
SplineSet
829 -13 m 1,0,-1
 829 96 l 1,1,2
 744 -37 744 -37 541 -37 c 0,3,4
 410 -37 410 -37 301 34 c 0,5,6
 194 103 194 103 131 230 c 1,7,8
 72 356 72 356 72 519 c 0,9,10
 72 677 72 677 126 807 c 1,11,12
 183 938 183 938 290 1008 c 1,13,14
 399 1077 399 1077 533 1077 c 0,15,16
 632 1077 632 1077 711 1034.5 c 128,-1,17
 790 992 790 992 817 955 c 1,18,-1
 817 1452 l 1,19,-1
 1017 1452 l 1,20,-1
 1017 -13 l 1,21,-1
 829 -13 l 1,0,-1
278 519 m 0,22,23
 278 324 278 324 362 228 c 0,24,25
 446 131 446 131 558 131 c 0,26,27
 672 131 672 131 751 223 c 0,28,29
 832 316 832 316 832 505 c 0,30,31
 832 714 832 714 750 812 c 0,32,33
 668 909 668 909 550 909 c 0,34,35
 435 909 435 909 356 816 c 1,36,37
 278 722 278 722 278 519 c 0,22,23
EndSplineSet
EndChar

StartChar: e
Encoding: 101 101 74
Width: 1139
Flags: W
LayerCount: 2
Fore
SplineSet
1077 321 m 1,0,1
 1026 142 1026 142 905 52.5 c 128,-1,2
 784 -37 784 -37 595 -37 c 0,3,4
 357 -37 357 -37 217 107 c 256,5,6
 77 251 77 251 77 512 c 0,7,8
 77 648 77 648 112.5 751 c 128,-1,9
 148 854 148 854 219 929 c 0,10,11
 358 1077 358 1077 585 1077 c 0,12,13
 804 1077 804 1077 941 932 c 0,14,15
 1080 785 1080 785 1080 522 c 0,16,17
 1080 515 1080 515 1080 504 c 128,-1,18
 1080 493 1080 493 1078 464 c 1,19,-1
 285 464 l 1,20,21
 294 309 294 309 380 220 c 0,22,23
 467 131 467 131 596 131 c 0,24,25
 692 131 692 131 759.5 180.5 c 128,-1,26
 827 230 827 230 871 346 c 1,27,-1
 1077 321 l 1,0,1
868 631 m 1,28,29
 857 747 857 747 803 811 c 0,30,31
 719 910 719 910 587 910 c 0,32,33
 527 910 527 910 477 890 c 128,-1,34
 427 870 427 870 384 830 c 0,35,36
 303 754 303 754 295 631 c 1,37,-1
 868 631 l 1,28,29
EndSplineSet
EndChar

StartChar: f
Encoding: 102 102 75
Width: 569
Flags: W
LayerCount: 2
Fore
SplineSet
181 -13 m 1,0,-1
 181 894 l 1,1,-1
 21 894 l 1,2,-1
 21 1054 l 1,3,-1
 181 1054 l 1,4,-1
 181 1154 l 2,5,6
 181 1258 181 1258 201 1314 c 1,7,8
 215 1349 215 1349 239.5 1378.5 c 128,-1,9
 264 1408 264 1408 299.5 1430 c 128,-1,10
 335 1452 335 1452 381 1464 c 128,-1,11
 427 1476 427 1476 486 1476 c 0,12,13
 525 1476 525 1476 566.5 1472 c 128,-1,14
 608 1468 608 1468 667 1458 c 1,15,16
 658 1406 658 1406 652 1368.5 c 128,-1,17
 646 1331 646 1331 636 1281 c 1,18,19
 598 1288 598 1288 571.5 1290 c 128,-1,20
 545 1292 545 1292 521 1292 c 0,21,22
 444 1292 444 1292 412 1260 c 0,23,24
 381 1230 381 1230 381 1139 c 2,25,-1
 381 1054 l 1,26,-1
 588 1054 l 1,27,-1
 588 894 l 1,28,-1
 381 894 l 1,29,-1
 381 -13 l 1,30,-1
 181 -13 l 1,0,-1
EndSplineSet
EndChar

StartChar: g
Encoding: 103 103 76
Width: 1139
Flags: W
LayerCount: 2
Fore
SplineSet
299 -105 m 1,0,1
 309 -188 309 -188 357 -221 c 1,2,3
 421 -268 421 -268 535 -268 c 0,4,5
 658 -268 658 -268 723.5 -221.5 c 128,-1,6
 789 -175 789 -175 811 -90 c 0,7,8
 817 -66 817 -66 820.5 -18 c 128,-1,9
 824 30 824 30 824 106 c 2,10,-1
 824 107 l 1,11,12
 720 -13 720 -13 539 -13 c 0,13,14
 315 -13 315 -13 191 147 c 1,15,16
 68 304 68 304 68 526 c 0,17,18
 68 601 68 601 82 671.5 c 128,-1,19
 96 742 96 742 124 806 c 1,20,21
 184 937 184 937 288 1007 c 1,22,23
 342 1041 342 1041 405.5 1059 c 128,-1,24
 469 1077 469 1077 540 1077 c 0,25,26
 734 1077 734 1077 841 946 c 1,27,-1
 841 1054 l 1,28,-1
 1028 1054 l 1,29,-1
 1028 140 l 2,30,31
 1028 -107 1028 -107 976 -211 c 0,32,33
 922 -317 922 -317 811 -376 c 1,34,35
 699 -437 699 -437 536 -437 c 0,36,37
 343 -437 343 -437 222 -350 c 0,38,39
 162 -306 162 -306 132 -241.5 c 128,-1,40
 102 -177 102 -177 104 -75 c 1,41,-1
 299 -105 l 1,0,1
274 539 m 0,42,43
 274 338 274 338 355 247 c 0,44,45
 395 201 395 201 445.5 178.5 c 128,-1,46
 496 156 496 156 556 156 c 0,47,48
 677 156 677 156 757 246 c 0,49,50
 839 337 839 337 839 533 c 0,51,52
 839 626 839 626 816.5 696.5 c 128,-1,53
 794 767 794 767 754 814 c 1,54,55
 713 860 713 860 662 884.5 c 128,-1,56
 611 909 611 909 553 909 c 0,57,58
 438 909 438 909 356 815 c 1,59,60
 274 723 274 723 274 539 c 0,42,43
EndSplineSet
EndChar

StartChar: h
Encoding: 104 104 77
Width: 1139
Flags: W
LayerCount: 2
Fore
SplineSet
137 -13 m 1,0,-1
 137 1452 l 1,1,-1
 338 1452 l 1,2,-1
 338 950 l 1,3,4
 450 1077 450 1077 647 1077 c 0,5,6
 768 1077 768 1077 857.5 1029.5 c 128,-1,7
 947 982 947 982 987 899 c 1,8,9
 1026 814 1026 814 1026 661 c 2,10,-1
 1026 -13 l 1,11,-1
 825 -13 l 1,12,-1
 825 661 l 2,13,14
 825 789 825 789 769.5 846 c 128,-1,15
 714 903 714 903 610 903 c 0,16,17
 533 903 533 903 505 887 c 1,18,-1
 509 887 l 1,19,20
 395 825 395 825 367 758 c 0,21,22
 338 691 338 691 338 569 c 2,23,-1
 338 -13 l 1,24,-1
 137 -13 l 1,0,-1
EndSplineSet
EndChar

StartChar: i
Encoding: 105 105 78
Width: 455
Flags: W
LayerCount: 2
Fore
SplineSet
139 1226 m 1,0,-1
 139 1452 l 1,1,-1
 340 1452 l 1,2,-1
 340 1226 l 1,3,-1
 139 1226 l 1,0,-1
139 -13 m 1,4,-1
 139 1054 l 1,5,-1
 340 1054 l 1,6,-1
 340 -13 l 1,7,-1
 139 -13 l 1,4,-1
EndSplineSet
EndChar

StartChar: j
Encoding: 106 106 79
Width: 455
Flags: W
LayerCount: 2
Fore
SplineSet
139 1224 m 1,0,-1
 139 1452 l 1,1,-1
 340 1452 l 1,2,-1
 340 1224 l 1,3,-1
 139 1224 l 1,0,-1
-52 -244 m 1,4,5
 -15 -253 -15 -253 5 -256 c 128,-1,6
 25 -259 25 -259 40 -259 c 0,7,8
 91 -259 91 -259 114 -227 c 0,9,10
 139 -192 139 -192 139 -55 c 2,11,-1
 139 1054 l 1,12,-1
 340 1054 l 1,13,-1
 340 -59 l 2,14,15
 340 -256 340 -256 287 -333 c 1,16,17
 219 -437 219 -437 62 -437 c 0,18,19
 27 -437 27 -437 -9 -433.5 c 128,-1,20
 -45 -430 -45 -430 -92 -416 c 1,21,-1
 -52 -244 l 1,4,5
EndSplineSet
EndChar

StartChar: k
Encoding: 107 107 80
Width: 1024
Flags: W
LayerCount: 2
Fore
SplineSet
138 -13 m 1,0,-1
 138 1452 l 1,1,-1
 339 1452 l 1,2,-1
 339 643 l 1,3,4
 422 724 422 724 532.5 834.5 c 128,-1,5
 643 945 643 945 753 1054 c 1,6,-1
 1019 1054 l 1,7,-1
 597 654 l 1,8,9
 704 498 704 498 815 335 c 128,-1,10
 926 172 926 172 1053 -13 c 1,11,-1
 804 -13 l 1,12,-1
 456 516 l 1,13,-1
 339 407 l 1,14,-1
 339 -13 l 1,15,-1
 138 -13 l 1,0,-1
EndSplineSet
EndChar

StartChar: l
Encoding: 108 108 81
Width: 455
Flags: W
LayerCount: 2
Fore
SplineSet
134 -13 m 1,0,-1
 134 1452 l 1,1,-1
 335 1452 l 1,2,-1
 335 -13 l 1,3,-1
 134 -13 l 1,0,-1
EndSplineSet
EndChar

StartChar: m
Encoding: 109 109 82
Width: 1706
Flags: W
LayerCount: 2
Fore
SplineSet
137 -13 m 1,0,-1
 137 1054 l 1,1,-1
 318 1054 l 1,2,-1
 318 929 l 1,3,4
 350 977 350 977 436 1027 c 128,-1,5
 522 1077 522 1077 632 1077 c 0,6,7
 753 1077 753 1077 832 1026 c 128,-1,8
 911 975 911 975 936 905 c 1,9,10
 1053 1077 1053 1077 1262 1077 c 0,11,12
 1425 1077 1425 1077 1513 988.5 c 128,-1,13
 1601 900 1601 900 1601 715 c 2,14,-1
 1601 -13 l 1,15,-1
 1402 -13 l 1,16,-1
 1402 657 l 2,17,18
 1402 761 1402 761 1385 805 c 0,19,20
 1369 847 1369 847 1325 875 c 0,21,22
 1304 888 1304 888 1278 895 c 128,-1,23
 1252 902 1252 902 1222 902 c 0,24,25
 1112 902 1112 902 1042 831 c 1,26,27
 971 761 971 761 971 605 c 2,28,-1
 971 -13 l 1,29,-1
 770 -13 l 1,30,-1
 770 677 l 2,31,32
 770 792 770 792 728.5 847 c 128,-1,33
 687 902 687 902 592 902 c 0,34,35
 517 902 517 902 455 864 c 256,36,37
 393 826 393 826 366 755 c 0,38,39
 338 681 338 681 338 540 c 2,40,-1
 338 -13 l 1,41,-1
 137 -13 l 1,0,-1
EndSplineSet
EndChar

StartChar: n
Encoding: 110 110 83
Width: 1139
Flags: W
LayerCount: 2
Fore
SplineSet
137 -13 m 1,0,-1
 137 1054 l 1,1,-1
 320 1054 l 1,2,-1
 320 927 l 1,3,4
 421 1077 421 1077 649 1077 c 0,5,6
 747 1077 747 1077 830 1042 c 0,7,8
 913 1008 913 1008 955 951 c 0,9,10
 975 923 975 923 990 887 c 128,-1,11
 1005 851 1005 851 1014 816 c 1,12,13
 1019 790 1019 790 1021.5 746 c 128,-1,14
 1024 702 1024 702 1024 640 c 2,15,-1
 1024 -13 l 1,16,-1
 823 -13 l 1,17,-1
 823 633 l 2,18,19
 823 685 823 685 817.5 725.5 c 128,-1,20
 812 766 812 766 803 791 c 1,21,22
 793 814 793 814 774.5 835 c 128,-1,23
 756 856 756 856 732 871 c 256,24,25
 708 886 708 886 676.5 894 c 128,-1,26
 645 902 645 902 611 902 c 0,27,28
 501 902 501 902 417 832 c 1,29,30
 338 762 338 762 338 568 c 2,31,-1
 338 -13 l 1,32,-1
 137 -13 l 1,0,-1
EndSplineSet
EndChar

StartChar: o
Encoding: 111 111 84
Width: 1139
Flags: W
LayerCount: 2
Fore
SplineSet
70 520 m 0,0,1
 70 666 70 666 114 776 c 128,-1,2
 158 886 158 886 238 959 c 1,3,4
 309 1017 309 1017 395.5 1047 c 128,-1,5
 482 1077 482 1077 580 1077 c 0,6,7
 802 1077 802 1077 946 933 c 0,8,9
 1089 790 1089 790 1089 535 c 0,10,11
 1089 332 1089 332 1025 213 c 1,12,13
 962 91 962 91 842 29 c 1,14,15
 721 -37 721 -37 580 -37 c 0,16,17
 354 -37 354 -37 211 107 c 1,18,19
 70 251 70 251 70 520 c 0,0,1
580 131 m 0,20,21
 711 131 711 131 796 229 c 1,22,23
 883 325 883 325 883 526 c 0,24,25
 883 619 883 619 859.5 691.5 c 128,-1,26
 836 764 836 764 795 811 c 0,27,28
 752 859 752 859 698 884 c 128,-1,29
 644 909 644 909 580 909 c 0,30,31
 450 909 450 909 363 812 c 0,32,33
 276 716 276 716 276 520 c 0,34,35
 276 325 276 325 363 228 c 256,36,37
 450 131 450 131 580 131 c 0,20,21
EndSplineSet
EndChar

StartChar: p
Encoding: 112 112 85
Width: 1139
Flags: W
LayerCount: 2
Fore
SplineSet
137 -414 m 1,0,-1
 137 1054 l 1,1,-1
 322 1054 l 1,2,-1
 322 939 l 1,3,4
 360 992 360 992 437 1034.5 c 128,-1,5
 514 1077 514 1077 621 1077 c 0,6,7
 690 1077 690 1077 752 1058.5 c 128,-1,8
 814 1040 814 1040 866 1005 c 128,-1,9
 918 970 918 970 959.5 920 c 128,-1,10
 1001 870 1001 870 1029 807 c 0,11,12
 1056 744 1056 744 1069.5 673.5 c 128,-1,13
 1083 603 1083 603 1083 528 c 0,14,15
 1083 366 1083 366 1023 234 c 1,16,17
 960 103 960 103 848 33 c 1,18,19
 734 -37 734 -37 608 -37 c 0,20,21
 515 -37 515 -37 440 3.5 c 128,-1,22
 365 44 365 44 338 76 c 1,23,-1
 338 -414 l 1,24,-1
 137 -414 l 1,0,-1
596 131 m 0,25,26
 710 131 710 131 794 228 c 256,27,28
 878 325 878 325 878 529 c 0,29,30
 878 725 878 725 796 821 c 0,31,32
 715 917 715 917 604 917 c 0,33,34
 549 917 549 917 499.5 891 c 128,-1,35
 450 865 450 865 407 814 c 1,36,37
 366 763 366 763 343.5 687.5 c 128,-1,38
 321 612 321 612 321 515 c 0,39,40
 321 318 321 318 402 225 c 0,41,42
 484 131 484 131 596 131 c 0,25,26
EndSplineSet
EndChar

StartChar: q
Encoding: 113 113 86
Width: 1139
Flags: W
LayerCount: 2
Fore
SplineSet
817 -414 m 1,0,-1
 817 78 l 1,1,2
 791 42 791 42 714 3 c 0,3,4
 634 -37 634 -37 548 -37 c 0,5,6
 352 -37 352 -37 213 114 c 0,7,8
 74 266 74 266 74 530 c 0,9,10
 74 691 74 691 130 817 c 1,11,12
 190 947 190 947 296 1011 c 0,13,14
 404 1077 404 1077 534 1077 c 0,15,16
 635 1077 635 1077 716.5 1034 c 128,-1,17
 798 991 798 991 835 937 c 1,18,-1
 835 1054 l 1,19,-1
 1018 1054 l 1,20,-1
 1018 -414 l 1,21,-1
 817 -414 l 1,0,-1
280 523 m 0,22,23
 280 327 280 327 364 228 c 0,24,25
 446 131 446 131 563 131 c 0,26,27
 674 131 674 131 754 224 c 0,28,29
 835 317 835 317 835 508 c 0,30,31
 835 607 835 607 812.5 685 c 128,-1,32
 790 763 790 763 749 814 c 1,33,34
 707 864 707 864 657.5 890 c 128,-1,35
 608 916 608 916 551 916 c 0,36,37
 439 916 439 916 359 821 c 0,38,39
 280 726 280 726 280 523 c 0,22,23
EndSplineSet
EndChar

StartChar: r
Encoding: 114 114 87
Width: 682
Flags: W
LayerCount: 2
Fore
SplineSet
136 -13 m 1,0,-1
 136 1054 l 1,1,-1
 318 1054 l 1,2,-1
 318 894 l 1,3,-1
 303 897 l 1,4,5
 361 1002 361 1002 418 1040 c 0,6,7
 473 1077 473 1077 539 1077 c 0,8,9
 586 1077 586 1077 632 1063 c 128,-1,10
 678 1049 678 1049 737 1015 c 1,11,-1
 668 831 l 1,12,13
 624 853 624 853 592 862.5 c 128,-1,14
 560 872 560 872 530 872 c 0,15,16
 473 872 473 872 429 839.5 c 128,-1,17
 385 807 385 807 365 749 c 1,18,19
 336 657 336 657 336 545 c 2,20,-1
 336 -13 l 1,21,-1
 136 -13 l 1,0,-1
EndSplineSet
EndChar

StartChar: s
Encoding: 115 115 88
Width: 1024
Flags: W
LayerCount: 2
Fore
SplineSet
264 350 m 1,0,1
 280 236 280 236 346 183.5 c 128,-1,2
 412 131 412 131 532 131 c 0,3,4
 653 131 653 131 711 178 c 1,5,6
 767 225 767 225 767 286 c 0,7,8
 767 341 767 341 719 371 c 0,9,10
 701 383 701 383 656.5 397 c 128,-1,11
 612 411 612 411 537 430 c 0,12,13
 337 480 337 480 259 515 c 0,14,15
 221 533 221 533 190.5 559.5 c 128,-1,16
 160 586 160 586 139 618 c 1,17,18
 97 686 97 686 97 765 c 0,19,20
 97 838 97 838 131 900 c 128,-1,21
 165 962 165 962 224 1003 c 0,22,23
 246 1018 246 1018 276 1031.5 c 128,-1,24
 306 1045 306 1045 341.5 1055.5 c 128,-1,25
 377 1066 377 1066 417 1071.5 c 128,-1,26
 457 1077 457 1077 500 1077 c 0,27,28
 628 1077 628 1077 724.5 1041.5 c 128,-1,29
 821 1006 821 1006 869 942 c 0,30,31
 890 913 890 913 906.5 867.5 c 128,-1,32
 923 822 923 822 935 763 c 1,33,34
 878 755 878 755 836 750.5 c 128,-1,35
 794 746 794 746 738 738 c 1,36,37
 724 826 724 826 669.5 868 c 128,-1,38
 615 910 615 910 513 910 c 0,39,40
 392 910 392 910 341 872 c 0,41,42
 292 835 292 835 292 786 c 0,43,44
 292 757 292 757 312 731 c 1,45,46
 333 706 333 706 377 687 c 0,47,48
 390 682 390 682 430 671.5 c 128,-1,49
 470 661 470 661 536 642 c 1,50,51
 632 617 632 617 699 596.5 c 128,-1,52
 766 576 766 576 804 559 c 0,53,54
 844 542 844 542 874.5 518.5 c 128,-1,55
 905 495 905 495 928 464 c 0,56,57
 973 402 973 402 973 305 c 0,58,59
 973 213 973 213 917 132 c 1,60,61
 862 49 862 49 762 7 c 1,62,63
 711 -16 711 -16 653.5 -26.5 c 128,-1,64
 596 -37 596 -37 533 -37 c 0,65,66
 322 -37 322 -37 210 49.5 c 128,-1,67
 98 136 98 136 65 319 c 1,68,-1
 264 350 l 1,0,1
EndSplineSet
EndChar

StartChar: t
Encoding: 116 116 89
Width: 569
Flags: W
LayerCount: 2
Fore
SplineSet
581 -9 m 1,0,1
 530 -20 530 -20 496 -23.5 c 128,-1,2
 462 -27 462 -27 432 -27 c 0,3,4
 332 -27 332 -27 275 4.5 c 128,-1,5
 218 36 218 36 194 90 c 0,6,7
 171 141 171 141 171 304 c 2,8,-1
 171 894 l 1,9,-1
 39 894 l 1,10,-1
 39 1054 l 1,11,-1
 171 1054 l 1,12,-1
 171 1308 l 1,13,14
 220 1337 220 1337 264.5 1362 c 128,-1,15
 309 1387 309 1387 371 1425 c 1,16,-1
 371 1054 l 1,17,-1
 552 1054 l 1,18,-1
 552 894 l 1,19,-1
 371 894 l 1,20,-1
 371 294 l 2,21,22
 371 221 371 221 379 201 c 1,23,24
 388 182 388 182 406 172 c 0,25,26
 425 161 425 161 463 161 c 0,27,28
 477 161 477 161 495 162.5 c 128,-1,29
 513 164 513 164 550 170 c 1,30,-1
 581 -9 l 1,0,1
EndSplineSet
EndChar

StartChar: u
Encoding: 117 117 90
Width: 1139
Flags: W
LayerCount: 2
Fore
SplineSet
836 -13 m 1,0,-1
 836 119 l 1,1,2
 727 -37 727 -37 508 -37 c 0,3,4
 462 -37 462 -37 415.5 -27 c 128,-1,5
 369 -17 369 -17 327 0 c 1,6,7
 288 17 288 17 255.5 41 c 128,-1,8
 223 65 223 65 202 91 c 1,9,10
 184 118 184 118 169 154 c 128,-1,11
 154 190 154 190 144 227 c 1,12,13
 133 283 133 283 133 396 c 2,14,-1
 133 1054 l 1,15,-1
 334 1054 l 1,16,-1
 334 464 l 2,17,18
 334 393 334 393 337 348 c 128,-1,19
 340 303 340 303 345 279 c 0,20,21
 361 214 361 214 413 175.5 c 128,-1,22
 465 137 465 137 544 137 c 0,23,24
 584 137 584 137 620.5 147.5 c 128,-1,25
 657 158 657 158 691 177 c 0,26,27
 725 197 725 197 750 223.5 c 128,-1,28
 775 250 775 250 788 282 c 0,29,30
 801 316 801 316 809 367 c 128,-1,31
 817 418 817 418 817 483 c 2,32,-1
 817 1054 l 1,33,-1
 1018 1054 l 1,34,-1
 1018 -13 l 1,35,-1
 836 -13 l 1,0,-1
EndSplineSet
EndChar

StartChar: v
Encoding: 118 118 91
Width: 1024
Flags: W
LayerCount: 2
Fore
SplineSet
444 -13 m 1,0,-1
 29 1054 l 1,1,-1
 241 1054 l 1,2,-1
 473 421 l 2,3,4
 492 369 492 369 510 311.5 c 128,-1,5
 528 254 528 254 532 241 c 0,6,7
 532 240 532 240 550 295 c 128,-1,8
 568 350 568 350 590 410 c 0,9,10
 618 485 618 485 648 565.5 c 128,-1,11
 678 646 678 646 708.5 727.5 c 128,-1,12
 739 809 739 809 769 889.5 c 128,-1,13
 799 970 799 970 830 1054 c 1,14,-1
 1037 1054 l 1,15,16
 930 776 930 776 828.5 515.5 c 128,-1,17
 727 255 727 255 624 -13 c 1,18,-1
 444 -13 l 1,0,-1
EndSplineSet
EndChar

StartChar: w
Encoding: 119 119 92
Width: 1479
Flags: W
LayerCount: 2
Fore
SplineSet
342 -13 m 1,0,1
 257 258 257 258 176 516.5 c 128,-1,2
 95 775 95 775 9 1054 c 1,3,-1
 215 1054 l 1,4,5
 260 897 260 897 303 743.5 c 128,-1,6
 346 590 346 590 388 443 c 2,7,-1
 448 229 l 1,8,-1
 434 226 l 1,9,10
 433 222 433 222 437.5 238.5 c 128,-1,11
 442 255 442 255 448 280 c 2,12,-1
 513 535 l 1,13,-1
 513 525 l 1,14,15
 529 584 529 584 572 738 c 128,-1,16
 615 892 615 892 660 1054 c 1,17,-1
 860 1054 l 1,18,-1
 996 537 l 1,19,-1
 996 535 l 1,20,-1
 1066 273 l 1,21,-1
 1117 442 l 2,22,23
 1161 589 1161 589 1207.5 743 c 128,-1,24
 1254 897 1254 897 1302 1054 c 1,25,-1
 1498 1054 l 1,26,27
 1411 777 1411 777 1327 516.5 c 128,-1,28
 1243 256 1243 256 1158 -13 c 1,29,-1
 957 -13 l 1,30,31
 912 155 912 155 869.5 310 c 128,-1,32
 827 465 827 465 811 526 c 1,33,-1
 811 510 l 1,34,-1
 745 792 l 1,35,-1
 759 789 l 1,36,37
 709 601 709 601 654.5 399 c 128,-1,38
 600 197 600 197 545 -13 c 1,39,-1
 342 -13 l 1,0,1
EndSplineSet
EndChar

StartChar: x
Encoding: 120 120 93
Width: 1024
Flags: W
LayerCount: 2
Fore
SplineSet
18 -13 m 1,0,-1
 416 541 l 1,1,-1
 47 1054 l 1,2,-1
 299 1054 l 1,3,-1
 466 804 l 2,4,5
 489 770 489 770 509 738 c 128,-1,6
 529 706 529 706 533 700 c 1,7,8
 544 715 544 715 565 746 c 128,-1,9
 586 777 586 777 605 803 c 0,10,11
 649 864 649 864 694.5 926 c 128,-1,12
 740 988 740 988 788 1054 c 1,13,-1
 1031 1054 l 1,14,-1
 654 551 l 1,15,16
 748 421 748 421 846 283.5 c 128,-1,17
 944 146 944 146 1059 -13 c 1,18,-1
 810 -13 l 1,19,-1
 589 316 l 1,20,-1
 539 392 l 1,21,22
 481 307 481 307 409 201 c 128,-1,23
 337 95 337 95 264 -13 c 1,24,-1
 18 -13 l 1,0,-1
EndSplineSet
EndChar

StartChar: y
Encoding: 121 121 94
Width: 1024
Flags: W
LayerCount: 2
Fore
SplineSet
113 -224 m 1,0,1
 187 -243 187 -243 229 -243 c 0,2,3
 288 -243 288 -243 321 -225 c 128,-1,4
 354 -207 354 -207 376 -173 c 0,5,6
 383 -161 383 -161 397.5 -128.5 c 128,-1,7
 412 -96 412 -96 431 -43 c 0,8,9
 433 -38 433 -38 435.5 -31 c 128,-1,10
 438 -24 438 -24 441 -17 c 0,11,12
 443 -14 443 -14 444 -9.5 c 128,-1,13
 445 -5 445 -5 445 -4 c 0,14,15
 345 253 345 253 245 513.5 c 128,-1,16
 145 774 145 774 36 1054 c 1,17,-1
 252 1054 l 1,18,-1
 477 441 l 2,19,20
 498 384 498 384 517 323.5 c 128,-1,21
 536 263 536 263 551 209 c 1,22,-1
 538 206 l 1,23,24
 551 261 551 261 569.5 319.5 c 128,-1,25
 588 378 588 378 610 438 c 0,26,27
 666 587 666 587 724.5 742 c 128,-1,28
 783 897 783 897 841 1054 c 1,29,-1
 1043 1054 l 1,30,-1
 631 -24 l 1,31,32
 599 -111 599 -111 573.5 -170 c 128,-1,33
 548 -229 548 -229 529 -262 c 0,34,35
 480 -352 480 -352 416 -394.5 c 128,-1,36
 352 -437 352 -437 262 -437 c 0,37,38
 235 -437 235 -437 206.5 -432.5 c 128,-1,39
 178 -428 178 -428 137 -414 c 1,40,-1
 113 -224 l 1,0,1
EndSplineSet
EndChar

StartChar: z
Encoding: 122 122 95
Width: 1024
Flags: W
LayerCount: 2
Fore
SplineSet
41 -13 m 1,0,-1
 41 111 l 1,1,-1
 44 150 l 1,2,-1
 705 892 l 1,3,4
 677 891 677 891 624 889.5 c 128,-1,5
 571 888 571 888 526 888 c 2,6,-1
 81 888 l 1,7,-1
 81 1054 l 1,8,-1
 973 1054 l 1,9,-1
 973 957 l 1,10,-1
 970 918 l 1,11,12
 828 754 828 754 682 586.5 c 128,-1,13
 536 419 536 419 393 255 c 1,14,-1
 301 156 l 1,15,16
 329 158 329 158 388.5 160 c 128,-1,17
 448 162 448 162 502 162 c 2,18,-1
 1005 162 l 1,19,-1
 1005 -13 l 1,20,-1
 41 -13 l 1,0,-1
EndSplineSet
EndChar

StartChar: braceleft
Encoding: 123 123 96
Width: 673
Flags: W
LayerCount: 2
Fore
SplineSet
142 792 m 1,0,1
 225 796 225 796 269 832.5 c 128,-1,2
 313 869 313 869 329 930 c 0,3,4
 337 963 337 963 341.5 1020.5 c 128,-1,5
 346 1078 346 1078 346 1156 c 0,6,7
 347 1235 347 1235 348.5 1289.5 c 128,-1,8
 350 1344 350 1344 352 1370 c 1,9,10
 359 1430 359 1430 375 1473.5 c 128,-1,11
 391 1517 391 1517 415.5 1549.5 c 128,-1,12
 440 1582 440 1582 471.5 1602 c 128,-1,13
 503 1622 503 1622 544 1636 c 1,14,15
 564 1640 564 1640 596 1642.5 c 128,-1,16
 628 1645 628 1645 668 1646 c 1,17,-1
 734 1646 l 1,18,-1
 734 1472 l 1,19,-1
 695 1472 l 2,20,21
 597 1472 597 1472 565 1438 c 0,22,23
 533 1403 533 1403 533 1283 c 0,24,25
 533 1156 533 1156 530.5 1076 c 128,-1,26
 528 996 528 996 523 960 c 1,27,28
 514 910 514 910 498 866.5 c 128,-1,29
 482 823 482 823 460 795 c 256,30,31
 438 767 438 767 402 740 c 128,-1,32
 366 713 366 713 344 703 c 1,33,34
 430 668 430 668 482 571 c 0,35,36
 533 477 533 477 533 267 c 0,37,38
 533 174 533 174 534 118 c 128,-1,39
 535 62 535 62 537 41 c 0,40,41
 544 -20 544 -20 572 -43 c 1,42,43
 602 -66 602 -66 695 -66 c 2,44,-1
 734 -66 l 1,45,-1
 734 -241 l 1,46,-1
 668 -241 l 2,47,48
 568 -241 568 -241 524 -225 c 0,49,50
 458 -201 458 -201 416 -148.5 c 128,-1,51
 374 -96 374 -96 359 -18 c 1,52,53
 353 22 353 22 350 85 c 128,-1,54
 347 148 347 148 346 235 c 1,55,56
 346 407 346 407 329 474 c 0,57,58
 313 537 313 537 269 574 c 0,59,60
 248 591 248 591 219.5 601 c 128,-1,61
 191 611 191 611 142 612 c 1,62,-1
 142 792 l 1,0,1
EndSplineSet
EndChar

StartChar: bar
Encoding: 124 124 97
Width: 522
Flags: W
LayerCount: 2
Fore
SplineSet
188 -432 m 1,0,-1
 188 1457 l 1,1,-1
 364 1457 l 1,2,-1
 364 -432 l 1,3,-1
 188 -432 l 1,0,-1
EndSplineSet
EndChar

StartChar: braceright
Encoding: 125 125 98
Width: 747
Flags: W
LayerCount: 2
Fore
SplineSet
754 613 m 1,0,1
 672 609 672 609 627 572 c 128,-1,2
 582 535 582 535 566 474 c 0,3,4
 558 442 558 442 554 381.5 c 128,-1,5
 550 321 550 321 549 235 c 1,6,7
 549 147 549 147 546 84.5 c 128,-1,8
 543 22 543 22 536 -18 c 0,9,10
 523 -96 523 -96 481 -149 c 256,11,12
 439 -202 439 -202 371 -225 c 1,13,14
 327 -241 327 -241 228 -241 c 2,15,-1
 162 -241 l 1,16,-1
 162 -66 l 1,17,-1
 201 -66 l 2,18,19
 291 -66 291 -66 322 -43 c 1,20,21
 351 -19 351 -19 359 41 c 0,22,23
 361 62 361 62 362 118 c 128,-1,24
 363 174 363 174 363 267 c 0,25,26
 363 477 363 477 414 571 c 0,27,28
 465 667 465 667 552 704 c 1,29,30
 529 714 529 714 494 740 c 128,-1,31
 459 766 459 766 436 795 c 0,32,33
 415 823 415 823 398.5 865.5 c 128,-1,34
 382 908 382 908 373 960 c 1,35,36
 368 996 368 996 365.5 1076 c 128,-1,37
 363 1156 363 1156 363 1283 c 0,38,39
 363 1401 363 1401 330 1438 c 1,40,41
 298 1472 298 1472 201 1472 c 2,42,-1
 162 1472 l 1,43,-1
 162 1646 l 1,44,-1
 228 1646 l 1,45,46
 270 1645 270 1645 300.5 1643 c 128,-1,47
 331 1641 331 1641 352 1635 c 0,48,49
 391 1623 391 1623 424 1603 c 128,-1,50
 457 1583 457 1583 481.5 1551.5 c 128,-1,51
 506 1520 506 1520 521.5 1476 c 128,-1,52
 537 1432 537 1432 544 1370 c 0,53,54
 546 1345 546 1345 547.5 1291.5 c 128,-1,55
 549 1238 549 1238 549 1156 c 1,56,57
 550 1078 550 1078 554 1020.5 c 128,-1,58
 558 963 558 963 566 930 c 0,59,60
 582 869 582 869 626.5 832.5 c 128,-1,61
 671 796 671 796 754 792 c 1,62,-1
 754 613 l 1,0,1
EndSplineSet
EndChar

StartChar: asciitilde
Encoding: 126 126 99
Width: 1178
Flags: W
LayerCount: 2
Fore
SplineSet
87 705 m 1,0,-1
 90 744 l 1,1,2
 197 863 197 863 372 865 c 0,3,4
 432 865 432 865 498 847 c 0,5,6
 531 837 531 837 579.5 820 c 128,-1,7
 628 803 628 803 687 779 c 0,8,9
 719 766 719 766 745.5 757 c 128,-1,10
 772 748 772 748 788 744 c 256,11,12
 804 740 804 740 820.5 738 c 128,-1,13
 837 736 837 736 854 736 c 0,14,15
 915 736 915 736 979.5 770 c 128,-1,16
 1044 804 1044 804 1120 884 c 1,17,-1
 1120 647 l 1,18,19
 1052 585 1052 585 985 557 c 128,-1,20
 918 529 918 529 836 529 c 0,21,22
 779 529 779 529 720 543 c 1,23,24
 691 551 691 551 647 567 c 128,-1,25
 603 583 603 583 546 608 c 1,26,27
 489 635 489 635 441 647 c 128,-1,28
 393 659 393 659 355 659 c 0,29,30
 293 659 293 659 241 632 c 0,31,32
 187 605 187 605 87 514 c 1,33,-1
 87 705 l 1,0,-1
EndSplineSet
EndChar

StartChar: copyright
Encoding: 169 169 101
Width: 1711
Flags: W
LayerCount: 2
Fore
SplineSet
1719 722 m 0,0,1
 1719 528 1719 528 1617 348 c 0,2,3
 1566 257 1566 257 1496 187.5 c 128,-1,4
 1426 118 1426 118 1334 68 c 0,5,6
 1151 -31 1151 -31 952 -31 c 256,7,8
 753 -31 753 -31 570 68 c 1,9,10
 388 168 388 168 287 348 c 0,11,12
 185 528 185 528 185 722 c 0,13,14
 185 917 185 917 288 1099 c 0,15,16
 392 1282 392 1282 575 1378 c 0,17,18
 667 1426 667 1426 761 1451 c 128,-1,19
 855 1476 855 1476 952 1476 c 0,20,21
 1050 1476 1050 1476 1143.5 1451 c 128,-1,22
 1237 1426 1237 1426 1330 1378 c 0,23,24
 1514 1282 1514 1282 1616 1099 c 1,25,26
 1719 917 1719 917 1719 722 c 0,0,1
952 1340 m 0,27,28
 876 1340 876 1340 798 1318.5 c 128,-1,29
 720 1297 720 1297 646 1259 c 1,30,31
 573 1218 573 1218 514 1160 c 128,-1,32
 455 1102 455 1102 413 1030 c 1,33,34
 330 881 330 881 330 718 c 0,35,36
 330 558 330 558 411 410 c 1,37,38
 495 264 495 264 643 180 c 0,39,40
 791 97 791 97 952 97 c 256,41,42
 1113 97 1113 97 1262 180 c 0,43,44
 1411 264 1411 264 1493 410 c 1,45,46
 1574 558 1574 558 1574 718 c 0,47,48
 1574 798 1574 798 1552.5 876.5 c 128,-1,49
 1531 955 1531 955 1491 1030 c 1,50,51
 1450 1100 1450 1100 1390.5 1159 c 128,-1,52
 1331 1218 1331 1218 1258 1259 c 1,53,54
 1186 1296 1186 1296 1106.5 1318 c 128,-1,55
 1027 1340 1027 1340 952 1340 c 0,27,28
1332 575 m 1,56,57
 1313 504 1313 504 1278.5 452 c 128,-1,58
 1244 400 1244 400 1196 361 c 1,59,60
 1146 324 1146 324 1085 305 c 128,-1,61
 1024 286 1024 286 953 286 c 0,62,63
 774 286 774 286 659 402 c 1,64,65
 603 460 603 460 574.5 538.5 c 128,-1,66
 546 617 546 617 546 720 c 1,67,68
 544 820 544 820 574.5 900.5 c 128,-1,69
 605 981 605 981 661 1037 c 128,-1,70
 717 1093 717 1093 793.5 1122 c 128,-1,71
 870 1151 870 1151 961 1150 c 1,72,73
 1096 1150 1096 1150 1187 1086 c 128,-1,74
 1278 1022 1278 1022 1317 900 c 1,75,76
 1274 889 1274 889 1245.5 882 c 128,-1,77
 1217 875 1217 875 1178 866 c 1,78,79
 1145 946 1145 946 1089.5 982 c 128,-1,80
 1034 1018 1034 1018 957 1018 c 0,81,82
 845 1018 845 1018 775 941 c 0,83,84
 738 901 738 901 720 846 c 128,-1,85
 702 791 702 791 702 717 c 0,86,87
 702 572 702 572 771 497 c 0,88,89
 838 424 838 424 946 424 c 0,90,91
 1036 424 1036 424 1099 472 c 0,92,93
 1131 497 1131 497 1152.5 528.5 c 128,-1,94
 1174 560 1174 560 1188 615 c 1,95,-1
 1332 575 l 1,56,57
EndSplineSet
EndChar

StartChar: uni00AD
Encoding: 173 173 102
Width: 682
Flags: W
LayerCount: 2
Fore
SplineSet
68 420 m 1,0,-1
 68 620 l 1,1,-1
 643 620 l 1,2,-1
 643 420 l 1,3,-1
 68 420 l 1,0,-1
EndSplineSet
EndChar

StartChar: registered
Encoding: 174 174 103
Width: 1509
Flags: W
LayerCount: 2
Fore
SplineSet
1539 722 m 0,0,1
 1539 528 1539 528 1437 348 c 0,2,3
 1386 257 1386 257 1316 187.5 c 128,-1,4
 1246 118 1246 118 1154 68 c 0,5,6
 971 -31 971 -31 772 -31 c 256,7,8
 573 -31 573 -31 390 68 c 1,9,10
 208 168 208 168 107 348 c 0,11,12
 5 528 5 528 5 722 c 0,13,14
 5 917 5 917 108 1099 c 0,15,16
 212 1282 212 1282 395 1378 c 0,17,18
 487 1426 487 1426 581 1451 c 128,-1,19
 675 1476 675 1476 772 1476 c 0,20,21
 870 1476 870 1476 963.5 1451 c 128,-1,22
 1057 1426 1057 1426 1150 1378 c 0,23,24
 1334 1282 1334 1282 1436 1099 c 1,25,26
 1539 917 1539 917 1539 722 c 0,0,1
772 1331 m 0,27,28
 696 1331 696 1331 618 1310.5 c 128,-1,29
 540 1290 540 1290 466 1252 c 1,30,31
 393 1211 393 1211 334 1155 c 128,-1,32
 275 1099 275 1099 233 1026 c 0,33,34
 150 882 150 882 150 722 c 0,35,36
 150 565 150 565 231 420 c 1,37,38
 314 278 314 278 463 194 c 1,39,40
 611 114 611 114 772 114 c 256,41,42
 933 114 933 114 1082 194 c 1,43,44
 1232 278 1232 278 1313 420 c 1,45,46
 1394 565 1394 565 1394 722 c 0,47,48
 1394 800 1394 800 1372.5 877.5 c 128,-1,49
 1351 955 1351 955 1311 1027 c 1,50,51
 1270 1097 1270 1097 1210.5 1154.5 c 128,-1,52
 1151 1212 1151 1212 1078 1251 c 0,53,54
 1006 1289 1006 1289 926.5 1310 c 128,-1,55
 847 1331 847 1331 772 1331 c 0,27,28
430 301 m 1,56,-1
 430 1121 l 1,57,-1
 720 1121 l 2,58,59
 863 1121 863 1121 931 1098 c 256,60,61
 999 1075 999 1075 1039 1017 c 0,62,63
 1058 990 1058 990 1068.5 958.5 c 128,-1,64
 1079 927 1079 927 1079 894 c 0,65,66
 1079 803 1079 803 1011 734 c 1,67,68
 946 665 946 665 845 659 c 1,69,-1
 849 675 l 1,70,71
 887 659 887 659 912 634 c 1,72,73
 936 613 936 613 967 570.5 c 128,-1,74
 998 528 998 528 1033 475 c 0,75,76
 1059 436 1059 436 1082.5 397.5 c 128,-1,77
 1106 359 1106 359 1144 301 c 1,78,-1
 958 301 l 1,79,-1
 884 433 l 1,80,81
 800 579 800 579 748 614 c 1,82,83
 732 627 732 627 707 634 c 128,-1,84
 682 641 682 641 649 641 c 2,85,-1
 582 641 l 1,86,-1
 582 301 l 1,87,-1
 430 301 l 1,56,-1
582 773 m 1,88,-1
 731 773 l 2,89,90
 843 773 843 773 881 803 c 0,91,92
 899 818 899 818 909 838.5 c 128,-1,93
 919 859 919 859 919 883 c 0,94,95
 919 916 919 916 901 940.5 c 128,-1,96
 883 965 883 965 849 979 c 0,97,98
 816 992 816 992 721 992 c 2,99,-1
 582 992 l 1,100,-1
 582 773 l 1,88,-1
EndSplineSet
EndChar

StartChar: degree
Encoding: 176 176 104
Width: 819
Flags: W
LayerCount: 2
Fore
SplineSet
131 1193 m 0,0,1
 131 1310 131 1310 215 1393 c 0,2,3
 300 1476 300 1476 419 1476 c 0,4,5
 539 1476 539 1476 624 1393 c 0,6,7
 708 1310 708 1310 708 1193 c 0,8,9
 708 1073 708 1073 622 991 c 1,10,11
 538 908 538 908 419 908 c 0,12,13
 301 908 301 908 215 991 c 0,14,15
 131 1073 131 1073 131 1193 c 0,0,1
420 1037 m 0,16,17
 485 1037 485 1037 531 1082 c 0,18,19
 578 1128 578 1128 578 1193 c 0,20,21
 578 1255 578 1255 531 1301 c 256,22,23
 484 1347 484 1347 420 1347 c 0,24,25
 353 1347 353 1347 306 1301 c 0,26,27
 260 1256 260 1256 260 1193 c 0,28,29
 260 1127 260 1127 306 1082 c 256,30,31
 352 1037 352 1037 420 1037 c 0,16,17
EndSplineSet
EndChar

StartChar: plusminus
Encoding: 177 177 105
Width: 1124
Flags: W
LayerCount: 2
Fore
SplineSet
481 243 m 1,0,-1
 481 640 l 1,1,-1
 80 640 l 1,2,-1
 80 826 l 1,3,-1
 481 826 l 1,4,-1
 481 1219 l 1,5,-1
 671 1219 l 1,6,-1
 671 826 l 1,7,-1
 1072 826 l 1,8,-1
 1072 640 l 1,9,-1
 671 640 l 1,10,-1
 671 243 l 1,11,-1
 481 243 l 1,0,-1
1072 -13 m 1,12,-1
 80 -13 l 1,13,-1
 80 175 l 1,14,-1
 1072 175 l 1,15,-1
 1072 -13 l 1,12,-1
EndSplineSet
EndChar

StartChar: uni00B2
Encoding: 178 178 106
Width: 682
Flags: W
LayerCount: 2
Fore
SplineSet
27 708 m 1,0,1
 32 753 32 753 44.5 781.5 c 128,-1,2
 57 810 57 810 78 838 c 0,3,4
 142 923 142 923 288 1027 c 0,5,6
 429 1127 429 1127 458 1159 c 0,7,8
 492 1196 492 1196 492 1234 c 0,9,10
 492 1276 492 1276 461 1303.5 c 128,-1,11
 430 1331 430 1331 364 1331 c 0,12,13
 301 1331 301 1331 270 1309 c 0,14,15
 241 1288 241 1288 217 1218 c 1,16,17
 170 1223 170 1223 135 1227 c 128,-1,18
 100 1231 100 1231 48 1237 c 1,19,20
 83 1362 83 1362 157 1415.5 c 128,-1,21
 231 1469 231 1469 367 1469 c 0,22,23
 520 1469 520 1469 596 1408 c 1,24,25
 670 1347 670 1347 670 1258 c 0,26,27
 670 1215 670 1215 654 1173.5 c 128,-1,28
 638 1132 638 1132 609 1095 c 1,29,30
 585 1068 585 1068 533.5 1025.5 c 128,-1,31
 482 983 482 983 401 925 c 0,32,33
 361 896 361 896 330.5 872 c 128,-1,34
 300 848 300 848 301 849 c 1,35,-1
 674 849 l 1,36,-1
 674 708 l 1,37,-1
 27 708 l 1,0,1
EndSplineSet
EndChar

StartChar: uni00B3
Encoding: 179 179 107
Width: 682
Flags: W
LayerCount: 2
Fore
SplineSet
200 939 m 1,0,1
 214 904 214 904 226.5 884 c 128,-1,2
 239 864 239 864 252 855 c 0,3,4
 292 827 292 827 350 827 c 0,5,6
 415 827 415 827 457 864 c 1,7,8
 497 897 497 897 497 948 c 0,9,10
 497 992 497 992 464 1018.5 c 128,-1,11
 431 1045 431 1045 348 1045 c 0,12,13
 344 1045 344 1045 337.5 1045 c 128,-1,14
 331 1045 331 1045 325 1044 c 0,15,16
 323 1044 323 1044 320 1043.5 c 128,-1,17
 317 1043 317 1043 315 1043 c 0,18,19
 309 1042 309 1042 304 1042 c 128,-1,20
 299 1042 299 1042 279 1042 c 1,21,22
 287 1084 287 1084 293 1109.5 c 128,-1,23
 299 1135 299 1135 306 1171 c 1,24,25
 394 1171 394 1171 427.5 1197.5 c 128,-1,26
 461 1224 461 1224 461 1261 c 0,27,28
 461 1293 461 1293 434.5 1315.5 c 128,-1,29
 408 1338 408 1338 352 1338 c 0,30,31
 324 1338 324 1338 304 1333 c 128,-1,32
 284 1328 284 1328 268.5 1317.5 c 128,-1,33
 253 1307 253 1307 241 1289.5 c 128,-1,34
 229 1272 229 1272 214 1237 c 1,35,36
 170 1243 170 1243 136 1248.5 c 128,-1,37
 102 1254 102 1254 52 1262 c 1,38,39
 99 1380 99 1380 163 1425 c 1,40,41
 229 1469 229 1469 353 1469 c 0,42,43
 501 1469 501 1469 568 1413 c 1,44,45
 639 1357 639 1357 639 1274 c 0,46,47
 639 1216 639 1216 600 1170.5 c 128,-1,48
 561 1125 561 1125 501 1108 c 1,49,-1
 501 1124 l 1,50,51
 585 1105 585 1105 629.5 1053 c 128,-1,52
 674 1001 674 1001 674 929 c 0,53,54
 674 831 674 831 590 761 c 0,55,56
 507 691 507 691 359 691 c 0,57,58
 215 691 215 691 138 746.5 c 128,-1,59
 61 802 61 802 35 921 c 1,60,-1
 200 939 l 1,0,1
EndSplineSet
EndChar

StartChar: acute
Encoding: 180 180 108
Width: 682
Flags: W
LayerCount: 2
Fore
SplineSet
226 1162 m 1,0,1
 267 1249 267 1249 301 1316.5 c 128,-1,2
 335 1384 335 1384 371 1460 c 1,3,-1
 635 1460 l 1,4,5
 565 1370 565 1370 510.5 1302.5 c 128,-1,6
 456 1235 456 1235 398 1162 c 1,7,-1
 226 1162 l 1,0,1
EndSplineSet
EndChar

StartChar: uni00B5
Encoding: 181 181 109
Width: 1180
Flags: W
LayerCount: 2
Fore
SplineSet
1044 1054 m 1,0,-1
 1044 -13 l 1,1,-1
 862 -13 l 1,2,-1
 862 90 l 1,3,4
 825 35 825 35 814 29 c 1,5,-1
 817 29 l 1,6,7
 700 -38 700 -38 605 -38 c 0,8,9
 564 -38 564 -38 525.5 -29 c 128,-1,10
 487 -20 487 -20 453 -4 c 1,11,12
 426 10 426 10 398 37 c 128,-1,13
 370 64 370 64 361 74 c 1,14,-1
 361 -414 l 1,15,-1
 163 -414 l 1,16,-1
 163 1054 l 1,17,-1
 361 1054 l 1,18,-1
 361 600 l 2,19,20
 361 362 361 362 386 290 c 1,21,22
 410 225 410 225 468 184 c 0,23,24
 522 145 522 145 597 145 c 0,25,26
 674 145 674 145 736 186 c 0,27,28
 796 226 796 226 821 292 c 0,29,30
 846 360 846 360 846 597 c 2,31,-1
 846 1054 l 1,32,-1
 1044 1054 l 1,0,-1
EndSplineSet
EndChar

StartChar: paragraph
Encoding: 182 182 110
Width: 1155
Flags: W
LayerCount: 2
Fore
SplineSet
525 -414 m 1,0,-1
 525 505 l 1,1,2
 452 508 452 508 383 537 c 128,-1,3
 314 566 314 566 263 614 c 1,4,5
 215 664 215 664 189 730.5 c 128,-1,6
 163 797 163 797 163 872 c 0,7,8
 163 1049 163 1049 273 1152 c 1,9,10
 387 1255 387 1255 598 1255 c 2,11,-1
 1175 1255 l 1,12,-1
 1175 1081 l 1,13,-1
 1046 1081 l 1,14,-1
 1046 -414 l 1,15,-1
 873 -414 l 1,16,-1
 873 1081 l 1,17,-1
 694 1081 l 1,18,-1
 694 -414 l 1,19,-1
 525 -414 l 1,0,-1
EndSplineSet
EndChar

StartChar: periodcentered
Encoding: 183 183 111
Width: 682
Flags: W
LayerCount: 2
Fore
SplineSet
241 613 m 1,0,-1
 241 837 l 1,1,-1
 467 837 l 1,2,-1
 467 613 l 1,3,-1
 241 613 l 1,0,-1
EndSplineSet
EndChar

StartChar: cedilla
Encoding: 184 184 112
Width: 682
Flags: W
LayerCount: 2
Fore
SplineSet
275 32 m 1,0,-1
 430 32 l 1,1,-1
 397 -75 l 1,2,3
 426 -78 426 -78 460 -93 c 128,-1,4
 494 -108 494 -108 517 -128.5 c 128,-1,5
 540 -149 540 -149 552.5 -175.5 c 128,-1,6
 565 -202 565 -202 565 -229 c 0,7,8
 565 -308 565 -308 489 -367 c 1,9,10
 414 -428 414 -428 265 -428 c 0,11,12
 224 -428 224 -428 188.5 -425.5 c 128,-1,13
 153 -423 153 -423 110 -415 c 1,14,15
 113 -373 113 -373 116.5 -346 c 128,-1,16
 120 -319 120 -319 123 -277 c 1,17,18
 167 -280 167 -280 189 -281 c 128,-1,19
 211 -282 211 -282 226 -282 c 0,20,21
 319 -282 319 -282 353 -259 c 0,22,23
 378 -242 378 -242 378 -221 c 1,24,25
 376 -211 376 -211 372 -201.5 c 128,-1,26
 368 -192 368 -192 355.5 -184.5 c 128,-1,27
 343 -177 343 -177 314.5 -171.5 c 128,-1,28
 286 -166 286 -166 216 -165 c 1,29,-1
 275 32 l 1,0,-1
EndSplineSet
EndChar

StartChar: uni00B9
Encoding: 185 185 113
Width: 594
Flags: W
LayerCount: 2
Fore
SplineSet
335 708 m 1,0,-1
 335 1244 l 1,1,2
 248 1177 248 1177 110 1139 c 1,3,-1
 110 1282 l 1,4,5
 149 1295 149 1295 182.5 1312 c 128,-1,6
 216 1329 216 1329 253 1355 c 1,7,8
 288 1378 288 1378 319 1406 c 128,-1,9
 350 1434 350 1434 376 1469 c 1,10,-1
 500 1469 l 1,11,-1
 500 708 l 1,12,-1
 335 708 l 1,0,-1
EndSplineSet
EndChar

StartChar: ordmasculine
Encoding: 186 186 114
Width: 748
Flags: W
LayerCount: 2
Fore
SplineSet
726 1095 m 256,0,1
 726 918 726 918 631 816 c 0,2,3
 536 715 536 715 388 715 c 0,4,5
 237 715 237 715 143 814 c 0,6,7
 47 914 47 914 47 1091 c 0,8,9
 47 1272 47 1272 141 1374 c 0,10,11
 236 1476 236 1476 387 1476 c 0,12,13
 536 1476 536 1476 632 1374 c 1,14,15
 726 1272 726 1272 726 1095 c 256,0,1
387 1323 m 0,16,17
 348 1323 348 1323 316.5 1310 c 128,-1,18
 285 1297 285 1297 263 1270.5 c 128,-1,19
 241 1244 241 1244 228.5 1200 c 128,-1,20
 216 1156 216 1156 216 1095 c 0,21,22
 216 1035 216 1035 229 991.5 c 128,-1,23
 242 948 242 948 264.5 920.5 c 128,-1,24
 287 893 287 893 318 880 c 128,-1,25
 349 867 349 867 387 867 c 256,26,27
 425 867 425 867 456 880 c 128,-1,28
 487 893 487 893 509 920.5 c 128,-1,29
 531 948 531 948 544 992.5 c 128,-1,30
 557 1037 557 1037 557 1100 c 0,31,32
 557 1158 557 1158 544 1201 c 128,-1,33
 531 1244 531 1244 508.5 1270 c 128,-1,34
 486 1296 486 1296 455 1309.5 c 128,-1,35
 424 1323 424 1323 387 1323 c 0,16,17
EndSplineSet
EndChar

StartChar: guillemotright
Encoding: 187 187 115
Width: 1017
Flags: W
LayerCount: 2
Fore
SplineSet
805 517 m 1,0,1
 744 623 744 623 678.5 734 c 128,-1,2
 613 845 613 845 536 977 c 1,3,-1
 707 977 l 1,4,5
 789 863 789 863 870.5 749 c 128,-1,6
 952 635 952 635 1036 517 c 1,7,8
 952 400 952 400 870.5 286 c 128,-1,9
 789 172 789 172 707 58 c 1,10,-1
 537 58 l 1,11,-1
 805 517 l 1,0,1
416 517 m 1,12,13
 354 623 354 623 288 734 c 128,-1,14
 222 845 222 845 144 977 c 1,15,-1
 320 977 l 1,16,17
 398 863 398 863 479.5 748 c 128,-1,18
 561 633 561 633 642 517 c 1,19,20
 561 402 561 402 479.5 287 c 128,-1,21
 398 172 398 172 320 58 c 1,22,-1
 144 58 l 1,23,-1
 416 517 l 1,12,13
EndSplineSet
EndChar

StartChar: onequarter
Encoding: 188 188 116
Width: 1708
Flags: W
LayerCount: 2
Fore
SplineSet
242 -69 m 1,0,1
 389 132 389 132 528.5 325 c 128,-1,2
 668 518 668 518 809 712 c 128,-1,3
 950 906 950 906 1089.5 1098 c 128,-1,4
 1229 1290 1229 1290 1364 1476 c 1,5,-1
 1548 1476 l 1,6,7
 1403 1274 1403 1274 1263.5 1082 c 128,-1,8
 1124 890 1124 890 983 696 c 128,-1,9
 842 502 842 502 702.5 309 c 128,-1,10
 563 116 563 116 428 -69 c 1,11,-1
 242 -69 l 1,0,1
334 708 m 1,12,-1
 334 1244 l 1,13,14
 247 1177 247 1177 109 1139 c 1,15,-1
 109 1282 l 1,16,17
 148 1295 148 1295 181.5 1312 c 128,-1,18
 215 1329 215 1329 252 1355 c 0,19,20
 286 1378 286 1378 317.5 1406 c 128,-1,21
 349 1434 349 1434 375 1469 c 1,22,-1
 499 1469 l 1,23,-1
 499 708 l 1,24,-1
 334 708 l 1,12,-1
1437 -43 m 1,25,-1
 1437 108 l 1,26,-1
 1052 108 l 1,27,-1
 1052 209 l 1,28,-1
 1055 248 l 1,29,30
 1153 361 1153 361 1257 481 c 128,-1,31
 1361 601 1361 601 1464 718 c 1,32,-1
 1601 718 l 1,33,-1
 1601 236 l 1,34,-1
 1706 236 l 1,35,-1
 1706 108 l 1,36,-1
 1601 108 l 1,37,-1
 1601 -43 l 1,38,-1
 1437 -43 l 1,25,-1
1437 236 m 1,39,-1
 1437 457 l 1,40,-1
 1240 236 l 1,41,-1
 1437 236 l 1,39,-1
EndSplineSet
EndChar

StartChar: onehalf
Encoding: 189 189 117
Width: 1708
Flags: W
LayerCount: 2
Fore
SplineSet
218 -69 m 1,0,1
 365 132 365 132 504.5 325 c 128,-1,2
 644 518 644 518 785 712 c 128,-1,3
 926 906 926 906 1065 1098 c 128,-1,4
 1204 1290 1204 1290 1339 1476 c 1,5,-1
 1524 1476 l 1,6,7
 1379 1274 1379 1274 1239.5 1082 c 128,-1,8
 1100 890 1100 890 959 696 c 128,-1,9
 818 502 818 502 678.5 309 c 128,-1,10
 539 116 539 116 404 -69 c 1,11,-1
 218 -69 l 1,0,1
334 708 m 1,12,-1
 334 1244 l 1,13,14
 247 1177 247 1177 109 1139 c 1,15,-1
 109 1282 l 1,16,17
 148 1295 148 1295 181.5 1312 c 128,-1,18
 215 1329 215 1329 252 1355 c 0,19,20
 286 1378 286 1378 317.5 1406 c 128,-1,21
 349 1434 349 1434 375 1469 c 1,22,-1
 499 1469 l 1,23,-1
 499 708 l 1,24,-1
 334 708 l 1,12,-1
1053 -43 m 1,25,26
 1057 2 1057 2 1070 29.5 c 128,-1,27
 1083 57 1083 57 1103 85 c 0,28,29
 1165 170 1165 170 1314 276 c 1,30,31
 1385 325 1385 325 1427 358 c 128,-1,32
 1469 391 1469 391 1483 408 c 1,33,34
 1500 426 1500 426 1509 445.5 c 128,-1,35
 1518 465 1518 465 1518 482 c 0,36,37
 1518 524 1518 524 1487 551 c 128,-1,38
 1456 578 1456 578 1390 578 c 0,39,40
 1327 578 1327 578 1295 556 c 0,41,42
 1282 548 1282 548 1269.5 527 c 128,-1,43
 1257 506 1257 506 1243 466 c 1,44,45
 1196 471 1196 471 1161 474.5 c 128,-1,46
 1126 478 1126 478 1072 484 c 1,47,48
 1092 553 1092 553 1118 594.5 c 128,-1,49
 1144 636 1144 636 1183 663.5 c 128,-1,50
 1222 691 1222 691 1274 704.5 c 128,-1,51
 1326 718 1326 718 1393 718 c 0,52,53
 1546 718 1546 718 1620 656 c 1,54,55
 1696 596 1696 596 1696 507 c 0,56,57
 1696 464 1696 464 1679.5 422.5 c 128,-1,58
 1663 381 1663 381 1634 343 c 1,59,60
 1610 316 1610 316 1559 273 c 128,-1,61
 1508 230 1508 230 1428 172 c 1,62,63
 1349 117 1349 117 1329 97 c 1,64,-1
 1700 97 l 1,65,-1
 1700 -43 l 1,66,-1
 1053 -43 l 1,25,26
EndSplineSet
EndChar

StartChar: threequarters
Encoding: 190 190 118
Width: 1708
Flags: W
LayerCount: 2
Fore
SplineSet
245 -69 m 1,0,1
 392 132 392 132 531.5 325 c 128,-1,2
 671 518 671 518 812 712 c 128,-1,3
 953 906 953 906 1092.5 1098 c 128,-1,4
 1232 1290 1232 1290 1367 1476 c 1,5,-1
 1551 1476 l 1,6,7
 1405 1274 1405 1274 1265.5 1082 c 128,-1,8
 1126 890 1126 890 985 696 c 128,-1,9
 844 502 844 502 704.5 309 c 128,-1,10
 565 116 565 116 430 -69 c 1,11,-1
 245 -69 l 1,0,1
199 939 m 1,12,13
 212 904 212 904 225 884 c 128,-1,14
 238 864 238 864 251 855 c 0,15,16
 291 827 291 827 349 827 c 0,17,18
 414 827 414 827 456 864 c 1,19,20
 496 897 496 897 496 948 c 0,21,22
 496 992 496 992 463.5 1018.5 c 128,-1,23
 431 1045 431 1045 350 1045 c 1,24,25
 305 1042 305 1042 278 1042 c 1,26,27
 286 1084 286 1084 292 1109.5 c 128,-1,28
 298 1135 298 1135 306 1171 c 1,29,30
 394 1171 394 1171 427 1197.5 c 128,-1,31
 460 1224 460 1224 460 1261 c 0,32,33
 460 1293 460 1293 433.5 1315.5 c 128,-1,34
 407 1338 407 1338 351 1338 c 0,35,36
 323 1338 323 1338 303 1333 c 128,-1,37
 283 1328 283 1328 267.5 1317.5 c 128,-1,38
 252 1307 252 1307 240 1289.5 c 128,-1,39
 228 1272 228 1272 213 1237 c 1,40,41
 169 1243 169 1243 135 1248.5 c 128,-1,42
 101 1254 101 1254 50 1262 c 1,43,44
 98 1380 98 1380 162 1425 c 1,45,46
 228 1469 228 1469 352 1469 c 0,47,48
 499 1469 499 1469 567 1413 c 1,49,50
 638 1357 638 1357 638 1274 c 0,51,52
 638 1216 638 1216 599 1170.5 c 128,-1,53
 560 1125 560 1125 500 1108 c 1,54,-1
 500 1124 l 1,55,56
 584 1105 584 1105 628.5 1053 c 128,-1,57
 673 1001 673 1001 673 929 c 0,58,59
 673 831 673 831 590 761 c 1,60,61
 505 691 505 691 358 691 c 0,62,63
 213 691 213 691 136.5 746.5 c 128,-1,64
 60 802 60 802 35 921 c 1,65,-1
 199 939 l 1,12,13
1439 -43 m 1,66,-1
 1439 108 l 1,67,-1
 1055 108 l 1,68,-1
 1055 209 l 1,69,-1
 1057 248 l 1,70,71
 1155 361 1155 361 1259.5 481 c 128,-1,72
 1364 601 1364 601 1466 718 c 1,73,-1
 1604 718 l 1,74,-1
 1604 236 l 1,75,-1
 1709 236 l 1,76,-1
 1709 108 l 1,77,-1
 1604 108 l 1,78,-1
 1604 -43 l 1,79,-1
 1439 -43 l 1,66,-1
1439 236 m 1,80,-1
 1439 457 l 1,81,-1
 1243 236 l 1,82,-1
 1439 236 l 1,80,-1
EndSplineSet
EndChar

StartChar: hi_om
Encoding: 2384 2384 119
Width: 1907
Flags: W
LayerCount: 2
Fore
SplineSet
329 471 m 1,0,1
 351 398 351 398 391 332 c 0,2,3
 422 280 422 280 497 213 c 1,4,5
 536 176 536 176 594 149 c 0,6,7
 640 127 640 127 728 117 c 1,8,9
 876 117 876 117 944 199 c 1,10,11
 998 267 998 267 998 345 c 0,12,13
 998 500 998 500 871 569 c 1,14,15
 806 601 806 601 719 601 c 0,16,17
 672 601 672 601 619 590 c 0,18,19
 608 588 608 588 597 585 c 128,-1,20
 586 582 586 582 560 577 c 1,21,22
 558 635 558 635 556.5 675.5 c 128,-1,23
 555 716 555 716 554 777 c 1,24,-1
 622 755 l 1,25,26
 662 745 662 745 731 745 c 0,27,28
 852 745 852 745 903 806 c 1,29,30
 950 868 950 868 950 942 c 0,31,32
 950 1010 950 1010 899 1058 c 1,33,34
 849 1096 849 1096 758 1097 c 1,35,36
 655 1101 655 1101 588 1051 c 1,37,38
 528 998 528 998 518 898 c 0,39,40
 517 887 517 887 515.5 875.5 c 128,-1,41
 514 864 514 864 512 840 c 1,42,43
 454 848 454 848 409 852.5 c 128,-1,44
 364 857 364 857 305 865 c 1,45,46
 310 890 310 890 313.5 900.5 c 128,-1,47
 317 911 317 911 319 921 c 0,48,49
 337 990 337 990 373.5 1045 c 128,-1,50
 410 1100 410 1100 464.5 1138 c 128,-1,51
 519 1176 519 1176 592 1197 c 128,-1,52
 665 1218 665 1218 758 1219 c 1,53,54
 843 1221 843 1221 914 1202.5 c 128,-1,55
 985 1184 985 1184 1040 1145 c 1,56,57
 1095 1104 1095 1104 1125.5 1051 c 128,-1,58
 1156 998 1156 998 1156 939 c 0,59,60
 1156 872 1156 872 1134.5 819 c 128,-1,61
 1113 766 1113 766 1074 728 c 1,62,63
 1022 684 1022 684 985 672 c 1,64,65
 992 670 992 670 1023 652 c 1,66,67
 1103 617 1103 617 1154 528 c 1,68,69
 1203 445 1203 445 1203 371 c 0,70,71
 1203 194 1203 194 1066 73 c 1,72,-1
 1066 75 l 1,73,74
 970 -7 970 -7 727 -7 c 0,75,76
 640 -7 640 -7 567.5 13.5 c 128,-1,77
 495 34 495 34 439 73 c 1,78,79
 345 146 345 146 281.5 231.5 c 128,-1,80
 218 317 218 317 185 428 c 1,81,-1
 329 471 l 1,0,1
1380 382 m 1,82,83
 1436 333 1436 333 1533 333 c 0,84,85
 1568 333 1568 333 1600 349 c 128,-1,86
 1632 365 1632 365 1657 394 c 0,87,88
 1712 460 1712 460 1712 544 c 0,89,90
 1712 634 1712 634 1659 697 c 1,91,92
 1634 725 1634 725 1601.5 741 c 128,-1,93
 1569 757 1569 757 1533 757 c 0,94,95
 1472 757 1472 757 1419 740.5 c 128,-1,96
 1366 724 1366 724 1326 695 c 0,97,98
 1252 642 1252 642 1179 642 c 0,99,100
 1173 642 1173 642 1166.5 642.5 c 128,-1,101
 1160 643 1160 643 1142 646 c 1,102,-1
 1142 748 l 1,103,104
 1271 750 1271 750 1389 878 c 1,105,-1
 1389 867 l 1,106,107
 1428 891 1428 891 1483 910 c 128,-1,108
 1538 929 1538 929 1593 929 c 0,109,110
 1608 929 1608 929 1622 927.5 c 128,-1,111
 1636 926 1636 926 1831 898 c 1,112,-1
 1772 898 l 1,113,114
 1690 915 1690 915 1731 892.5 c 128,-1,115
 1772 870 1772 870 1811 831 c 1,116,117
 1850 796 1850 796 1875 733 c 128,-1,118
 1900 670 1900 670 1911 593 c 1,119,120
 1910 517 1910 517 1894 455.5 c 128,-1,121
 1878 394 1878 394 1845.5 346 c 128,-1,122
 1813 298 1813 298 1764 265.5 c 128,-1,123
 1715 233 1715 233 1648 219 c 1,124,125
 1561 221 1561 221 1486.5 241.5 c 128,-1,126
 1412 262 1412 262 1352 310 c 1,127,-1
 1380 382 l 1,82,83
969 1583 m 1,128,129
 1028 1582 1028 1582 1070.5 1580.5 c 128,-1,130
 1113 1579 1113 1579 1172 1578 c 1,131,-1
 1165 1522 l 1,132,-1
 1165 1490 l 2,133,134
 1165 1397 1165 1397 1199 1352 c 1,135,136
 1235 1308 1235 1308 1342 1308 c 1,137,138
 1492 1313 1492 1313 1492 1490 c 2,139,-1
 1492 1522 l 1,140,141
 1491 1532 1491 1532 1489.5 1542 c 128,-1,142
 1488 1552 1488 1552 1486 1578 c 1,143,144
 1545 1579 1545 1579 1588 1580.5 c 128,-1,145
 1631 1582 1631 1582 1689 1583 c 1,146,-1
 1689 1526 l 1,147,148
 1688 1491 1688 1491 1682.5 1455.5 c 128,-1,149
 1677 1420 1677 1420 1664.5 1385.5 c 128,-1,150
 1652 1351 1652 1351 1631.5 1320.5 c 128,-1,151
 1611 1290 1611 1290 1581 1262 c 1,152,153
 1540 1232 1540 1232 1475 1210 c 128,-1,154
 1410 1188 1410 1188 1329 1186 c 0,155,156
 1292 1186 1292 1186 1254 1191 c 128,-1,157
 1216 1196 1216 1196 1179.5 1208.5 c 128,-1,158
 1143 1221 1143 1221 1109.5 1239.5 c 128,-1,159
 1076 1258 1076 1258 1048 1286 c 1,160,161
 1015 1324 1015 1324 992.5 1386.5 c 128,-1,162
 970 1449 970 1449 969 1526 c 1,163,-1
 969 1583 l 1,128,129
1330 1450 m 256,164,165
 1308 1450 1308 1450 1289 1458.5 c 128,-1,166
 1270 1467 1270 1467 1255.5 1480.5 c 128,-1,167
 1241 1494 1241 1494 1232.5 1513.5 c 128,-1,168
 1224 1533 1224 1533 1224 1555 c 0,169,170
 1224 1602 1224 1602 1255.5 1632 c 128,-1,171
 1287 1662 1287 1662 1330 1662 c 0,172,173
 1352 1662 1352 1662 1371.5 1653.5 c 128,-1,174
 1391 1645 1391 1645 1405.5 1631 c 128,-1,175
 1420 1617 1420 1617 1428.5 1597.5 c 128,-1,176
 1437 1578 1437 1578 1437 1555 c 0,177,178
 1437 1533 1437 1533 1428.5 1513.5 c 128,-1,179
 1420 1494 1420 1494 1405 1480.5 c 128,-1,180
 1390 1467 1390 1467 1371 1458.5 c 128,-1,181
 1352 1450 1352 1450 1330 1450 c 256,164,165
EndSplineSet
EndChar

StartChar: uni0964
Encoding: 2404 2404 120
Width: 393
Flags: W
LayerCount: 2
Fore
SplineSet
364 -53 m 1,0,-1
 187 -53 l 1,1,-1
 187 1260 l 1,2,-1
 364 1260 l 1,3,-1
 364 -53 l 1,0,-1
EndSplineSet
EndChar

StartChar: uni0965
Encoding: 2405 2405 121
Width: 855
Flags: W
LayerCount: 2
Fore
SplineSet
826 -53 m 1,0,-1
 652 -53 l 1,1,-1
 652 1260 l 1,2,-1
 826 1260 l 1,3,-1
 826 -53 l 1,0,-1
362 -53 m 1,4,-1
 187 -53 l 1,5,-1
 187 1260 l 1,6,-1
 362 1260 l 1,7,-1
 362 -53 l 1,4,-1
EndSplineSet
EndChar

StartChar: ml_anusvara
Encoding: 3330 3330 122
Width: 1014
Flags: W
LayerCount: 2
Fore
SplineSet
600 884 m 0,0,1
 686 884 686 884 762.5 850 c 128,-1,2
 839 816 839 816 902 757 c 1,3,4
 960 690 960 690 991.5 603 c 128,-1,5
 1023 516 1023 516 1023 414 c 0,6,7
 1023 207 1023 207 900 88 c 0,8,9
 782 -26 782 -26 599 -26 c 256,10,11
 416 -26 416 -26 295 88 c 0,12,13
 170 207 170 207 170 418 c 0,14,15
 170 628 170 628 296 759 c 1,16,17
 422 884 422 884 600 884 c 0,0,1
829 419 m 0,18,19
 829 553 829 553 778 641 c 0,20,21
 727 728 727 728 600 728 c 0,22,23
 477 728 477 728 414 634 c 1,24,25
 363 543 363 543 363 419 c 0,26,27
 363 131 363 131 600 131 c 0,28,29
 829 131 829 131 829 419 c 0,18,19
EndSplineSet
EndChar

StartChar: ml_visarga
Encoding: 3331 3331 123
Width: 734
Flags: W
LayerCount: 2
Fore
SplineSet
253 1092 m 1,0,1
 341 1177 341 1177 464 1177 c 0,2,3
 590 1177 590 1177 666 1089 c 1,4,5
 743 996 743 996 743 866 c 0,6,7
 743 735 743 735 669 654 c 0,8,9
 591 568 591 568 465 568 c 0,10,11
 340 568 340 568 257 644 c 0,12,13
 170 724 170 724 170 865 c 256,14,15
 170 1006 170 1006 253 1092 c 1,0,1
673 488 m 1,16,17
 743 406 743 406 743 273 c 0,18,19
 743 209 743 209 722.5 154.5 c 128,-1,20
 702 100 702 100 664 56 c 1,21,22
 625 17 625 17 575 -3.5 c 128,-1,23
 525 -24 525 -24 466 -24 c 0,24,25
 345 -24 345 -24 259 52 c 1,26,27
 170 133 170 133 170 275 c 0,28,29
 170 419 170 419 254 500 c 0,30,31
 339 583 339 583 466 583 c 0,32,33
 594 583 594 583 673 488 c 1,16,17
467 731 m 0,34,35
 559 731 559 731 559 872 c 0,36,37
 559 1014 559 1014 457 1014 c 256,38,39
 355 1014 355 1014 355 872 c 0,40,41
 355 731 355 731 467 731 c 0,34,35
467 139 m 0,42,43
 559 139 559 139 559 279 c 0,44,45
 559 421 559 421 457 421 c 256,46,47
 355 421 355 421 355 279 c 0,48,49
 355 139 355 139 467 139 c 0,42,43
EndSplineSet
EndChar

StartChar: ml_a
Encoding: 3333 3333 125
Width: 2721
Flags: W
LayerCount: 2
Fore
SplineSet
1130 118 m 0,0,1
 1208 118 1208 118 1248.5 162.5 c 128,-1,2
 1289 207 1289 207 1289 280 c 0,3,4
 1289 352 1289 352 1248.5 397 c 128,-1,5
 1208 442 1208 442 1131 442 c 0,6,7
 1124 442 1124 442 1040 435 c 1,8,-1
 971 424 l 1,9,-1
 977 629 l 1,10,-1
 1045 618 l 1,11,12
 1093 609 1093 609 1121 609 c 0,13,14
 1192 609 1192 609 1231 651 c 128,-1,15
 1270 693 1270 693 1270 762 c 0,16,17
 1270 830 1270 830 1224 889 c 128,-1,18
 1178 948 1178 948 1108 961 c 1,19,20
 996 916 996 916 937.5 794 c 128,-1,21
 879 672 879 672 879 520 c 0,22,23
 879 367 879 367 932 254 c 0,24,25
 997 118 997 118 1130 118 c 0,0,1
2476 201 m 1,26,27
 2517 272 2517 272 2517 375 c 0,28,29
 2517 477 2517 477 2472 537.5 c 128,-1,30
 2427 598 2427 598 2333 598 c 0,31,32
 2238 598 2238 598 2191 532 c 128,-1,33
 2144 466 2144 466 2144 364 c 0,34,35
 2144 260 2144 260 2184 196 c 0,36,37
 2230 121 2230 121 2330 121 c 0,38,39
 2428 121 2428 121 2476 201 c 1,26,27
1370 1006 m 1,40,41
 1470 922 1470 922 1470 758 c 0,42,43
 1470 658 1470 658 1424.5 597 c 128,-1,44
 1379 536 1379 536 1371 530 c 1,45,46
 1385 523 1385 523 1432.5 460 c 128,-1,47
 1480 397 1480 397 1480 294 c 0,48,49
 1480 140 1480 140 1375.5 53 c 128,-1,50
 1271 -34 1271 -34 1130 -34 c 0,51,52
 902 -34 902 -34 776 148 c 1,53,54
 667 302 667 302 667 535 c 0,55,56
 667 902 667 902 884 1021 c 1,57,58
 877 1021 877 1021 866 1022 c 1,59,-1
 827 1022 l 2,60,61
 643 1022 643 1022 496 882 c 1,62,63
 378 750 378 750 378 549 c 0,64,65
 378 273 378 273 569 133 c 1,66,-1
 632 91 l 1,67,-1
 524 -55 l 1,68,-1
 479 -29 l 1,69,70
 170 163 170 163 170 564 c 1,71,72
 188 902 188 902 466 1085 c 1,73,74
 621 1175 621 1175 823 1175 c 0,75,76
 868 1175 868 1175 909 1171 c 1,77,78
 1008 1165 1008 1165 1067.5 1145 c 128,-1,79
 1127 1125 1127 1125 1131 1123 c 1,80,81
 1231 1165 1231 1165 1361 1165 c 0,82,83
 1610 1165 1610 1165 1742 1017 c 1,84,85
 1905 1170 1905 1170 2168 1170 c 0,86,87
 2430 1170 2430 1170 2591 993.5 c 128,-1,88
 2752 817 2752 817 2752 566 c 256,89,90
 2752 315 2752 315 2658 159 c 1,91,92
 2543 -39 2543 -39 2320 -39 c 0,93,94
 2153 -39 2153 -39 2045.5 74 c 128,-1,95
 1938 187 1938 187 1938 360 c 256,96,97
 1938 533 1938 533 2040.5 645.5 c 128,-1,98
 2143 758 2143 758 2320 758 c 0,99,100
 2463 758 2463 758 2551 676 c 1,101,102
 2545 780 2545 780 2446 888 c 1,103,104
 2335 1012 2335 1012 2162 1012 c 2,105,-1
 2150 1012 l 2,106,107
 2065 1012 2065 1012 1980.5 968 c 128,-1,108
 1896 924 1896 924 1864 858 c 128,-1,109
 1832 792 1832 792 1832 692 c 2,110,-1
 1832 -19 l 1,111,-1
 1641 -19 l 1,112,-1
 1641 699 l 2,113,114
 1641 800 1641 800 1610.5 862 c 128,-1,115
 1580 924 1580 924 1500 966 c 0,116,117
 1439 998 1439 998 1370 1006 c 1,40,41
EndSplineSet
EndChar

StartChar: ml_aa
Encoding: 3334 3334 126
Width: 3146
Flags: W
LayerCount: 2
Fore
SplineSet
2330 131 m 0,0,1
 2441 131 2441 131 2492 238 c 1,2,3
 2546 346 2546 346 2546 509 c 0,4,5
 2546 675 2546 675 2520 746 c 1,6,7
 2346 734 2346 734 2254 609 c 1,8,9
 2180 492 2180 492 2180 353 c 0,10,11
 2180 305 2180 305 2189 267 c 128,-1,12
 2198 229 2198 229 2215 201 c 1,13,14
 2266 131 2266 131 2330 131 c 0,0,1
1130 118 m 0,15,16
 1208 118 1208 118 1248.5 162.5 c 128,-1,17
 1289 207 1289 207 1289 280 c 0,18,19
 1289 352 1289 352 1248.5 397 c 128,-1,20
 1208 442 1208 442 1131 442 c 0,21,22
 1124 442 1124 442 1040 435 c 1,23,-1
 971 424 l 1,24,-1
 977 629 l 1,25,-1
 1045 618 l 1,26,27
 1093 609 1093 609 1121 609 c 0,28,29
 1192 609 1192 609 1231 651 c 128,-1,30
 1270 693 1270 693 1270 762 c 0,31,32
 1270 830 1270 830 1224 889 c 128,-1,33
 1178 948 1178 948 1108 961 c 1,34,35
 996 916 996 916 937.5 794 c 128,-1,36
 879 672 879 672 879 519 c 0,37,38
 879 367 879 367 932 254 c 0,39,40
 997 118 997 118 1130 118 c 0,15,16
1370 1006 m 1,41,42
 1470 922 1470 922 1470 758 c 0,43,44
 1470 658 1470 658 1424.5 597 c 128,-1,45
 1379 536 1379 536 1371 530 c 1,46,47
 1385 523 1385 523 1432.5 460 c 128,-1,48
 1480 397 1480 397 1480 294 c 0,49,50
 1480 140 1480 140 1375.5 53 c 128,-1,51
 1271 -34 1271 -34 1130 -34 c 0,52,53
 902 -34 902 -34 776 148 c 1,54,55
 667 302 667 302 667 535 c 0,56,57
 667 902 667 902 883 1025 c 1,58,59
 849 1022 849 1022 827 1022 c 0,60,61
 643 1022 643 1022 496 882 c 1,62,63
 378 750 378 750 378 549 c 0,64,65
 378 273 378 273 569 133 c 1,66,-1
 632 91 l 1,67,-1
 524 -55 l 1,68,-1
 479 -29 l 1,69,70
 170 163 170 163 170 564 c 1,71,72
 188 902 188 902 466 1085 c 1,73,74
 621 1175 621 1175 823 1175 c 0,75,76
 868 1175 868 1175 909 1171 c 1,77,78
 1008 1165 1008 1165 1067.5 1145 c 128,-1,79
 1127 1125 1127 1125 1131 1123 c 1,80,81
 1231 1165 1231 1165 1361 1165 c 0,82,83
 1610 1165 1610 1165 1742 1017 c 1,84,85
 1905 1170 1905 1170 2168 1170 c 0,86,87
 2430 1170 2430 1170 2589 995 c 0,88,89
 2628 953 2628 953 2653 912 c 1,90,91
 2758 907 2758 907 2847 865 c 0,92,93
 2942 821 2942 821 3012 746 c 1,94,95
 3080 660 3080 660 3117.5 555.5 c 128,-1,96
 3155 451 3155 451 3155 334 c 0,97,98
 3155 26 3155 26 2966 -166 c 1,99,100
 2786 -342 2786 -342 2517 -342 c 0,101,102
 2431 -342 2431 -342 2339 -321 c 128,-1,103
 2247 -300 2247 -300 2117 -229 c 1,104,-1
 2245 -92 l 1,105,106
 2385 -179 2385 -179 2526 -179 c 0,107,108
 2617 -179 2617 -179 2697 -146.5 c 128,-1,109
 2777 -114 2777 -114 2834 -42 c 1,110,111
 2893 28 2893 28 2924.5 124.5 c 128,-1,112
 2956 221 2956 221 2958 334 c 0,113,114
 2959 340 2959 340 2959 348 c 2,115,-1
 2959 364 l 2,116,117
 2959 421 2959 421 2945.5 476.5 c 128,-1,118
 2932 532 2932 532 2905 582 c 0,119,120
 2843 697 2843 697 2740 725 c 1,121,122
 2741 722 2741 722 2748.5 662 c 128,-1,123
 2756 602 2756 602 2756 522 c 0,124,125
 2756 292 2756 292 2646 142 c 1,126,127
 2525 -33 2525 -33 2330 -33 c 0,128,129
 2198 -33 2198 -33 2094 60 c 1,130,131
 1987 159 1987 159 1985 363 c 1,132,-1
 1985 369 l 2,133,134
 1985 468 1985 468 2019 558 c 0,135,136
 2054 649 2054 649 2122 727 c 1,137,138
 2188 794 2188 794 2273 835 c 0,139,140
 2353 873 2353 873 2447 886 c 0,141,142
 2447 887 2447 887 2446 888 c 0,143,144
 2335 1012 2335 1012 2162 1012 c 2,145,-1
 2150 1012 l 2,146,147
 2065 1012 2065 1012 1980.5 968 c 128,-1,148
 1896 924 1896 924 1864 858 c 128,-1,149
 1832 792 1832 792 1832 692 c 2,150,-1
 1832 -19 l 1,151,-1
 1641 -19 l 1,152,-1
 1641 699 l 2,153,154
 1641 800 1641 800 1610.5 862 c 128,-1,155
 1580 924 1580 924 1500 966 c 0,156,157
 1439 998 1439 998 1370 1006 c 1,41,42
EndSplineSet
EndChar

StartChar: ml_i
Encoding: 3335 3335 127
Width: 1978
Flags: W
LayerCount: 2
Fore
SplineSet
749 551 m 0,0,1
 749 710 749 710 591 710 c 0,2,3
 511 710 511 710 448 664 c 1,4,5
 412 639 412 639 412 589 c 0,6,7
 412 512 412 512 460 450 c 1,8,9
 501 391 501 391 582 391 c 0,10,11
 665 391 665 391 708 449 c 0,12,13
 749 505 749 505 749 551 c 0,0,1
368 1035 m 1,14,15
 514 1175 514 1175 753 1175 c 0,16,17
 1045 1175 1045 1175 1172 992 c 1,18,19
 1308 1175 1308 1175 1509 1175 c 2,20,-1
 1529 1175 l 2,21,22
 1752 1175 1752 1175 1885 1026 c 1,23,24
 2023 867 2023 867 2023 618 c 0,25,26
 2023 367 2023 367 1859 206.5 c 128,-1,27
 1695 46 1695 46 1409 46 c 2,28,-1
 562 46 l 2,29,30
 498 46 498 46 446.5 13.5 c 128,-1,31
 395 -19 395 -19 395 -70 c 256,32,33
 395 -121 395 -121 441.5 -149.5 c 128,-1,34
 488 -178 488 -178 559 -178 c 2,35,-1
 1981 -178 l 1,36,-1
 1981 -371 l 1,37,-1
 536 -371 l 2,38,39
 401 -371 401 -371 307.5 -290.5 c 128,-1,40
 214 -210 214 -210 214 -69 c 0,41,42
 214 74 214 74 307.5 148 c 128,-1,43
 401 222 401 222 536 222 c 2,44,-1
 1384 222 l 2,45,46
 1581 222 1581 222 1704 325 c 0,47,48
 1821 424 1821 424 1821 625 c 2,49,-1
 1821 633 l 1,50,51
 1822 648 1822 648 1822 661 c 0,52,53
 1822 780 1822 780 1765 885 c 0,54,55
 1702 1001 1702 1001 1541 1004 c 1,56,57
 1378 991 1378 991 1319.5 910 c 128,-1,58
 1261 829 1261 829 1261 724 c 2,59,-1
 1261 270 l 1,60,-1
 1063 270 l 1,61,-1
 1063 724 l 2,62,63
 1063 837 1063 837 997.5 919.5 c 128,-1,64
 932 1002 932 1002 769 1010 c 1,65,66
 585 1002 585 1002 509 930 c 1,67,68
 461 876 461 876 458 850 c 1,69,70
 502 873 502 873 591 873 c 0,71,72
 761 873 761 873 857 781 c 1,73,74
 957 682 957 682 957 545 c 0,75,76
 957 415 957 415 828 303 c 1,77,-1
 828 305 l 1,78,79
 733 227 733 227 582 227 c 0,80,81
 430 227 430 227 344 299 c 1,82,-1
 344 298 l 1,83,84
 206 420 206 420 206 602 c 1,85,86
 202 711 202 711 238 815 c 1,87,88
 275 927 275 927 368 1035 c 1,14,15
EndSplineSet
EndChar

StartChar: ml_u
Encoding: 3337 3337 129
Width: 1475
Flags: W
LayerCount: 2
Fore
SplineSet
559 362 m 0,0,1
 702 362 702 362 702 544 c 0,2,3
 702 725 702 725 555 725 c 0,4,5
 478 725 478 725 434 677 c 0,6,7
 386 626 386 626 386 582 c 0,8,9
 386 362 386 362 559 362 c 0,0,1
1270 511 m 0,10,11
 1277 553 1277 553 1277 600 c 0,12,13
 1277 651 1277 651 1268.5 693 c 128,-1,14
 1260 735 1260 735 1244.5 770 c 128,-1,15
 1229 805 1229 805 1205 836 c 128,-1,16
 1181 867 1181 867 1150 894 c 1,17,18
 1011 1008 1011 1008 801 1008 c 1,19,20
 499 994 499 994 443 872 c 1,21,22
 479 888 479 888 557 888 c 0,23,24
 715 888 715 888 817 779 c 0,25,26
 912 677 912 677 912 531 c 0,27,28
 912 384 912 384 814 294 c 1,29,30
 717 200 717 200 562 200 c 0,31,32
 485 200 485 200 419 222.5 c 128,-1,33
 353 245 353 245 300 287 c 1,34,35
 236 340 236 340 203 417.5 c 128,-1,36
 170 495 170 495 170 594 c 0,37,38
 170 719 170 719 210 824.5 c 128,-1,39
 250 930 250 930 322 1010 c 1,40,41
 404 1091 404 1091 524 1132 c 128,-1,42
 644 1173 644 1173 801 1173 c 0,43,44
 1064 1173 1064 1173 1251 1054 c 1,45,46
 1482 895 1482 895 1484 569 c 1,47,48
 1472 281 1472 281 1283 131 c 1,49,50
 1141 11 1141 11 760 5 c 1,51,-1
 584 5 l 1,52,53
 369 1 369 1 383 -81 c 1,54,55
 385 -179 385 -179 575 -179 c 2,56,-1
 1453 -179 l 1,57,-1
 1453 -369 l 1,58,-1
 611 -369 l 2,59,60
 196 -369 196 -369 194 -90 c 1,61,62
 196 123 196 123 399 167 c 0,63,64
 485 186 485 186 667 190 c 1,65,-1
 772 190 l 2,66,67
 1213 190 1213 190 1270 511 c 0,10,11
EndSplineSet
EndChar

StartChar: ml_ru
Encoding: 3339 3339 131
Width: 1479
Flags: W
LayerCount: 2
Fore
SplineSet
1138 -112 m 1,0,1
 1282 -44 1282 -44 1280 47 c 1,2,3
 1280 137 1280 137 1148 204 c 1,4,5
 1092 229 1092 229 1026.5 242.5 c 128,-1,6
 961 256 961 256 874 257 c 1,7,-1
 770 257 l 2,8,9
 697 257 697 257 629.5 242 c 128,-1,10
 562 227 562 227 510 204 c 1,11,12
 444 169 444 169 411 130 c 128,-1,13
 378 91 378 91 377 49 c 1,14,15
 377 -42 377 -42 523 -112 c 1,16,17
 588 -141 588 -141 661.5 -157 c 128,-1,18
 735 -173 735 -173 841 -174 c 1,19,20
 926 -173 926 -173 999 -157 c 128,-1,21
 1072 -141 1072 -141 1138 -112 c 1,0,1
596 896 m 0,22,23
 596 1019 596 1019 506 1019 c 0,24,25
 482 1019 482 1019 465.5 1009 c 128,-1,26
 449 999 449 999 438 983 c 128,-1,27
 427 967 427 967 421 946 c 128,-1,28
 415 925 415 925 415 898 c 0,29,30
 415 850 415 850 438 817 c 0,31,32
 462 781 462 781 507 781 c 0,33,34
 553 781 553 781 575 814 c 0,35,36
 596 846 596 846 596 896 c 0,22,23
1061 896 m 0,37,38
 1061 846 1061 846 1084 813.5 c 128,-1,39
 1107 781 1107 781 1151 781 c 0,40,41
 1194 781 1194 781 1219 817 c 0,42,43
 1231 833 1231 833 1237 854.5 c 128,-1,44
 1243 876 1243 876 1243 898 c 0,45,46
 1243 948 1243 948 1221 982 c 1,47,48
 1199 1019 1199 1019 1154 1019 c 0,49,50
 1061 1019 1061 1019 1061 896 c 0,37,38
1286 337 m 1,51,52
 1354 298 1354 298 1406 239 c 1,53,54
 1484 154 1484 154 1484 44 c 0,55,56
 1484 -172 1484 -172 1237 -276 c 1,57,58
 1075 -343 1075 -343 842 -343 c 0,59,60
 710 -343 710 -343 608 -324.5 c 128,-1,61
 506 -306 506 -306 424 -273 c 1,62,63
 306 -220 306 -220 240.5 -141 c 128,-1,64
 175 -62 175 -62 175 44 c 0,65,66
 175 100 175 100 194.5 148.5 c 128,-1,67
 214 197 214 197 252 239 c 0,68,69
 327 322 327 322 363 337 c 1,70,71
 279 418 279 418 243 476 c 0,72,73
 170 593 170 593 170 763 c 0,74,75
 170 936 170 936 265 1057 c 1,76,77
 357 1176 357 1176 509 1176 c 0,78,79
 567 1176 567 1176 614 1158.5 c 128,-1,80
 661 1141 661 1141 699 1107 c 0,81,82
 779 1033 779 1033 779 904 c 0,83,84
 779 776 779 776 699 698 c 0,85,86
 624 625 624 625 522 625 c 0,87,88
 423 625 423 625 366 681 c 1,89,90
 400 410 400 410 839 413 c 1,91,92
 1261 413 1261 413 1292 677 c 1,93,-1
 1289 680 l 1,94,95
 1232 636 1232 636 1183.5 631.5 c 128,-1,96
 1135 627 1135 627 1133 627 c 0,97,98
 1034 627 1034 627 959 699 c 1,99,100
 879 774 879 774 879 903 c 0,101,102
 879 1030 879 1030 960 1107 c 1,103,104
 1036 1176 1036 1176 1149 1176 c 0,105,106
 1301 1176 1301 1176 1394 1057 c 0,107,108
 1488 936 1488 936 1488 763 c 0,109,110
 1488 594 1488 594 1415 476 c 1,111,112
 1362 388 1362 388 1286 337 c 1,51,52
EndSplineSet
EndChar

StartChar: ml_li
Encoding: 3340 3340 132
Width: 2255
Flags: W
LayerCount: 2
Fore
SplineSet
390 384 m 0,0,1
 390 258 390 258 443 183 c 1,2,3
 496 105 496 105 596 105 c 256,4,5
 696 105 696 105 749 177 c 1,6,7
 801 244 801 244 801 358 c 0,8,9
 801 482 801 482 750 548 c 0,10,11
 697 617 697 617 597 617 c 0,12,13
 496 617 496 617 443 547 c 1,14,15
 390 481 390 481 390 384 c 0,0,1
1992 548 m 0,16,17
 1938 617 1938 617 1838 617 c 256,18,19
 1738 617 1738 617 1684 549 c 1,20,21
 1634 484 1634 484 1634 361 c 0,22,23
 1634 250 1634 250 1684 184 c 0,24,25
 1738 113 1738 113 1839 113 c 0,26,27
 1938 113 1938 113 1992 189 c 1,28,29
 2044 264 2044 264 2044 387 c 0,30,31
 2044 482 2044 482 1992 548 c 0,16,17
1413 943 m 1,33,34
 1323 874 1323 874 1323 796 c 2,35,-1
 1323 -13 l 1,36,-1
 1114 -13 l 1,37,-1
 1115 799 l 2,38,39
 1115 876 1115 876 1022 945 c 0,40,41
 925 1018 925 1018 785 1013 c 1,42,43
 585 1012 585 1012 474 897 c 1,44,45
 368 785 368 785 372 675 c 1,46,47
 396 699 396 699 423 716 c 0,48,49
 467 745 467 745 516 759 c 128,-1,50
 565 773 565 773 620 773 c 0,51,52
 772 773 772 773 881 666 c 1,53,54
 993 553 993 553 993 377 c 0,55,56
 993 177 993 177 888 57 c 1,57,58
 787 -56 787 -56 609 -56 c 0,59,60
 387 -56 387 -56 267 129 c 0,61,62
 170 278 170 278 170 523 c 2,63,-1
 170 552 l 2,64,65
 170 838 170 838 338 1001 c 0,66,67
 510 1169 510 1169 790 1174 c 1,68,69
 872 1173 872 1173 927 1161 c 128,-1,70
 982 1149 982 1149 1030 1132 c 1,71,72
 1101 1098 1101 1098 1151.5 1058 c 128,-1,73
 1202 1018 1202 1018 1226 984 c 1,74,75
 1364 1177 1364 1177 1645 1174 c 1,76,77
 1925 1169 1925 1169 2094 1005 c 1,78,79
 2264 838 2264 838 2264 552 c 2,80,-1
 2264 523 l 2,81,82
 2264 278 2264 278 2168 129 c 0,83,84
 2048 -56 2048 -56 1825 -56 c 0,85,86
 1648 -56 1648 -56 1546 57 c 1,87,88
 1442 177 1442 177 1442 377 c 0,89,90
 1442 553 1442 553 1553 666 c 1,91,92
 1662 773 1662 773 1815 773 c 0,93,94
 1869 773 1869 773 1918.5 759 c 128,-1,95
 1968 745 1968 745 2012 716 c 0,96,97
 2039 699 2039 699 2062 675 c 1,98,99
 2067 785 2067 785 1961 897 c 1,100,101
 1850 1012 1850 1012 1650 1013 c 1,102,32
 1505 1008 1505 1008 1413 943 c 1,33,34
EndSplineSet
EndChar

StartChar: ml_e
Encoding: 3342 3342 134
Width: 2546
Flags: W
LayerCount: 2
Fore
SplineSet
1783 -21 m 1,0,-1
 1402 -21 l 1,1,2
 1411 -125 1411 -125 1452 -209 c 0,3,4
 1511 -333 1511 -333 1655 -333 c 0,5,6
 1788 -333 1788 -333 1788 -139 c 0,7,8
 1788 -100 1788 -100 1786 -64 c 0,9,10
 1783 -10 1783 -10 1783 -21 c 1,0,-1
1175 134 m 1,11,12
 1174 206 1174 206 1173 263 c 1,13,14
 1173 647 1173 647 1324 884 c 0,15,16
 1509 1173 1509 1173 1871 1173 c 0,17,18
 2232 1173 2232 1173 2407 918 c 0,19,20
 2555 704 2555 704 2555 342 c 1,21,22
 2553 111 2553 111 2540 5 c 0,23,24
 2526 -107 2526 -107 2495 -197 c 1,25,26
 2477 -245 2477 -245 2450 -293 c 128,-1,27
 2423 -341 2423 -341 2391 -384 c 1,28,29
 2347 -434 2347 -434 2301 -467.5 c 128,-1,30
 2255 -501 2255 -501 2222 -516 c 1,31,-1
 2110 -386 l 1,32,33
 2217 -345 2217 -345 2271.5 -224.5 c 128,-1,34
 2326 -104 2326 -104 2337 114 c 0,35,36
 2339 165 2339 165 2341 341 c 1,37,38
 2341 632 2341 632 2251 802 c 1,39,40
 2135 1006 2135 1006 1874 1006 c 1,41,42
 1637 1005 1637 1005 1514.5 842 c 128,-1,43
 1392 679 1392 679 1392 241 c 2,44,-1
 1392 136 l 1,45,-1
 1784 136 l 1,46,-1
 1785 941 l 1,47,-1
 1986 939 l 1,48,-1
 1987 7 l 2,49,50
 1987 -222 1987 -222 1951 -314 c 0,51,52
 1883 -489 1883 -489 1639 -489 c 0,53,54
 1418 -489 1418 -489 1300 -318 c 1,55,56
 1215 -190 1215 -190 1192 -23 c 1,57,-1
 647 -23 l 1,58,-1
 607 100 l 1,59,-1
 645 122 l 1,60,61
 782 194 782 194 779 369 c 1,62,63
 779 474 779 474 729.5 537 c 128,-1,64
 680 600 680 600 581 605 c 1,65,66
 477 605 477 605 426 541 c 128,-1,67
 375 477 375 477 375 375 c 0,68,69
 375 183 375 183 504 123 c 1,70,-1
 557 104 l 1,71,-1
 496 -36 l 1,72,-1
 442 -18 l 1,73,74
 316 26 316 26 243 116 c 128,-1,75
 170 206 170 206 170 381 c 256,76,77
 170 556 170 556 289 659.5 c 128,-1,78
 408 763 408 763 582 763 c 256,79,80
 756 763 756 763 871.5 659.5 c 128,-1,81
 987 556 987 556 987 382 c 256,82,83
 987 208 987 208 915 134 c 1,84,-1
 1175 134 l 1,11,12
EndSplineSet
EndChar

StartChar: ml_ee
Encoding: 3343 3343 135
Width: 2527
Flags: W
LayerCount: 2
Fore
SplineSet
1744 -21 m 1,0,-1
 1402 -21 l 1,1,2
 1411 -125 1411 -125 1452 -209 c 0,3,4
 1511 -333 1511 -333 1635 -333 c 0,5,6
 1749 -333 1749 -333 1749 -139 c 0,7,8
 1749 -100 1749 -100 1747 -64 c 0,9,10
 1745 -19 1745 -19 1744 -19 c 1,11,-1
 1744 -21 l 1,0,-1
1175 134 m 1,12,13
 1174 206 1174 206 1173 263 c 1,14,15
 1173 647 1173 647 1324 884 c 0,16,17
 1509 1173 1509 1173 1871 1173 c 0,18,19
 2223 1173 2223 1173 2412 926 c 1,20,21
 2489 831 2489 831 2494 659 c 1,22,23
 2494 575 2494 575 2460 494 c 128,-1,24
 2426 413 2426 413 2335 366 c 1,25,26
 2537 264 2537 264 2537 -59 c 0,27,28
 2537 -245 2537 -245 2431 -368 c 1,29,30
 2329 -490 2329 -490 2137 -494 c 1,31,32
 2073 -489 2073 -489 2013 -463 c 1,33,-1
 2013 -307 l 1,34,35
 2089 -324 2089 -324 2136 -325 c 1,36,-1
 2142 -325 l 2,37,38
 2227 -325 2227 -325 2276 -247 c 1,39,40
 2326 -155 2326 -155 2326 -59 c 0,41,42
 2326 187 2326 187 2164 244 c 1,43,44
 2154 246 2154 246 2141.5 247.5 c 128,-1,45
 2129 249 2129 249 2114 249 c 0,46,47
 2083 249 2083 249 2045 243 c 0,48,49
 2040 242 2040 242 2034.5 241 c 128,-1,50
 2029 240 2029 240 2010 233 c 1,51,-1
 2010 453 l 1,52,53
 2032 448 2032 448 2039 446 c 128,-1,54
 2046 444 2046 444 2056 441 c 0,55,56
 2085 434 2085 434 2114 434 c 0,57,58
 2141 434 2141 434 2164 442 c 1,59,60
 2284 496 2284 496 2284 660 c 0,61,62
 2284 732 2284 732 2250 803 c 1,63,64
 2135 1006 2135 1006 1874 1006 c 1,65,66
 1637 1005 1637 1005 1514.5 842 c 128,-1,67
 1392 679 1392 679 1392 241 c 2,68,-1
 1392 136 l 1,69,-1
 1745 136 l 1,70,-1
 1746 941 l 1,71,-1
 1947 939 l 1,72,-1
 1948 7 l 2,73,74
 1948 -222 1948 -222 1912 -314 c 0,75,76
 1844 -489 1844 -489 1620 -489 c 0,77,78
 1418 -489 1418 -489 1300 -318 c 1,79,80
 1215 -190 1215 -190 1192 -23 c 1,81,-1
 647 -23 l 1,82,-1
 607 100 l 1,83,-1
 645 122 l 1,84,85
 779 192 779 192 779 362 c 2,86,-1
 779 369 l 2,87,88
 779 474 779 474 729.5 537 c 128,-1,89
 680 600 680 600 581 605 c 1,90,91
 477 605 477 605 426 541 c 128,-1,92
 375 477 375 477 375 375 c 0,93,94
 375 183 375 183 504 123 c 1,95,-1
 557 104 l 1,96,-1
 496 -36 l 1,97,-1
 442 -18 l 1,98,99
 316 26 316 26 243 116 c 128,-1,100
 170 206 170 206 170 381 c 256,101,102
 170 556 170 556 289 659.5 c 128,-1,103
 408 763 408 763 582 763 c 256,104,105
 756 763 756 763 871.5 659.5 c 128,-1,106
 987 556 987 556 987 382 c 256,107,108
 987 208 987 208 915 134 c 1,109,-1
 1175 134 l 1,12,13
EndSplineSet
EndChar

StartChar: ml_o
Encoding: 3346 3346 138
Width: 1485
Flags: W
LayerCount: 2
Fore
SplineSet
773 339 m 0,0,1
 773 421 773 421 735 485 c 0,2,3
 696 549 696 549 603 557 c 0,4,5
 590 558 590 558 578 558 c 0,6,7
 499 558 499 558 441 513 c 0,8,9
 378 465 378 465 373 418 c 1,10,11
 375 329 375 329 410 265 c 1,12,13
 484 136 484 136 604 136 c 0,14,15
 773 136 773 136 773 339 c 0,0,1
372 657 m 1,16,17
 468 725 468 725 606 725 c 0,18,19
 752 725 752 725 859 628 c 1,20,21
 970 525 970 525 970 343 c 0,22,23
 970 171 970 171 873 66 c 1,24,25
 767 -37 767 -37 609 -37 c 0,26,27
 498 -37 498 -37 409.5 17.5 c 128,-1,28
 321 72 321 72 261 178 c 0,29,30
 220 252 220 252 197 341 c 128,-1,31
 174 430 174 430 172 516 c 1,32,-1
 170 547 l 1,33,34
 170 609 170 609 176 663 c 1,35,36
 194 762 194 762 238.5 845.5 c 128,-1,37
 283 929 283 929 346 992 c 1,38,39
 440 1081 440 1081 565.5 1129 c 128,-1,40
 691 1177 691 1177 841 1177 c 0,41,42
 873 1177 873 1177 905 1176 c 128,-1,43
 937 1175 937 1175 971.5 1171 c 128,-1,44
 1006 1167 1006 1167 1043 1159 c 128,-1,45
 1080 1151 1080 1151 1123 1140 c 1,46,47
 1205 1115 1205 1115 1289 1061 c 1,48,49
 1465 942 1465 942 1465 750 c 0,50,51
 1465 708 1465 708 1453.5 672 c 128,-1,52
 1442 636 1442 636 1421 602 c 1,53,54
 1383 548 1383 548 1383 545 c 1,55,-1
 1384 545 l 1,56,57
 1494 480 1494 480 1494 299 c 0,58,59
 1494 214 1494 214 1450.5 147 c 128,-1,60
 1407 80 1407 80 1330 35 c 1,61,62
 1266 -1 1266 -1 1196 -19.5 c 128,-1,63
 1126 -38 1126 -38 1045 -38 c 1,64,65
 1028 3 1028 3 1016.5 31 c 128,-1,66
 1005 59 1005 59 978 122 c 1,67,68
 1139 122 1139 122 1223 178 c 1,69,70
 1296 234 1296 234 1296 310 c 0,71,72
 1296 394 1296 394 1257 430 c 1,73,74
 1224 457 1224 457 1146 457 c 0,75,76
 1135 457 1135 457 1114 456 c 128,-1,77
 1093 455 1093 455 1049 452 c 1,78,-1
 1049 633 l 1,79,80
 1071 633 1071 633 1083 632.5 c 128,-1,81
 1095 632 1095 632 1103 632 c 0,82,83
 1118 631 1118 631 1129 631 c 2,84,-1
 1147 631 l 2,85,86
 1158 631 1158 631 1170 632.5 c 128,-1,87
 1182 634 1182 634 1195 638 c 0,88,89
 1220 644 1220 644 1240 673 c 1,90,91
 1265 706 1265 706 1265 762 c 0,92,93
 1265 826 1265 826 1194 900 c 1,94,95
 1065 1020 1065 1020 838 1021 c 1,96,97
 719 1018 719 1018 626 977 c 128,-1,98
 533 936 533 936 471 865 c 0,99,100
 421 807 421 807 396 747 c 0,101,102
 375 695 375 695 372 657 c 1,16,17
EndSplineSet
EndChar

StartChar: ml_ka
Encoding: 3349 3349 141
Width: 1942
Flags: W
LayerCount: 2
Fore
SplineSet
685 258 m 1,1,2
 656 314 656 314 632.5 398 c 128,-1,3
 609 482 609 482 606 529 c 1,4,-1
 545 529 l 2,5,6
 465 529 465 529 411 463 c 1,7,8
 370 395 370 395 370 328 c 0,9,10
 370 141 370 141 533 141 c 1,11,0
 601 146 601 146 685 258 c 1,1,2
601 693 m 1,12,13
 612 858 612 858 697 982 c 1,14,15
 823 1170 823 1170 1062 1179 c 1,16,17
 1291 1168 1291 1168 1410 991 c 1,18,19
 1499 856 1499 856 1510 693 c 1,20,-1
 1551 693 l 2,21,22
 1617 693 1617 693 1692 674 c 1,23,24
 1765 657 1765 657 1818 618 c 1,25,26
 1868 584 1868 584 1909.5 504.5 c 128,-1,27
 1951 425 1951 425 1951 330 c 0,28,29
 1951 239 1951 239 1908.5 167.5 c 128,-1,30
 1866 96 1866 96 1793 48 c 1,31,32
 1738 16 1738 16 1678 -1 c 128,-1,33
 1618 -18 1618 -18 1559 -18 c 0,34,35
 1534 -18 1534 -18 1510.5 -14.5 c 128,-1,36
 1487 -11 1487 -11 1453 1 c 1,37,-1
 1418 169 l 1,38,39
 1470 154 1470 154 1497 150.5 c 128,-1,40
 1524 147 1524 147 1546 147 c 0,41,42
 1571 147 1571 147 1585 151 c 0,43,44
 1614 158 1614 158 1635.5 168.5 c 128,-1,45
 1657 179 1657 179 1675 190 c 1,46,47
 1743 244 1743 244 1743 323 c 0,48,49
 1743 406 1743 406 1696 473 c 1,50,51
 1648 525 1648 525 1551 529 c 1,52,-1
 1513 529 l 1,53,54
 1511 433 1511 433 1475 332.5 c 128,-1,55
 1439 232 1439 232 1377 147 c 1,56,57
 1308 61 1308 61 1229 17 c 128,-1,58
 1150 -27 1150 -27 1065 -27 c 0,59,60
 891 -27 891 -27 767 124 c 1,61,62
 743 79 743 79 667 24 c 1,63,64
 596 -19 596 -19 533 -24 c 1,65,66
 466 -24 466 -24 404 -1.5 c 128,-1,67
 342 21 342 21 286 65 c 1,68,69
 232 111 232 111 201 175 c 128,-1,70
 170 239 170 239 170 314 c 0,71,72
 170 479 170 479 278 582 c 1,73,74
 392 693 392 693 551 693 c 2,75,-1
 601 693 l 1,12,13
807 686 m 1,76,-1
 1303 686 l 1,77,78
 1300 780 1300 780 1279 851 c 0,79,80
 1257 924 1257 924 1201 966.5 c 128,-1,81
 1145 1009 1145 1009 1071 1009 c 0,82,83
 811 1008 811 1008 807 686 c 1,76,-1
814 522 m 1,84,85
 819 372 819 372 882 250 c 1,86,87
 917 196 917 196 961.5 162 c 128,-1,88
 1006 128 1006 128 1059 128 c 0,89,90
 1165 128 1165 128 1234 250 c 1,91,92
 1299 373 1299 373 1304 522 c 1,93,-1
 814 522 l 1,84,85
EndSplineSet
EndChar

StartChar: ml_kha
Encoding: 3350 3350 142
Width: 1955
Flags: W
LayerCount: 2
Fore
SplineSet
597 620 m 256,0,1
 497 620 497 620 443 548 c 1,2,3
 389 480 389 480 389 383 c 0,4,5
 389 284 389 284 443 207 c 1,6,7
 496 128 496 128 596 128 c 256,8,9
 696 128 696 128 749 200 c 0,10,11
 801 270 801 270 801 375 c 0,12,13
 801 482 801 482 750 549 c 0,14,15
 697 620 697 620 597 620 c 256,0,1
1235 991 m 1,16,17
 1417 805 1417 805 1417 532 c 0,18,19
 1417 473 1417 473 1402 411 c 128,-1,20
 1387 349 1387 349 1359 285 c 1,21,22
 1332 227 1332 227 1300.5 179 c 128,-1,23
 1269 131 1269 131 1284 145 c 1,24,-1
 1748 145 l 1,25,-1
 1748 1177 l 1,26,-1
 1955 1177 l 1,27,-1
 1955 -19 l 1,28,-1
 1066 -19 l 1,29,30
 1046 5 1046 5 1031.5 23 c 128,-1,31
 1017 41 1017 41 984 80 c 1,32,33
 1104 192 1104 192 1156.5 300 c 128,-1,34
 1209 408 1209 408 1209 532 c 0,35,36
 1209 714 1209 714 1108 857 c 1,37,38
 994 1005 994 1005 796 1016 c 1,39,40
 584 1014 584 1014 474 901 c 1,41,42
 366 786 366 786 368 675 c 1,43,44
 387 698 387 698 423 718 c 1,45,46
 467 748 467 748 516 762 c 128,-1,47
 565 776 565 776 619 776 c 0,48,49
 772 776 772 776 883 665 c 0,50,51
 993 555 993 555 993 379 c 0,52,53
 993 291 993 291 966.5 219 c 128,-1,54
 940 147 940 147 887 87 c 0,55,56
 786 -28 786 -28 608 -28 c 0,57,58
 385 -28 385 -28 267 159 c 1,59,60
 170 307 170 307 170 525 c 2,61,-1
 170 554 l 2,62,63
 170 842 170 842 344 1012 c 1,64,65
 505 1178 505 1178 804 1181 c 1,66,67
 1070 1174 1070 1174 1235 991 c 1,16,17
EndSplineSet
EndChar

StartChar: ml_ga
Encoding: 3351 3351 143
Width: 1811
Flags: W
LayerCount: 2
Fore
SplineSet
374 540 m 1,0,1
 365 393 365 393 447 250 c 1,2,3
 514 128 514 128 654 128 c 0,4,5
 893 128 893 128 893 543 c 0,6,7
 893 1176 893 1176 1337 1176 c 0,8,9
 1444 1176 1444 1176 1536 1125.5 c 128,-1,10
 1628 1075 1628 1075 1701 984 c 1,11,12
 1752 910 1752 910 1782.5 824.5 c 128,-1,13
 1813 739 1813 739 1821 649 c 1,14,-1
 1821 602 l 1,15,16
 1822 154 1822 154 1457 -40 c 1,17,-1
 1415 -59 l 1,18,-1
 1324 105 l 1,19,-1
 1388 129 l 1,20,21
 1604 234 1604 234 1617 543 c 1,22,23
 1635 773 1635 773 1557 874 c 1,24,25
 1480 1010 1480 1010 1336 1010 c 0,26,27
 1266 1010 1266 1010 1217.5 975.5 c 128,-1,28
 1169 941 1169 941 1143 881 c 1,29,30
 1123 829 1123 829 1112 743.5 c 128,-1,31
 1101 658 1101 658 1101 543 c 0,32,33
 1101 308 1101 308 1020 186 c 1,34,-1
 1023 186 l 1,35,36
 864 -38 864 -38 652 -38 c 0,37,38
 438 -38 438 -38 305 138 c 1,39,40
 177 295 177 295 170 550 c 1,41,42
 171 976 171 976 535 1169 c 1,43,-1
 577 1189 l 1,44,-1
 667 1025 l 1,45,-1
 603 1001 l 1,46,47
 388 895 388 895 374 540 c 1,0,1
EndSplineSet
EndChar

StartChar: ml_gha
Encoding: 3352 3352 144
Width: 2810
Flags: W
LayerCount: 2
Fore
SplineSet
1941 505 m 1,0,-1
 1941 673 l 1,1,2
 1939 739 1939 739 1938 778 c 128,-1,3
 1937 817 1937 817 1936 825 c 0,4,5
 1932 856 1932 856 1920 883 c 128,-1,6
 1908 910 1908 910 1886 931 c 0,7,8
 1851 965 1851 965 1801.5 985 c 128,-1,9
 1752 1005 1752 1005 1693 1005 c 0,10,11
 1570 1005 1570 1005 1509 935 c 0,12,13
 1451 868 1451 868 1451 704 c 2,14,-1
 1451 505 l 1,15,-1
 1941 505 l 1,0,-1
1245 507 m 1,16,-1
 1245 691 l 2,17,18
 1245 923 1245 923 1329 1023 c 0,19,20
 1456 1175 1456 1175 1686 1174 c 0,21,22
 1802 1173 1802 1173 1891 1135.5 c 128,-1,23
 1980 1098 1980 1098 2045 1022 c 1,24,25
 2090 967 2090 967 2111.5 878.5 c 128,-1,26
 2133 790 2133 790 2133 673 c 2,27,-1
 2133 344 l 1,28,-1
 1451 344 l 1,29,-1
 1451 136 l 1,30,-1
 2605 136 l 1,31,-1
 2602 1168 l 1,32,-1
 2810 1168 l 1,33,-1
 2811 -27 l 1,34,-1
 1240 -27 l 1,35,-1
 1240 350 l 1,36,-1
 647 350 l 1,37,-1
 607 471 l 1,38,-1
 645 495 l 1,39,40
 782 567 782 567 779 742 c 1,41,42
 779 846 779 846 729.5 909.5 c 128,-1,43
 680 973 680 973 581 978 c 1,44,45
 477 978 477 978 426 913.5 c 128,-1,46
 375 849 375 849 375 748 c 0,47,48
 375 555 375 555 504 496 c 1,49,-1
 556 476 l 1,50,-1
 496 337 l 1,51,-1
 442 354 l 1,52,53
 316 398 316 398 243 489 c 128,-1,54
 170 580 170 580 170 754 c 0,55,56
 170 929 170 929 289 1032.5 c 128,-1,57
 408 1136 408 1136 582 1136 c 256,58,59
 756 1136 756 1136 871.5 1032.5 c 128,-1,60
 987 929 987 929 987 755 c 0,61,62
 987 582 987 582 915 507 c 1,63,-1
 1245 507 l 1,16,-1
EndSplineSet
EndChar

StartChar: ml_nga
Encoding: 3353 3353 145
Width: 2107
Flags: W
LayerCount: 2
Fore
SplineSet
597 617 m 256,0,1
 497 617 497 617 443 545 c 1,2,3
 389 479 389 479 389 372 c 0,4,5
 389 322 389 322 401.5 279 c 128,-1,6
 414 236 414 236 443 196 c 1,7,8
 496 118 496 118 597 118 c 0,9,10
 697 118 697 118 749 190 c 1,11,12
 801 260 801 260 801 364 c 0,13,14
 801 480 801 480 750 546 c 1,15,16
 697 617 697 617 597 617 c 256,0,1
787 1175 m 1,17,18
 852 1173 852 1173 909 1160.5 c 128,-1,19
 966 1148 966 1148 1017 1124 c 128,-1,20
 1068 1100 1068 1100 1113 1062.5 c 128,-1,21
 1158 1025 1158 1025 1191 985 c 1,22,23
 1225 1033 1225 1033 1281.5 1073 c 128,-1,24
 1338 1113 1338 1113 1411 1138 c 1,25,26
 1519 1173 1519 1173 1632 1173 c 0,27,28
 1739 1173 1739 1173 1824 1149.5 c 128,-1,29
 1909 1126 1909 1126 1974 1079 c 0,30,31
 2107 985 2107 985 2107 809 c 0,32,33
 2107 635 2107 635 2005 562 c 1,34,35
 2033 549 2033 549 2074.5 483.5 c 128,-1,36
 2116 418 2116 418 2116 318 c 0,37,38
 2116 127 2116 127 1957 31 c 1,39,40
 1845 -38 1845 -38 1699 -38 c 0,41,42
 1561 -38 1561 -38 1394 59 c 1,43,-1
 1515 185 l 1,44,45
 1555 149 1555 149 1592 137 c 128,-1,46
 1629 125 1629 125 1687 125 c 0,47,48
 1802 125 1802 125 1864 191 c 0,49,50
 1915 246 1915 246 1915 300 c 0,51,52
 1915 326 1915 326 1901.5 354.5 c 128,-1,53
 1888 383 1888 383 1863 411 c 1,54,55
 1836 439 1836 439 1798 455.5 c 128,-1,56
 1760 472 1760 472 1712 472 c 2,57,-1
 1540 472 l 1,58,-1
 1540 651 l 1,59,-1
 1712 651 l 2,60,61
 1757 651 1757 651 1790.5 665.5 c 128,-1,62
 1824 680 1824 680 1851 708 c 0,63,64
 1899 760 1899 760 1899 821 c 0,65,66
 1899 880 1899 880 1852 934 c 1,67,68
 1819 969 1819 969 1766 989.5 c 128,-1,69
 1713 1010 1713 1010 1641 1010 c 0,70,71
 1495 1010 1495 1010 1393 940 c 0,72,73
 1346 907 1346 907 1322.5 869.5 c 128,-1,74
 1299 832 1299 832 1299 792 c 0,75,76
 1299 594 1299 594 1298.5 397.5 c 128,-1,77
 1298 201 1298 201 1298 -20 c 1,78,-1
 1090 -20 l 1,79,-1
 1089 785 l 2,80,81
 1089 827 1089 827 1068.5 866.5 c 128,-1,82
 1048 906 1048 906 1010 938 c 0,83,84
 929 1004 929 1004 770 1011 c 1,85,86
 586 1005 586 1005 475 895 c 1,87,88
 366 783 366 783 369 683 c 1,89,90
 366 679 366 679 423 715 c 0,91,92
 468 744 468 744 516.5 758 c 128,-1,93
 565 772 565 772 620 772 c 0,94,95
 772 772 772 772 880 666 c 1,96,97
 993 551 993 551 993 368 c 0,98,99
 993 280 993 280 966.5 208 c 128,-1,100
 940 136 940 136 887 77 c 0,101,102
 786 -38 786 -38 609 -38 c 0,103,104
 386 -38 386 -38 268 149 c 1,105,106
 170 297 170 297 170 522 c 2,107,-1
 170 552 l 2,108,109
 170 838 170 838 339 1002 c 1,110,111
 505 1161 505 1161 787 1175 c 1,17,18
EndSplineSet
EndChar

StartChar: ml_ca
Encoding: 3354 3354 146
Width: 1858
Flags: W
LayerCount: 2
Fore
SplineSet
1859 -18 m 1,0,-1
 170 -18 l 1,1,-1
 170 143 l 1,2,-1
 791 143 l 1,3,4
 938 196 938 196 938 395 c 0,5,6
 938 477 938 477 891 541 c 0,7,8
 867 573 867 573 829.5 591 c 128,-1,9
 792 609 792 609 742 609 c 0,10,11
 641 609 641 609 599 553 c 0,12,13
 554 492 554 492 554 413 c 0,14,15
 554 335 554 335 627 240 c 1,16,17
 575 213 575 213 550.5 200 c 128,-1,18
 526 187 526 187 498 171 c 1,19,20
 432 211 432 211 396 272.5 c 128,-1,21
 360 334 360 334 360 417 c 0,22,23
 360 504 360 504 396 574 c 128,-1,24
 432 644 432 644 497 694 c 1,25,26
 555 730 555 730 616.5 751 c 128,-1,27
 678 772 678 772 740 772 c 0,28,29
 903 772 903 772 1001 690 c 1,30,-1
 1001 691 l 1,31,32
 1145 564 1145 564 1145 392 c 0,33,34
 1145 219 1145 219 1051 143 c 1,35,-1
 1652 143 l 1,36,-1
 1652 1159 l 1,37,-1
 1859 1159 l 1,38,-1
 1859 -18 l 1,0,-1
EndSplineSet
EndChar

StartChar: ml_cha
Encoding: 3355 3355 147
Width: 2671
Flags: W
LayerCount: 2
Fore
SplineSet
2048 375 m 0,0,1
 2048 271 2048 271 2099 200 c 0,2,3
 2125 165 2125 165 2163 146.5 c 128,-1,4
 2201 128 2201 128 2252 128 c 0,5,6
 2353 128 2353 128 2407 207 c 0,7,8
 2460 283 2460 283 2460 383 c 0,9,10
 2460 481 2460 481 2407 548 c 1,11,12
 2353 620 2353 620 2251 620 c 0,13,14
 2153 620 2153 620 2098 549 c 1,15,16
 2048 482 2048 482 2048 375 c 0,0,1
2084 1014 m 0,17,18
 1836 1016 1836 1016 1711 852 c 1,19,20
 1661 779 1661 779 1636.5 699.5 c 128,-1,21
 1612 620 1612 620 1612 529 c 0,22,23
 1612 406 1612 406 1664 298.5 c 128,-1,24
 1716 191 1716 191 1829 97 c 1,25,-1
 1757 -19 l 1,26,-1
 170 -19 l 1,27,-1
 170 143 l 1,28,-1
 791 143 l 1,29,30
 938 196 938 196 938 393 c 0,31,32
 938 474 938 474 891 539 c 0,33,34
 868 570 868 570 830 588 c 128,-1,35
 792 606 792 606 742 606 c 0,36,37
 643 606 643 606 598 545 c 1,38,39
 554 488 554 488 554 410 c 0,40,41
 554 371 554 371 566.5 336 c 128,-1,42
 579 301 579 301 629 240 c 1,43,44
 576 212 576 212 551 199 c 128,-1,45
 526 186 526 186 498 170 c 1,46,47
 432 210 432 210 396 271 c 128,-1,48
 360 332 360 332 360 415 c 0,49,50
 360 501 360 501 396 571 c 128,-1,51
 432 641 432 641 497 691 c 1,52,53
 555 726 555 726 616.5 747 c 128,-1,54
 678 768 678 768 740 768 c 0,55,56
 904 768 904 768 1001 686 c 1,57,-1
 1001 687 l 1,58,59
 1146 560 1146 560 1146 390 c 0,60,61
 1146 218 1146 218 1052 143 c 1,62,-1
 1080 143 l 1,63,-1
 1536 144 l 1,64,65
 1552 129 1552 129 1521 176 c 128,-1,66
 1490 223 1490 223 1460 284 c 1,67,68
 1404 411 1404 411 1404 529 c 0,69,70
 1404 668 1404 668 1449 782 c 128,-1,71
 1494 896 1494 896 1585 988 c 1,72,73
 1768 1170 1768 1170 2062 1175 c 1,74,75
 2197 1168 2197 1168 2310 1125.5 c 128,-1,76
 2423 1083 2423 1083 2504 1007 c 1,77,78
 2680 837 2680 837 2680 552 c 2,79,-1
 2680 522 l 2,80,81
 2680 414 2680 414 2656 323.5 c 128,-1,82
 2632 233 2632 233 2582 158 c 1,83,84
 2464 -28 2464 -28 2240 -28 c 0,85,86
 2063 -28 2063 -28 1961 86 c 1,87,88
 1910 146 1910 146 1883.5 217.5 c 128,-1,89
 1857 289 1857 289 1857 377 c 0,90,91
 1857 551 1857 551 1968 666 c 1,92,93
 2076 772 2076 772 2230 772 c 1,94,95
 2345 775 2345 775 2426 730 c 1,96,97
 2481 703 2481 703 2485 699 c 1,98,99
 2482 783 2482 783 2375 895 c 0,100,101
 2319 953 2319 953 2246 983.5 c 128,-1,102
 2173 1014 2173 1014 2084 1014 c 0,17,18
EndSplineSet
EndChar

StartChar: ml_ja
Encoding: 3356 3356 148
Width: 1910
Flags: W
LayerCount: 2
Fore
SplineSet
1065 300 m 1,0,-1
 559 300 l 2,1,2
 473 300 473 300 431.5 265.5 c 128,-1,3
 390 231 390 231 390 184 c 0,4,5
 390 68 390 68 554 68 c 0,6,7
 753 68 753 68 962 157 c 1,8,9
 1099 226 1099 226 1255 300 c 1,10,11
 1243 299 1243 299 1065 300 c 1,0,-1
503 597 m 0,12,13
 613 597 613 597 613 718 c 0,14,15
 613 767 613 767 587.5 794 c 128,-1,16
 562 821 562 821 506 821 c 0,17,18
 447 821 447 821 422.5 792.5 c 128,-1,19
 398 764 398 764 398 721 c 0,20,21
 398 660 398 660 421.5 628.5 c 128,-1,22
 445 597 445 597 503 597 c 0,12,13
1735 167 m 0,23,24
 1735 255 1735 255 1625 255 c 0,25,26
 1519 255 1519 255 1372 168 c 1,27,28
 1407 62 1407 62 1575 62 c 0,29,30
 1735 62 1735 62 1735 167 c 0,23,24
1052 1032 m 1,32,33
 1201 1178 1201 1178 1426 1178 c 1,34,35
 1630 1180 1630 1180 1779 1063 c 128,-1,36
 1928 946 1928 946 1928 757 c 0,37,38
 1928 474 1928 474 1766 407 c 1,39,40
 1774 406 1774 406 1834 350 c 0,41,42
 1913 277 1913 277 1913 150 c 0,43,44
 1913 21 1913 21 1815.5 -50 c 128,-1,45
 1718 -121 1718 -121 1580 -121 c 0,46,47
 1441 -121 1441 -121 1335 -59.5 c 128,-1,48
 1229 2 1229 2 1189 92 c 1,49,50
 987 -10 987 -10 906 -35 c 1,51,52
 730 -104 730 -104 543 -104 c 0,53,54
 381 -104 381 -104 282.5 -37 c 128,-1,55
 184 30 184 30 184 168 c 0,56,57
 184 305 184 305 295 382 c 0,58,59
 344 415 344 415 400 432 c 1,60,61
 479 452 479 452 581 452 c 2,62,-1
 1090 452 l 2,63,64
 1391 452 1391 452 1517 498 c 0,65,66
 1698 563 1698 563 1698 751 c 0,67,68
 1698 871 1698 871 1629.5 940.5 c 128,-1,69
 1561 1010 1561 1010 1423 1012 c 1,70,71
 1297 1010 1297 1010 1225 945.5 c 128,-1,72
 1153 881 1153 881 1153 779 c 2,73,-1
 1153 469 l 1,74,-1
 953 469 l 1,75,-1
 953 721 l 2,76,77
 953 833 953 833 931 874 c 1,78,79
 868 1009 868 1009 658 1012 c 1,80,81
 536 1027 536 1027 441 963 c 1,82,-1
 531 961 l 1,83,84
 581 961 581 961 628.5 946.5 c 128,-1,85
 676 932 676 932 710 905 c 1,86,87
 789 835 789 835 797 735 c 1,88,89
 799 597 799 597 714 523 c 1,90,91
 637 449 637 449 493 449 c 1,92,93
 352 451 352 451 266 545 c 0,94,95
 178 641 178 641 179 785 c 1,96,97
 179 972 179 972 307 1075 c 1,98,99
 365 1126 365 1126 448 1151 c 128,-1,100
 531 1176 531 1176 648 1176 c 0,101,102
 691 1176 691 1176 732 1169 c 1,103,31
 944 1145 944 1145 1052 1032 c 1,32,33
EndSplineSet
EndChar

StartChar: ml_jha
Encoding: 3357 3357 149
Width: 3239
Flags: W
LayerCount: 2
Fore
SplineSet
1046 145 m 0,0,1
 1143 145 1143 145 1192 237 c 0,2,3
 1245 338 1245 338 1245 481 c 0,4,5
 1245 786 1245 786 1054 930 c 1,6,7
 1007 895 1007 895 966 843 c 128,-1,8
 925 791 925 791 898 727 c 0,9,10
 848 604 848 604 848 470 c 0,11,12
 848 337 848 337 896 243 c 1,13,14
 948 145 948 145 1046 145 c 0,0,1
2794 -21 m 1,15,16
 2569 -15 2569 -15 2446 158 c 1,17,18
 2287 -21 2287 -21 2087 -21 c 0,19,20
 1956 -21 1956 -21 1860.5 23.5 c 128,-1,21
 1765 68 1765 68 1705 157 c 1,22,23
 1667 226 1667 226 1646 321.5 c 128,-1,24
 1625 417 1625 417 1625 537 c 0,25,26
 1625 559 1625 559 1625.5 580.5 c 128,-1,27
 1626 602 1626 602 1627 620 c 1,28,-1
 1627 675 l 2,29,30
 1627 1016 1627 1016 1356 1016 c 0,31,32
 1275 1016 1275 1016 1226 998 c 1,33,34
 1207 1010 1207 1010 1232 986.5 c 128,-1,35
 1257 963 1257 963 1283 931 c 1,36,37
 1306 900 1306 900 1330 862 c 128,-1,38
 1354 824 1354 824 1375 786 c 1,39,40
 1410 713 1410 713 1429 634 c 128,-1,41
 1448 555 1448 555 1448 471 c 0,42,43
 1448 462 1448 462 1447.5 454.5 c 128,-1,44
 1447 447 1447 447 1447 439 c 0,45,46
 1440 250 1440 250 1317 115 c 1,47,48
 1195 -17 1195 -17 1040 -17 c 0,49,50
 883 -17 883 -17 762 126 c 1,51,52
 640 273 640 273 640 457 c 0,53,54
 640 546 640 546 664 635 c 128,-1,55
 688 724 688 724 732 805 c 1,56,57
 756 843 756 843 780 876 c 128,-1,58
 804 909 804 909 830 940 c 1,59,60
 882 998 882 998 889 1002 c 1,61,62
 864 1015 864 1015 778 1015 c 0,63,64
 698 1015 698 1015 629 980 c 128,-1,65
 560 945 560 945 508 884 c 0,66,67
 458 826 458 826 431 753 c 128,-1,68
 404 680 404 680 400 594 c 1,69,70
 412 244 412 244 627 141 c 1,71,-1
 690 115 l 1,72,-1
 601 -46 l 1,73,-1
 559 -26 l 1,74,75
 194 164 194 164 197 635 c 1,76,77
 204 746 204 746 253.5 850 c 128,-1,78
 303 954 303 954 382 1024 c 0,79,80
 468 1100 468 1100 565.5 1139.5 c 128,-1,81
 663 1179 663 1179 771 1179 c 0,82,83
 842 1179 842 1179 911 1161 c 128,-1,84
 980 1143 980 1143 1047 1106 c 1,85,86
 1131 1141 1131 1141 1207.5 1158.5 c 128,-1,87
 1284 1176 1284 1176 1353 1176 c 0,88,89
 1837 1176 1837 1176 1837 680 c 0,90,91
 1837 671 1837 671 1836.5 658.5 c 128,-1,92
 1836 646 1836 646 1836 638 c 0,93,94
 1835 611 1835 611 1834.5 571.5 c 128,-1,95
 1834 532 1834 532 1834 475 c 0,96,97
 1834 366 1834 366 1853 297 c 1,98,99
 1872 232 1872 232 1930 188 c 0,100,101
 1992 142 1992 142 2085 142 c 0,102,103
 2132 142 2132 142 2176 164 c 128,-1,104
 2220 186 2220 186 2260 227 c 1,105,106
 2297 268 2297 268 2318.5 304 c 128,-1,107
 2340 340 2340 340 2340 364 c 2,108,-1
 2340 1179 l 1,109,-1
 2549 1179 l 1,110,-1
 2549 362 l 2,111,112
 2549 349 2549 349 2564 320 c 128,-1,113
 2579 291 2579 291 2609 250 c 0,114,115
 2648 198 2648 198 2698 170 c 0,116,117
 2741 145 2741 145 2792 143 c 1,118,119
 2933 143 2933 143 3009 268 c 1,120,121
 3082 403 3082 403 3073 549 c 1,122,123
 3058 899 3058 899 2842 1003 c 1,124,-1
 2779 1027 l 1,125,-1
 2868 1189 l 1,126,-1
 2910 1169 l 1,127,128
 3275 979 3275 979 3276 558 c 1,129,130
 3270 306 3270 306 3141 151 c 1,131,132
 3013 -15 3013 -15 2794 -21 c 1,15,16
EndSplineSet
EndChar

StartChar: ml_nya
Encoding: 3358 3358 150
Width: 2885
Flags: W
LayerCount: 2
Fore
SplineSet
390 381 m 0,0,1
 390 254 390 254 443 178 c 1,2,3
 496 99 496 99 596 99 c 256,4,5
 696 99 696 99 749 172 c 1,6,7
 801 240 801 240 801 355 c 0,8,9
 801 481 801 481 750 547 c 0,10,11
 697 617 697 617 597 617 c 256,12,13
 497 617 497 617 443 546 c 1,14,15
 390 479 390 479 390 381 c 0,0,1
1942 120 m 0,16,17
 2026 120 2026 120 2083 221 c 1,18,19
 2141 327 2141 327 2145 451 c 1,20,21
 2145 576 2145 576 2093 700 c 1,22,23
 2044 823 2044 823 1942 901 c 1,24,-1
 1942 901 l 1,25,26
 1837 812 1837 812 1791 700 c 0,27,28
 1740 576 1740 576 1740 451 c 1,29,30
 1744 327 1744 327 1802 221 c 1,31,32
 1859 120 1859 120 1942 120 c 0,16,17
1581 1009 m 1,33,34
 1486 993 1486 993 1413 943 c 1,35,36
 1323 874 1323 874 1323 796 c 2,37,-1
 1323 -13 l 1,38,-1
 1114 -13 l 1,39,-1
 1115 799 l 2,40,41
 1115 876 1115 876 1022 945 c 0,42,43
 925 1018 925 1018 785 1013 c 1,44,45
 585 1012 585 1012 474 897 c 1,46,47
 368 785 368 785 372 675 c 1,48,49
 396 699 396 699 423 716 c 0,50,51
 467 745 467 745 516 759 c 128,-1,52
 565 773 565 773 620 773 c 0,53,54
 772 773 772 773 881 666 c 1,55,56
 993 553 993 553 993 377 c 0,57,58
 993 177 993 177 888 57 c 1,59,60
 787 -56 787 -56 609 -56 c 0,61,62
 387 -56 387 -56 267 129 c 0,63,64
 170 278 170 278 170 523 c 2,65,-1
 170 552 l 2,66,67
 170 838 170 838 338 1001 c 0,68,69
 510 1169 510 1169 790 1174 c 1,70,71
 872 1173 872 1173 927 1161 c 128,-1,72
 982 1149 982 1149 1030 1132 c 1,73,74
 1101 1098 1101 1098 1151.5 1058 c 128,-1,75
 1202 1018 1202 1018 1226 984 c 1,76,77
 1364 1177 1364 1177 1634 1170 c 1,78,79
 1823 1155 1823 1155 1944 1086 c 1,80,81
 2095 1166 2095 1166 2294 1166 c 0,82,83
 2370 1166 2370 1166 2448.5 1141.5 c 128,-1,84
 2527 1117 2527 1117 2607 1071 c 0,85,86
 2629 1058 2629 1058 2653.5 1040.5 c 128,-1,87
 2678 1023 2678 1023 2680 1022 c 1,88,-1
 2680 1023 l 1,89,90
 2783 929 2783 929 2831 834 c 128,-1,91
 2879 739 2879 739 2892 628 c 0,92,93
 2893 615 2893 615 2894 589 c 1,94,95
 2886 143 2886 143 2530 -44 c 1,96,-1
 2488 -64 l 1,97,-1
 2399 100 l 1,98,-1
 2462 124 l 1,99,100
 2672 228 2672 228 2690 520 c 1,101,102
 2688 553 2688 553 2684 606 c 0,103,104
 2671 753 2671 753 2576 867 c 1,105,106
 2461 1002 2461 1002 2294 1002 c 0,107,108
 2155 1002 2155 1002 2111 979 c 1,109,110
 2352 770 2352 770 2352 457 c 1,111,112
 2332 239 2332 239 2221 101 c 1,113,114
 2095 -43 2095 -43 1938 -43 c 0,115,116
 1790 -43 1790 -43 1663 101 c 1,117,118
 1553 239 1553 239 1532 457 c 1,119,120
 1532 765 1532 765 1775 979 c 1,121,122
 1711 1013 1711 1013 1581 1009 c 1,33,34
EndSplineSet
EndChar

StartChar: ml_tta
Encoding: 3359 3359 151
Width: 1158
Flags: W
LayerCount: 2
Fore
SplineSet
1177 326 m 0,0,1
 1177 225 1177 225 1131 150.5 c 128,-1,2
 1085 76 1085 76 1002 31 c 1,3,4
 938 -1 938 -1 859 -18.5 c 128,-1,5
 780 -36 780 -36 691 -36 c 0,6,7
 634 -36 634 -36 578 -27 c 128,-1,8
 522 -18 522 -18 468 -2 c 0,9,10
 417 14 417 14 373.5 32 c 128,-1,11
 330 50 330 50 301 68 c 256,12,13
 272 86 272 86 242 112.5 c 128,-1,14
 212 139 212 139 170 188 c 1,15,16
 213 236 213 236 240 263.5 c 128,-1,17
 267 291 267 291 300 326 c 1,18,19
 361 233 361 233 476 176 c 1,20,21
 530 153 530 153 583.5 140.5 c 128,-1,22
 637 128 637 128 691 128 c 0,23,24
 993 128 993 128 993 326 c 0,25,26
 993 377 993 377 933 423 c 1,27,28
 850 481 850 481 702 481 c 0,29,30
 212 481 212 481 212 793 c 0,31,32
 212 895 212 895 257.5 974.5 c 128,-1,33
 303 1054 303 1054 386 1106 c 1,34,35
 439 1137 439 1137 513.5 1154.5 c 128,-1,36
 588 1172 588 1172 677 1174 c 1,37,38
 822 1168 822 1168 942.5 1114.5 c 128,-1,39
 1063 1061 1063 1061 1171 935 c 1,40,41
 1117 896 1117 896 1085.5 872 c 128,-1,42
 1054 848 1054 848 1019 818 c 1,43,44
 890 994 890 994 679 994 c 0,45,46
 544 994 544 994 465 928 c 1,47,48
 395 874 395 874 395 793 c 0,49,50
 395 644 395 644 702 644 c 0,51,52
 1177 644 1177 644 1177 326 c 0,0,1
EndSplineSet
EndChar

StartChar: ml_ttha
Encoding: 3360 3360 152
Width: 1367
Flags: W
LayerCount: 2
Fore
SplineSet
1199 995 m 0,0,1
 1376 816 1376 816 1376 552 c 0,2,3
 1376 419 1376 419 1328.5 311 c 128,-1,4
 1281 203 1281 203 1187 121 c 0,5,6
 1095 42 1095 42 992 2 c 128,-1,7
 889 -38 889 -38 774 -38 c 0,8,9
 542 -38 542 -38 359 125 c 0,10,11
 170 293 170 293 170 552 c 0,12,13
 170 812 170 812 356 993 c 0,14,15
 538 1169 538 1169 782 1169 c 0,16,17
 1028 1169 1028 1169 1199 995 c 0,0,1
786 1006 m 0,18,19
 582 1006 582 1006 472 862 c 1,20,21
 377 723 377 723 377 556 c 0,22,23
 377 388 377 388 483 261 c 1,24,25
 599 127 599 127 777 127 c 0,26,27
 950 127 950 127 1065 259 c 1,28,29
 1170 383 1170 383 1170 554 c 0,30,31
 1170 726 1170 726 1066 866 c 256,32,33
 962 1006 962 1006 786 1006 c 0,18,19
EndSplineSet
EndChar

StartChar: ml_dda
Encoding: 3361 3361 153
Width: 2574
Flags: W
LayerCount: 2
Fore
SplineSet
2582 534 m 1,0,1
 2580 440 2580 440 2550 341 c 0,2,3
 2517 235 2517 235 2454 153 c 1,4,5
 2380 66 2380 66 2287.5 22 c 128,-1,6
 2195 -22 2195 -22 2082 -22 c 0,7,8
 1886 -22 1886 -22 1768 171 c 1,9,10
 1649 -21 1649 -21 1421 -21 c 0,11,12
 955 -21 955 -21 955 588 c 0,13,14
 955 795 955 795 898 906 c 1,15,16
 831 1016 831 1016 675 1016 c 1,17,18
 522 999 522 999 455 884 c 1,19,20
 380 766 380 766 380 570 c 1,21,22
 375 232 375 232 687 91 c 1,23,-1
 600 -63 l 1,24,-1
 560 -47 l 1,25,26
 377 30 377 30 273 197 c 0,27,28
 170 364 170 364 170 570 c 0,29,30
 170 852 170 852 320 1013 c 0,31,32
 471 1175 471 1175 721 1174 c 1,33,34
 1163 1155 1163 1155 1163 588 c 0,35,36
 1163 362 1163 362 1203 266 c 1,37,38
 1260 145 1260 145 1424 145 c 0,39,40
 1524 145 1524 145 1596 214 c 0,41,42
 1662 277 1662 277 1662 338 c 2,43,-1
 1662 1166 l 1,44,-1
 1871 1166 l 1,45,-1
 1872 351 l 1,46,47
 1879 280 1879 280 1924 234 c 1,48,49
 1976 145 1976 145 2080 145 c 0,50,51
 2236 145 2236 145 2305 264 c 0,52,53
 2339 324 2339 324 2357 399 c 1,54,55
 2372 469 2372 469 2373 534 c 1,56,-1
 2373 534 l 1,57,58
 2378 896 2378 896 2067 1035 c 1,59,-1
 2154 1190 l 1,60,-1
 2193 1174 l 2,61,62
 2376 1098 2376 1098 2480 931 c 1,63,64
 2583 763 2583 763 2583 534 c 1,65,-1
 2582 534 l 1,0,1
EndSplineSet
EndChar

StartChar: ml_ddha
Encoding: 3362 3362 154
Width: 2795
Flags: W
LayerCount: 2
Fore
SplineSet
2583 775 m 0,0,1
 2583 823 2583 823 2569.5 867.5 c 128,-1,2
 2556 912 2556 912 2529 949 c 1,3,4
 2504 985 2504 985 2465 1006 c 128,-1,5
 2426 1027 2426 1027 2374 1027 c 0,6,7
 2274 1027 2274 1027 2221 956 c 1,8,9
 2170 884 2170 884 2170 781 c 0,10,11
 2170 680 2170 680 2221 610 c 1,12,13
 2272 542 2272 542 2373 542 c 0,14,15
 2476 542 2476 542 2529 611 c 1,16,17
 2583 679 2583 679 2583 775 c 0,0,1
2207 132 m 1,18,19
 2389 141 2389 141 2501 257 c 0,20,21
 2607 367 2607 367 2610 470 c 1,22,23
 2501 380 2501 380 2360 380 c 2,24,-1
 2355 380 l 2,25,26
 2205 380 2205 380 2092 487 c 1,27,28
 1981 599 1981 599 1981 774 c 0,29,30
 1981 948 1981 948 2085 1066 c 0,31,32
 2187 1183 2187 1183 2366 1183 c 0,33,34
 2473 1183 2473 1183 2560 1133.5 c 128,-1,35
 2647 1084 2647 1084 2708 997 c 1,36,37
 2755 921 2755 921 2779.5 828 c 128,-1,38
 2804 735 2804 735 2804 629 c 2,39,-1
 2804 601 l 2,40,41
 2804 312 2804 312 2628 141 c 1,42,43
 2457 -27 2457 -27 2169 -27 c 1,44,45
 1886 -22 1886 -22 1768 171 c 1,46,47
 1649 -21 1649 -21 1421 -21 c 0,48,49
 955 -21 955 -21 955 588 c 0,50,51
 955 795 955 795 898 906 c 1,52,53
 831 1016 831 1016 675 1016 c 1,54,55
 522 999 522 999 455 884 c 1,56,57
 380 766 380 766 380 570 c 2,58,-1
 380 558 l 2,59,60
 380 230 380 230 687 91 c 1,61,-1
 600 -63 l 1,62,-1
 560 -47 l 1,63,64
 377 30 377 30 273 197 c 0,65,66
 170 364 170 364 170 570 c 0,67,68
 170 852 170 852 320 1013 c 256,69,70
 470 1174 470 1174 718 1174 c 2,71,-1
 721 1174 l 1,72,73
 1163 1155 1163 1155 1163 588 c 0,74,75
 1163 362 1163 362 1203 266 c 1,76,77
 1260 145 1260 145 1424 145 c 0,78,79
 1524 145 1524 145 1596 214 c 0,80,81
 1662 277 1662 277 1662 338 c 2,82,-1
 1662 1166 l 1,83,-1
 1871 1166 l 1,84,-1
 1872 349 l 2,85,86
 1872 282 1872 282 1934 215 c 1,87,88
 2036 132 2036 132 2194 132 c 2,89,-1
 2207 132 l 1,18,19
EndSplineSet
EndChar

StartChar: ml_nna
Encoding: 3363 3363 155
Width: 2835
Flags: W
LayerCount: 2
Fore
SplineSet
390 361 m 0,0,1
 390 263 390 263 443 186 c 0,2,3
 496 108 496 108 597 108 c 0,4,5
 697 108 697 108 750 181 c 1,6,7
 802 249 802 249 802 354 c 0,8,9
 802 479 802 479 751 544 c 1,10,11
 698 614 698 614 597 614 c 0,12,13
 499 614 499 614 443 543 c 0,14,15
 390 477 390 477 390 361 c 0,0,1
2589 872 m 1,17,18
 2558 933 2558 933 2502 970.5 c 128,-1,19
 2446 1008 2446 1008 2336 1008 c 0,20,21
 2200 1008 2200 1008 2130 924 c 0,22,23
 2063 843 2063 843 2063 732 c 2,24,-1
 2063 -18 l 1,25,-1
 1852 -18 l 1,26,-1
 1852 732 l 2,27,28
 1852 844 1852 844 1800 921 c 1,29,30
 1746 1006 1746 1006 1621 1008 c 0,31,32
 1501 1010 1501 1010 1431 945 c 1,33,34
 1345 872 1345 872 1345 780 c 2,35,-1
 1345 -18 l 1,36,-1
 1135 -18 l 1,37,-1
 1135 811 l 2,38,39
 1135 862 1135 862 1059 926 c 1,40,41
 978 996 978 996 823 1010 c 1,42,43
 586 1008 586 1008 475 892 c 0,44,45
 368 781 368 781 376 679 c 1,46,47
 383 688 383 688 424 713 c 0,48,49
 513 769 513 769 621 769 c 0,50,51
 772 769 772 769 881 663 c 1,52,53
 993 550 993 550 993 358 c 0,54,55
 993 186 993 186 888 66 c 1,56,57
 787 -47 787 -47 610 -47 c 0,58,59
 388 -47 388 -47 268 138 c 1,60,61
 170 286 170 286 170 519 c 2,62,-1
 170 550 l 2,63,64
 170 836 170 836 346 1003 c 0,65,66
 434 1086 434 1086 553.5 1128 c 128,-1,67
 673 1170 673 1170 813 1172 c 1,68,69
 957 1165 957 1165 1058 1118.5 c 128,-1,70
 1159 1072 1159 1072 1238 983 c 1,71,72
 1381 1171 1381 1171 1609 1169 c 0,73,74
 1845 1167 1845 1167 1957 994 c 1,75,76
 2080 1169 2080 1169 2345 1169 c 0,77,78
 2620 1169 2620 1169 2754 961 c 1,79,80
 2845 816 2845 816 2845 571 c 0,81,82
 2845 366 2845 366 2741 201 c 256,83,84
 2637 36 2637 36 2415 -56 c 1,85,-1
 2328 97 l 1,86,87
 2639 236 2639 236 2644 587 c 1,88,16
 2637 763 2637 763 2589 872 c 1,17,18
EndSplineSet
EndChar

StartChar: ml_ta
Encoding: 3364 3364 156
Width: 2062
Flags: W
LayerCount: 2
Fore
SplineSet
1119 124 m 256,0,1
 1203 124 1203 124 1259 226 c 0,2,3
 1318 332 1318 332 1322 455 c 1,4,5
 1322 581 1322 581 1270 705 c 1,6,7
 1220 828 1220 828 1119 905 c 1,8,-1
 1119 905 l 1,9,10
 1014 817 1014 817 968 705 c 0,11,12
 917 581 917 581 917 455 c 1,13,14
 921 332 921 332 979 226 c 0,15,16
 1035 124 1035 124 1119 124 c 256,0,1
1115 -39 m 0,17,18
 967 -39 967 -39 840 105 c 1,19,20
 730 244 730 244 709 462 c 1,21,22
 703 781 703 781 949 983 c 1,23,24
 896 1006 896 1006 762 1007 c 1,25,26
 587 986 587 986 488 870 c 1,27,28
 403 764 403 764 380 605 c 0,29,30
 376 578 376 578 374 530 c 1,31,32
 392 234 392 234 602 129 c 1,33,-1
 665 105 l 1,34,-1
 576 -60 l 1,35,-1
 534 -41 l 1,36,37
 179 150 179 150 170 590 c 0,38,39
 170 605 170 605 173 630 c 0,40,41
 187 744 187 744 233 838 c 0,42,43
 281 934 281 934 384 1028 c 1,44,-1
 384 1028 l 1,45,46
 518 1155 518 1155 770 1173 c 1,47,48
 985 1170 985 1170 1121 1091 c 1,49,50
 1272 1171 1272 1171 1471 1171 c 0,51,52
 1545 1171 1545 1171 1624 1150 c 1,53,54
 1762 1111 1762 1111 1875 1011 c 1,55,56
 1960 934 1960 934 2008 839 c 0,57,58
 2060 738 2060 738 2068 633 c 0,59,60
 2069 620 2069 620 2071 595 c 1,61,62
 2063 148 2063 148 1707 -40 c 1,63,-1
 1665 -59 l 1,64,-1
 1576 105 l 1,65,-1
 1639 129 l 1,66,67
 1847 232 1847 232 1866 537 c 1,68,69
 1865 585 1865 585 1862 606 c 1,70,71
 1848 755 1848 755 1753 871 c 1,72,73
 1638 1007 1638 1007 1471 1007 c 0,74,75
 1332 1007 1332 1007 1289 985 c 1,76,77
 1539 782 1539 782 1529 462 c 1,78,79
 1509 244 1509 244 1398 105 c 1,80,81
 1271 -39 1271 -39 1115 -39 c 0,17,18
EndSplineSet
EndChar

StartChar: ml_tha
Encoding: 3365 3365 157
Width: 1824
Flags: W
LayerCount: 2
Fore
SplineSet
1622 161 m 1,0,-1
 1622 730 l 2,1,2
 1622 847 1622 847 1557 930 c 0,3,4
 1496 1007 1496 1007 1341 1007 c 0,5,6
 1187 1007 1187 1007 1112 924 c 1,7,8
 1041 843 1041 843 1041 730 c 2,9,-1
 1041 161 l 1,10,-1
 1622 161 l 1,0,-1
170 -20 m 1,11,-1
 170 1178 l 1,12,-1
 380 1178 l 1,13,-1
 380 146 l 1,14,-1
 829 145 l 1,15,-1
 829 730 l 2,16,17
 829 939 829 939 973 1065 c 0,18,19
 1111 1185 1111 1185 1329 1185 c 0,20,21
 1468 1185 1468 1185 1571 1132 c 128,-1,22
 1674 1079 1674 1079 1736 980 c 1,23,24
 1778 902 1778 902 1801.5 814.5 c 128,-1,25
 1825 727 1825 727 1825 638 c 0,26,27
 1824 478 1824 478 1823 322 c 128,-1,28
 1822 166 1822 166 1821 -17 c 1,29,-1
 170 -20 l 1,11,-1
EndSplineSet
EndChar

StartChar: ml_da
Encoding: 3366 3366 158
Width: 1408
Flags: W
LayerCount: 2
Fore
SplineSet
795 1173 m 1,0,1
 1066 1173 1066 1173 1198 1091 c 1,2,3
 1390 982 1390 982 1390 800 c 2,4,-1
 1390 795 l 2,5,6
 1390 620 1390 620 1299 568 c 1,7,8
 1291 573 1291 573 1317.5 548 c 128,-1,9
 1344 523 1344 523 1367 489 c 1,10,11
 1417 419 1417 419 1417 315 c 0,12,13
 1417 121 1417 121 1269 34 c 1,14,15
 1159 -33 1159 -33 987 -33 c 0,16,17
 902 -33 902 -33 835 -23 c 0,18,19
 815 -20 815 -20 780 -14 c 1,20,-1
 778 195 l 1,21,22
 829 157 829 157 884.5 140 c 128,-1,23
 940 123 940 123 967 123 c 0,24,25
 1025 123 1025 123 1070.5 134.5 c 128,-1,26
 1116 146 1116 146 1151 170 c 1,27,28
 1215 211 1215 211 1215 304 c 0,29,30
 1215 388 1215 388 1158 428 c 1,31,32
 1125 448 1125 448 1066 460 c 128,-1,33
 1007 472 1007 472 924 472 c 2,34,-1
 804 472 l 1,35,-1
 804 666 l 1,36,-1
 933 665 l 1,37,38
 1006 666 1006 666 1056 674.5 c 128,-1,39
 1106 683 1106 683 1135 700 c 128,-1,40
 1164 717 1164 717 1175 739 c 128,-1,41
 1186 761 1186 761 1186 793 c 0,42,43
 1186 902 1186 902 1094 960 c 1,44,45
 1022 1010 1022 1010 795 1012 c 1,46,47
 605 1009 605 1009 493 876 c 1,48,49
 376 742 376 742 373 559 c 1,50,-1
 373 552 l 2,51,52
 373 265 373 265 501 52 c 1,53,-1
 340 -68 l 1,54,55
 170 192 170 192 170 563 c 0,56,57
 170 829 170 829 349 1000 c 1,58,59
 519 1165 519 1165 795 1173 c 1,0,1
EndSplineSet
EndChar

StartChar: ml_na
Encoding: 3368 3368 160
Width: 2064
Flags: W
LayerCount: 2
Fore
SplineSet
1215 752 m 1,0,1
 1215 756 1215 756 1215 695 c 2,2,-1
 1214 -19 l 1,3,-1
 1027 -19 l 1,4,-1
 1027 695 l 2,5,6
 1027 756 1027 756 1022.5 795.5 c 128,-1,7
 1018 835 1018 835 1010 854 c 0,8,9
 949 996 949 996 743 1011 c 1,10,11
 572 987 572 987 477 872 c 1,12,13
 393 766 393 766 373 611 c 0,14,15
 368 566 368 566 368 528 c 1,16,17
 384 234 384 234 587 130 c 1,18,-1
 658 96 l 1,19,-1
 585 -61 l 1,20,-1
 520 -38 l 1,21,22
 179 151 179 151 170 586 c 1,23,24
 171 617 171 617 173 636 c 0,25,26
 185 746 185 746 231 841 c 128,-1,27
 277 936 277 936 377 1029 c 1,28,-1
 377 1028 l 1,29,30
 379 1029 379 1029 402 1046 c 128,-1,31
 425 1063 425 1063 447 1077 c 0,32,33
 524 1124 524 1124 599.5 1148 c 128,-1,34
 675 1172 675 1172 751 1172 c 0,35,36
 970 1172 970 1172 1122 1025 c 1,37,38
 1273 1177 1273 1177 1493 1177 c 0,39,40
 1568 1177 1568 1177 1643.5 1153 c 128,-1,41
 1719 1129 1719 1129 1796 1082 c 0,42,43
 1819 1067 1819 1067 1841.5 1050.5 c 128,-1,44
 1864 1034 1864 1034 1866 1033 c 1,45,-1
 1866 1034 l 1,46,47
 1966 941 1966 941 2012 847 c 0,48,49
 2060 748 2060 748 2070 630 c 0,50,51
 2071 617 2071 617 2073 592 c 1,52,53
 2065 156 2065 156 1723 -32 c 1,54,-1
 1672 -56 l 1,55,-1
 1586 99 l 1,56,-1
 1657 135 l 2,57,58
 1859 238 1859 238 1876 533 c 1,59,60
 1876 579 1876 579 1872 604 c 0,61,62
 1849 773 1849 773 1767 877 c 1,63,64
 1671 1006 1671 1006 1482 1016 c 1,65,66
 1315 1016 1315 1016 1235 861 c 1,67,68
 1231 840 1231 840 1221 798 c 1,69,70
 1221 798 1221 798 1221 739 c 1,71,-1
 1215 752 l 1,0,1
EndSplineSet
EndChar

StartChar: ml_nnna
Encoding: 3369 3369 161
Width: 2244
Flags: W
LayerCount: 2
Fore
SplineSet
390 384 m 0,0,1
 390 258 390 258 443 183 c 1,2,3
 496 105 496 105 596 105 c 256,4,5
 696 105 696 105 749 177 c 1,6,7
 801 244 801 244 801 358 c 0,8,9
 801 482 801 482 750 548 c 0,10,11
 697 617 697 617 597 617 c 0,12,13
 496 617 496 617 443 547 c 1,14,15
 390 481 390 481 390 384 c 0,0,1
1640 1014 m 1,16,17
 1507 1009 1507 1009 1413 943 c 1,18,19
 1323 874 1323 874 1323 796 c 2,20,-1
 1323 -13 l 1,21,-1
 1114 -13 l 1,22,-1
 1115 799 l 2,23,24
 1115 876 1115 876 1022 945 c 0,25,26
 925 1018 925 1018 785 1013 c 1,27,28
 585 1012 585 1012 474 897 c 1,29,30
 368 785 368 785 372 675 c 1,31,32
 396 699 396 699 423 716 c 0,33,34
 467 745 467 745 516 759 c 128,-1,35
 565 773 565 773 620 773 c 0,36,37
 772 773 772 773 881 666 c 1,38,39
 993 553 993 553 993 377 c 0,40,41
 993 177 993 177 888 57 c 1,42,43
 787 -56 787 -56 609 -56 c 0,44,45
 387 -56 387 -56 267 129 c 0,46,47
 170 278 170 278 170 523 c 2,48,-1
 170 552 l 2,49,50
 170 838 170 838 338 1001 c 0,51,52
 510 1169 510 1169 790 1174 c 1,53,54
 872 1173 872 1173 927 1161 c 128,-1,55
 982 1149 982 1149 1030 1132 c 1,56,57
 1101 1098 1101 1098 1151.5 1058 c 128,-1,58
 1202 1018 1202 1018 1226 984 c 1,59,60
 1364 1177 1364 1177 1639 1177 c 1,61,62
 1728 1175 1728 1175 1806.5 1151 c 128,-1,63
 1885 1127 1885 1127 1965 1080 c 0,64,65
 1987 1066 1987 1066 2011.5 1049 c 128,-1,66
 2036 1032 2036 1032 2039 1030 c 1,67,-1
 2039 1033 l 1,68,69
 2141 940 2141 940 2189 844.5 c 128,-1,70
 2237 749 2237 749 2250 629 c 0,71,72
 2251 616 2251 616 2253 571 c 1,73,74
 2244 136 2244 136 1889 -50 c 1,75,-1
 1847 -71 l 1,76,-1
 1757 93 l 1,77,-1
 1820 117 l 1,78,79
 2031 220 2031 220 2048 511 c 1,80,81
 2046 545 2046 545 2042 608 c 1,82,83
 2029 761 2029 761 1934 876 c 1,84,85
 1835 1003 1835 1003 1640 1014 c 1,16,17
EndSplineSet
EndChar

StartChar: ml_pa
Encoding: 3370 3370 162
Width: 1925
Flags: W
LayerCount: 2
Fore
SplineSet
919 144 m 1,0,-1
 1712 144 l 1,1,-1
 1712 1170 l 1,2,-1
 1920 1170 l 1,3,-1
 1920 -20 l 1,4,-1
 647 -19 l 1,5,-1
 607 104 l 1,6,-1
 645 126 l 1,7,8
 782 197 782 197 779 373 c 1,9,10
 779 478 779 478 729.5 541 c 128,-1,11
 680 604 680 604 581 609 c 1,12,13
 477 609 477 609 426 545 c 128,-1,14
 375 481 375 481 375 379 c 0,15,16
 375 186 375 186 504 127 c 1,17,-1
 557 108 l 1,18,-1
 496 -32 l 1,19,-1
 442 -14 l 1,20,21
 316 30 316 30 243 120 c 128,-1,22
 170 210 170 210 170 385 c 256,23,24
 170 560 170 560 289 663.5 c 128,-1,25
 408 767 408 767 582 767 c 256,26,27
 756 767 756 767 871.5 663.5 c 128,-1,28
 987 560 987 560 987 386 c 0,29,30
 987 217 987 217 919 144 c 1,0,-1
EndSplineSet
EndChar

StartChar: ml_pha
Encoding: 3371 3371 163
Width: 2484
Flags: W
LayerCount: 2
Fore
SplineSet
2279 163 m 1,0,-1
 2279 733 l 2,1,2
 2279 788 2279 788 2260.5 838.5 c 128,-1,3
 2242 889 2242 889 2211 927 c 1,4,5
 2177 965 2177 965 2118 987 c 128,-1,6
 2059 1009 2059 1009 1977 1009 c 0,7,8
 1815 1009 1815 1009 1733 926 c 1,9,10
 1695 885 1695 885 1676 837.5 c 128,-1,11
 1657 790 1657 790 1657 733 c 2,12,-1
 1657 163 l 1,13,-1
 2279 163 l 1,0,-1
1446 145 m 1,14,-1
 1446 730 l 2,15,16
 1446 940 1446 940 1595 1064 c 0,17,18
 1740 1185 1740 1185 1968 1185 c 0,19,20
 2114 1185 2114 1185 2220.5 1133.5 c 128,-1,21
 2327 1082 2327 1082 2391 981 c 1,22,23
 2437 901 2437 901 2461 815 c 128,-1,24
 2485 729 2485 729 2485 638 c 0,25,26
 2484 478 2484 478 2482.5 322 c 128,-1,27
 2481 166 2481 166 2480 -17 c 1,28,-1
 647 -19 l 1,29,-1
 607 104 l 1,30,-1
 645 126 l 1,31,32
 782 197 782 197 779 373 c 1,33,34
 779 478 779 478 729.5 541 c 128,-1,35
 680 604 680 604 581 609 c 1,36,37
 477 609 477 609 426 545 c 128,-1,38
 375 481 375 481 375 379 c 0,39,40
 375 186 375 186 504 127 c 1,41,-1
 557 108 l 1,42,-1
 496 -32 l 1,43,-1
 442 -14 l 1,44,45
 316 30 316 30 243 120 c 128,-1,46
 170 210 170 210 170 385 c 256,47,48
 170 560 170 560 289 663.5 c 128,-1,49
 408 767 408 767 582 767 c 256,50,51
 756 767 756 767 871.5 663.5 c 128,-1,52
 987 560 987 560 987 386 c 0,53,54
 987 217 987 217 919 144 c 1,55,-1
 1446 145 l 1,14,-1
EndSplineSet
EndChar

StartChar: ml_ba
Encoding: 3372 3372 164
Width: 2645
Flags: W
LayerCount: 2
Fore
SplineSet
597 618 m 0,0,1
 498 618 498 618 442 547 c 0,2,3
 389 480 389 480 389 382 c 0,4,5
 389 282 389 282 442 206 c 1,6,7
 495 128 495 128 597 128 c 0,8,9
 696 128 696 128 749 201 c 1,10,11
 801 269 801 269 801 374 c 0,12,13
 801 481 801 481 750 548 c 0,14,15
 697 618 697 618 597 618 c 0,0,1
1190 984 m 1,16,17
 1341 1183 1341 1183 1552 1178 c 1,18,19
 1764 1178 1764 1178 1902 1024 c 1,20,21
 2040 864 2040 864 2040 595 c 0,22,23
 2040 435 2040 435 1982 310 c 128,-1,24
 1924 185 1924 185 1866 143 c 1,25,-1
 2435 143 l 1,26,-1
 2435 1168 l 1,27,-1
 2646 1168 l 1,28,-1
 2646 -19 l 1,29,-1
 1613 -19 l 1,30,-1
 1573 133 l 1,31,32
 1829 275 1829 275 1829 595 c 0,33,34
 1829 894 1829 894 1681 983 c 0,35,36
 1631 1013 1631 1013 1550 1013 c 1,37,38
 1447 1004 1447 1004 1379 940 c 1,39,40
 1302 874 1302 874 1293 745 c 1,41,42
 1293 561 1293 561 1293.5 375 c 128,-1,43
 1294 189 1294 189 1294 -20 c 1,44,-1
 1084 -20 l 1,45,-1
 1086 744 l 2,46,47
 1086 795 1086 795 1062.5 842 c 128,-1,48
 1039 889 1039 889 995 930 c 1,49,50
 901 1013 901 1013 764 1019 c 1,51,52
 579 1008 579 1008 472 896 c 1,53,54
 368 785 368 785 373 684 c 1,55,56
 405 711 405 711 440 733 c 1,57,58
 476 752 476 752 521.5 763 c 128,-1,59
 567 774 567 774 620 774 c 0,60,61
 771 774 771 774 880 667 c 1,62,63
 992 554 992 554 992 378 c 0,64,65
 992 206 992 206 888 87 c 0,66,67
 787 -28 787 -28 609 -28 c 0,68,69
 387 -28 387 -28 267 159 c 1,70,71
 170 306 170 306 170 524 c 2,72,-1
 170 553 l 2,73,74
 170 840 170 840 343 1008 c 0,75,76
 512 1173 512 1173 772 1178 c 1,77,78
 830 1178 830 1178 886.5 1164.5 c 128,-1,79
 943 1151 943 1151 1002 1126 c 1,80,81
 1119 1071 1119 1071 1190 984 c 1,16,17
EndSplineSet
EndChar

StartChar: ml_bha
Encoding: 3373 3373 165
Width: 1429
Flags: W
LayerCount: 2
Fore
SplineSet
845 1180 m 1,0,-1
 850 1180 l 2,1,2
 1064 1180 1064 1180 1217 1103 c 0,3,4
 1411 1006 1411 1006 1411 835 c 2,5,-1
 1411 818 l 1,6,7
 1408 706 1408 706 1339 658 c 1,8,9
 1275 615 1275 615 1202 615 c 2,10,-1
 1187 615 l 2,11,12
 1142 615 1142 615 1078 628 c 1,13,14
 1016 643 1016 643 967 643 c 0,15,16
 920 643 920 643 895 626 c 1,17,18
 875 609 875 609 874 539 c 1,19,20
 875 516 875 516 889 501 c 128,-1,21
 903 486 903 486 944 486 c 0,22,23
 988 486 988 486 1051 508 c 1,24,25
 1083 518 1083 518 1115.5 523 c 128,-1,26
 1148 528 1148 528 1177 528 c 0,27,28
 1280 528 1280 528 1356 463 c 0,29,30
 1438 392 1438 392 1438 266 c 0,31,32
 1438 -52 1438 -52 1003 -52 c 0,33,34
 902 -52 902 -52 741 -22 c 1,35,-1
 790 194 l 1,36,37
 903 121 903 121 1035 113 c 1,38,-1
 1043 113 l 2,39,40
 1121 113 1121 113 1188 152 c 1,41,42
 1246 191 1246 191 1246 252 c 0,43,44
 1246 284 1246 284 1215 317 c 0,45,46
 1181 352 1181 352 1135 352 c 0,47,48
 1109 352 1109 352 1083 346 c 128,-1,49
 1057 340 1057 340 1028 328 c 0,50,51
 965 303 965 303 911 303 c 1,52,53
 808 306 808 306 748 362.5 c 128,-1,54
 688 419 688 419 688 533 c 2,55,-1
 688 548 l 2,56,57
 688 710 688 710 754 767 c 1,58,59
 819 821 819 821 896 821 c 2,60,-1
 899 821 l 1,61,62
 978 819 978 819 1034 803 c 0,63,64
 1066 794 1066 794 1089.5 789.5 c 128,-1,65
 1113 785 1113 785 1135 785 c 0,66,67
 1173 785 1173 785 1197 807 c 1,68,69
 1216 823 1216 823 1216 844 c 0,70,71
 1216 874 1216 874 1191.5 902.5 c 128,-1,72
 1167 931 1167 931 1114 961 c 1,73,74
 1000 1015 1000 1015 855 1015 c 0,75,76
 831 1015 831 1015 803 1014 c 0,77,78
 613 1003 613 1003 492 876 c 1,79,80
 376 742 376 742 373 559 c 1,81,-1
 373 552 l 2,82,83
 373 250 373 250 523 52 c 1,84,-1
 378 -66 l 1,85,86
 170 190 170 190 170 563 c 0,87,88
 170 829 170 829 349 1000 c 1,89,90
 519 1165 519 1165 845 1180 c 1,0,-1
EndSplineSet
EndChar

StartChar: ml_ma
Encoding: 3374 3374 166
Width: 1277
Flags: W
LayerCount: 2
Fore
SplineSet
1286 -13 m 1,0,-1
 170 -13 l 1,1,2
 170 75 170 75 171 324.5 c 128,-1,3
 172 574 172 574 172 642 c 1,4,5
 179 759 179 759 226 862 c 128,-1,6
 273 965 273 965 346 1037 c 1,7,8
 424 1103 424 1103 528 1141.5 c 128,-1,9
 632 1180 632 1180 752 1180 c 0,10,11
 876 1180 876 1180 974.5 1141.5 c 128,-1,12
 1073 1103 1073 1103 1151 1028 c 1,13,14
 1236 944 1236 944 1264 841 c 1,15,16
 1289 744 1289 744 1286 629 c 1,17,-1
 1286 -13 l 1,0,-1
1110 161 m 1,18,-1
 1110 327 l 2,19,20
 1110 387 1110 387 1109.5 453.5 c 128,-1,21
 1109 520 1109 520 1108 595 c 1,22,-1
 1108 629 l 1,23,24
 1107 789 1107 789 1055 864 c 1,25,26
 999 942 999 942 918 980.5 c 128,-1,27
 837 1019 837 1019 726 1019 c 1,28,29
 597 1011 597 1011 511 954 c 1,30,31
 429 901 429 901 424 887 c 1,32,33
 486 935 486 935 611 935 c 0,34,35
 759 935 759 935 853 839 c 0,36,37
 900 790 900 790 924.5 722.5 c 128,-1,38
 949 655 949 655 951 577 c 1,39,40
 939 450 939 450 869 335.5 c 128,-1,41
 799 221 799 221 724 161 c 1,42,-1
 1110 161 l 1,18,-1
443 161 m 1,43,44
 554 237 554 237 658 356 c 1,45,46
 708 417 708 417 732.5 470 c 128,-1,47
 757 523 757 523 757 573 c 0,48,49
 757 780 757 780 601 784 c 1,50,-1
 594 784 l 2,51,52
 510 784 510 784 442 715 c 1,53,54
 371 646 371 646 361 577 c 1,55,-1
 361 161 l 1,56,-1
 443 161 l 1,43,44
EndSplineSet
EndChar

StartChar: ml_ya
Encoding: 3375 3375 167
Width: 2159
Flags: W
LayerCount: 2
Fore
SplineSet
1403 370 m 0,0,1
 1481 489 1481 489 1481 650 c 0,2,3
 1481 807 1481 807 1400 923 c 0,4,5
 1334 1016 1334 1016 1220 1016 c 0,6,7
 1107 1016 1107 1016 1031 907 c 1,8,9
 956 797 956 797 956 642 c 0,10,11
 956 560 956 560 970.5 491.5 c 128,-1,12
 985 423 985 423 1011 363 c 1,13,14
 1068 247 1068 247 1177 186 c 1,15,16
 1253 221 1253 221 1309.5 267 c 128,-1,17
 1366 313 1366 313 1403 370 c 0,0,1
1424 -41 m 1,18,19
 1289 -34 1289 -34 1174 14 c 1,20,21
 1041 -34 1041 -34 892 -34 c 0,22,23
 741 -34 741 -34 608 23 c 128,-1,24
 475 80 475 80 369 189 c 1,25,26
 325 238 325 238 289 295 c 128,-1,27
 253 352 253 352 226 413.5 c 128,-1,28
 199 475 199 475 184.5 541 c 128,-1,29
 170 607 170 607 170 674 c 0,30,31
 170 951 170 951 337 1104 c 1,32,-1
 337 1102 l 1,33,34
 429 1181 429 1181 568 1181 c 0,35,36
 642 1181 642 1181 724 1122 c 1,37,38
 803 1068 803 1068 854 994 c 1,39,40
 872 1023 872 1023 919 1063 c 128,-1,41
 966 1103 966 1103 1017 1127 c 1,42,43
 1067 1154 1067 1154 1120.5 1167.5 c 128,-1,44
 1174 1181 1174 1181 1226 1181 c 0,45,46
 1313 1181 1313 1181 1390.5 1147.5 c 128,-1,47
 1468 1114 1468 1114 1535 1048 c 1,48,49
 1689 902 1689 902 1689 639 c 0,50,51
 1689 459 1689 459 1563 290 c 1,52,53
 1513 225 1513 225 1451 171 c 0,54,55
 1424 148 1424 148 1468.5 184 c 128,-1,56
 1513 220 1513 220 1364 132 c 1,57,58
 1431 111 1431 111 1523 110 c 0,59,60
 1544 110 1544 110 1578 113 c 0,61,62
 1772 132 1772 132 1865 265 c 128,-1,63
 1958 398 1958 398 1958 610 c 0,64,65
 1958 726 1958 726 1905 839 c 128,-1,66
 1852 952 1852 952 1768 1015 c 1,67,68
 1744 1028 1744 1028 1706 1052 c 1,69,-1
 1810 1208 l 1,70,-1
 1854 1180 l 1,71,72
 2167 966 2167 966 2168 604 c 0,73,74
 2168 316 2168 316 2012 139.5 c 128,-1,75
 1856 -37 1856 -37 1578 -43 c 1,76,77
 1508 -43 1508 -43 1424 -41 c 1,18,19
747 648 m 0,78,79
 747 727 747 727 764 796 c 1,80,81
 706 974 706 974 562 989 c 1,82,83
 492 1001 492 1001 444 938 c 0,84,85
 379 852 379 852 379 664 c 256,86,87
 379 476 379 476 501 316 c 1,88,89
 651 133 651 133 903 133 c 0,90,91
 989 133 989 133 1011 141 c 1,92,93
 870 233 870 233 914 194 c 128,-1,94
 958 155 958 155 933 182 c 1,95,96
 907 208 907 208 885 240.5 c 128,-1,97
 863 273 863 273 841 309 c 1,98,99
 795 390 795 390 771 474.5 c 128,-1,100
 747 559 747 559 747 648 c 0,78,79
EndSplineSet
EndChar

StartChar: ml_ra
Encoding: 3376 3376 168
Width: 1499
Flags: W
LayerCount: 2
Fore
SplineSet
1292 439 m 0,0,1
 1292 702 1292 702 1096 701 c 1,2,-1
 1091 701 l 1,3,4
 988 696 988 696 939 621 c 1,5,6
 916 583 916 583 903 534.5 c 128,-1,7
 890 486 890 486 889 403 c 1,8,9
 889 283 889 283 936 201 c 1,10,11
 984 120 984 120 1093 119 c 1,12,13
 1147 121 1147 121 1186 148 c 128,-1,14
 1225 175 1225 175 1250 223 c 0,15,16
 1270 261 1270 261 1281 311 c 128,-1,17
 1292 361 1292 361 1292 439 c 0,0,1
491 870.5 m 128,-1,19
 371 738 371 738 371 536 c 0,20,21
 371 277 371 277 537 123 c 1,22,-1
 581 84 l 1,23,-1
 489 -63 l 1,24,-1
 445 -30 l 1,25,26
 170 196 170 196 170 544 c 0,27,28
 170 818 170 818 351 996 c 0,29,30
 526 1168 526 1168 835 1177 c 1,31,32
 1088 1177 1088 1177 1252 1068 c 1,33,34
 1420 960 1420 960 1477 769 c 1,35,36
 1509 667 1509 667 1509 488 c 0,37,38
 1509 284 1509 284 1399 120 c 1,39,40
 1286 -35 1286 -35 1093 -35 c 0,41,42
 999 -35 999 -35 923.5 -3 c 128,-1,43
 848 29 848 29 791 92 c 1,44,45
 740 155 740 155 710 235 c 128,-1,46
 680 315 680 315 680 409 c 0,47,48
 680 615 680 615 792 740 c 0,49,50
 902 862 902 862 1051 862 c 0,51,52
 1197 862 1197 862 1251 830 c 1,53,54
 1232 879 1232 879 1141 938 c 1,55,56
 1033 1010 1033 1010 849 1010 c 1,57,18
 611 1003 611 1003 491 870.5 c 128,-1,19
EndSplineSet
EndChar

StartChar: ml_rra
Encoding: 3377 3377 169
Width: 1386
Flags: W
LayerCount: 2
Fore
SplineSet
1396 589 m 1,0,1
 1390 327 1390 327 1268 165 c 128,-1,2
 1146 3 1146 3 980 -53 c 1,3,-1
 932 -73 l 1,4,-1
 875 93 l 1,5,-1
 933 114 l 2,6,7
 1049 157 1049 157 1114.5 276.5 c 128,-1,8
 1180 396 1180 396 1180 569 c 1,9,-1
 1179 575 l 1,10,11
 1179 760 1179 760 1080.5 885.5 c 128,-1,12
 982 1011 982 1011 780 1012 c 0,13,14
 587 1012 587 1012 477 872 c 1,15,16
 386 753 386 753 386 588 c 0,17,18
 386 405 386 405 451.5 281.5 c 128,-1,19
 517 158 517 158 637 114 c 1,20,-1
 698 93 l 1,21,-1
 632 -73 l 1,22,-1
 590 -53 l 1,23,24
 410 22 410 22 290 181.5 c 128,-1,25
 170 341 170 341 170 552 c 2,26,-1
 170 560 l 1,27,28
 176 855 176 855 357 1014.5 c 128,-1,29
 538 1174 538 1174 789 1174 c 0,30,31
 1035 1174 1035 1174 1215.5 1009.5 c 128,-1,32
 1396 845 1396 845 1396 589 c 1,0,1
EndSplineSet
EndChar

StartChar: ml_la
Encoding: 3378 3378 170
Width: 1702
Flags: W
LayerCount: 2
Fore
SplineSet
868 510 m 1,0,-1
 868 680 l 1,1,2
 866 752 866 752 865 790.5 c 128,-1,3
 864 829 864 829 863 834 c 0,4,5
 855 897 855 897 812 941 c 1,6,7
 743 1014 743 1014 620 1014 c 0,8,9
 496 1014 496 1014 438 944 c 1,10,11
 380 876 380 876 380 711 c 2,12,-1
 380 510 l 1,13,-1
 868 510 l 1,0,-1
1496 147 m 1,14,15
 1496 383 1496 383 1495 639 c 128,-1,16
 1494 895 1494 895 1494 1168 c 1,17,-1
 1703 1168 l 1,18,-1
 1703 -13 l 1,19,-1
 170 -13 l 1,20,-1
 173 700 l 2,21,22
 173 812 173 812 194.5 896.5 c 128,-1,23
 216 981 216 981 255 1032 c 1,24,25
 319 1106 319 1106 409.5 1145.5 c 128,-1,26
 500 1185 500 1185 615 1184 c 0,27,28
 729 1183 729 1183 819.5 1144.5 c 128,-1,29
 910 1106 910 1106 974 1032 c 1,30,31
 1017 977 1017 977 1040.5 893.5 c 128,-1,32
 1064 810 1064 810 1066 703 c 1,33,-1
 1060 353 l 1,34,-1
 380 353 l 1,35,-1
 380 147 l 1,36,-1
 1496 147 l 1,14,15
EndSplineSet
EndChar

StartChar: ml_lla
Encoding: 3379 3379 171
Width: 1454
Flags: W
LayerCount: 2
Fore
SplineSet
713 524 m 0,0,1
 713 707 713 707 557 707 c 0,2,3
 475 707 475 707 423 666 c 1,4,5
 377 628 377 628 377 578 c 0,6,7
 377 531 377 531 389.5 492 c 128,-1,8
 402 453 402 453 425 423 c 1,9,10
 466 364 466 364 547 364 c 0,11,12
 630 364 630 364 671 422 c 1,13,14
 713 477 713 477 713 524 c 0,0,1
802 194 m 1,15,-1
 819 194 l 2,16,17
 1241 194 1241 194 1254 373 c 1,18,19
 1254 410 1254 410 1232 443 c 1,20,21
 1186 502 1186 502 1124 502 c 0,22,23
 1089 502 1089 502 1052.5 501.5 c 128,-1,24
 1016 501 1016 501 968 501 c 1,25,26
 968 553 968 553 967 581.5 c 128,-1,27
 966 610 966 610 966 666 c 1,28,29
 1053 667 1053 667 1090 667 c 2,30,-1
 1131 667 l 1,31,32
 1230 694 1230 694 1230 791 c 0,33,34
 1230 858 1230 858 1140 923 c 1,35,36
 1007 1006 1007 1006 822 1011 c 0,37,38
 814 1011 814 1011 807.5 1011.5 c 128,-1,39
 801 1012 801 1012 793 1012 c 0,40,41
 752 1012 752 1012 709.5 1007 c 128,-1,42
 667 1002 667 1002 623 991 c 1,43,44
 593 982 593 982 565.5 969.5 c 128,-1,45
 538 957 538 957 511 939 c 1,46,47
 424 871 424 871 422 847 c 1,48,49
 470 870 470 870 557 870 c 0,50,51
 723 870 723 870 821 779 c 0,52,53
 922 684 922 684 922 535 c 0,54,55
 922 463 922 463 893 401 c 128,-1,56
 864 339 864 339 811 292 c 1,57,58
 755 248 755 248 689 224.5 c 128,-1,59
 623 201 623 201 547 201 c 0,60,61
 395 201 395 201 284 294 c 1,62,63
 170 391 170 391 170 593 c 2,64,-1
 170 612 l 2,65,66
 170 839 170 839 318 1003 c 1,67,68
 471 1170 471 1170 805 1170 c 2,69,-1
 811 1170 l 2,70,71
 1082 1170 1082 1170 1243 1080 c 1,72,73
 1428 985 1428 985 1428 778 c 0,74,75
 1428 711 1428 711 1391 650 c 1,76,77
 1354 595 1354 595 1350 592 c 1,78,79
 1463 523 1463 523 1463 359 c 1,80,81
 1461 233 1461 233 1362 129 c 0,82,83
 1260 23 1260 23 989 18 c 1,84,-1
 556 18 l 1,85,86
 365 13 365 13 365 -72 c 1,87,88
 368 -182 368 -182 556 -182 c 2,89,-1
 1430 -182 l 1,90,-1
 1430 -371 l 1,91,-1
 593 -371 l 2,92,93
 181 -371 181 -371 179 -94 c 1,94,95
 181 131 181 131 383 175 c 0,96,97
 468 193 468 193 641 193 c 1,98,-1
 802 194 l 1,15,-1
EndSplineSet
EndChar

StartChar: ml_llla
Encoding: 3380 3380 172
Width: 1493
Flags: W
LayerCount: 2
Fore
SplineSet
564 1085 m 1,0,1
 367 952 367 952 352 787 c 1,2,3
 354 709 354 709 391 641.5 c 128,-1,4
 428 574 428 574 505 538 c 1,5,6
 552 512 552 512 638.5 491.5 c 128,-1,7
 725 471 725 471 836 466 c 1,8,9
 719 608 719 608 721 797 c 1,10,11
 721 1185 721 1185 1117 1184 c 0,12,13
 1502 1184 1502 1184 1502 753 c 1,14,15
 1496 649 1496 649 1455 562 c 1,16,17
 1402 465 1402 465 1305 406 c 1,18,19
 1261 384 1261 384 1218.5 369.5 c 128,-1,20
 1176 355 1176 355 1166 354 c 1,21,22
 1225 253 1225 253 1225 176 c 0,23,24
 1225 -3 1225 -3 1095 -72 c 1,25,26
 990 -147 990 -147 771 -160 c 1,27,28
 638 -151 638 -151 577 -134 c 128,-1,29
 516 -117 516 -117 459 -83 c 1,30,31
 410 -57 410 -57 378.5 -23.5 c 128,-1,32
 347 10 347 10 302 74 c 1,33,-1
 482 135 l 1,34,35
 520 71 520 71 581.5 39 c 128,-1,36
 643 7 643 7 768 5 c 1,37,38
 912 9 912 9 964 55 c 128,-1,39
 1016 101 1016 101 1016 184 c 0,40,41
 1016 234 1016 234 963 303 c 1,42,-1
 935 303 l 1,43,44
 898 302 898 302 859 299 c 128,-1,45
 820 296 820 296 805 297 c 0,46,47
 696 302 696 302 589 324.5 c 128,-1,48
 482 347 482 347 380 403 c 1,49,50
 281 466 281 466 225.5 559.5 c 128,-1,51
 170 653 170 653 170 764 c 0,52,53
 170 829 170 829 176 874 c 128,-1,54
 182 919 182 919 226 1008 c 1,55,56
 322 1149 322 1149 443 1207 c 1,57,-1
 564 1085 l 1,0,1
1107 1020 m 1,58,59
 909 1020 909 1020 911 796 c 1,60,61
 911 609 911 609 1054 481 c 1,62,63
 1298 520 1298 520 1314 770 c 1,64,65
 1305 1012 1305 1012 1107 1020 c 1,58,59
EndSplineSet
EndChar

StartChar: ml_va
Encoding: 3381 3381 173
Width: 1971
Flags: W
LayerCount: 2
Fore
SplineSet
1011 150 m 1,0,1
 1071 197 1071 197 1114 275 c 0,2,3
 1180 396 1180 396 1180 575 c 0,4,5
 1179 766 1179 766 1078.5 895 c 128,-1,6
 978 1024 978 1024 777 1025 c 0,7,8
 585 1025 585 1025 478 879 c 1,9,10
 384 755 384 755 386 594 c 1,11,12
 386 405 386 405 452 280.5 c 128,-1,13
 518 156 518 156 638 111 c 1,14,-1
 696 91 l 1,15,-1
 633 -71 l 1,16,-1
 589 -49 l 1,17,18
 389 20 389 20 279.5 182 c 128,-1,19
 170 344 170 344 170 555 c 2,20,-1
 170 563 l 1,21,22
 176 856 176 856 356.5 1016 c 128,-1,23
 537 1176 537 1176 789 1176 c 0,24,25
 1036 1176 1036 1176 1216 1011.5 c 128,-1,26
 1396 847 1396 847 1396 592 c 1,27,28
 1390 330 1390 330 1241 143 c 1,29,-1
 1763 143 l 1,30,-1
 1763 1173 l 1,31,-1
 1972 1173 l 1,32,-1
 1972 -15 l 1,33,-1
 1031 -15 l 1,34,-1
 960 115 l 1,35,36
 994 138 994 138 1011 150 c 1,0,1
EndSplineSet
EndChar

StartChar: ml_sha
Encoding: 3382 3382 174
Width: 2034
Flags: W
LayerCount: 2
Fore
SplineSet
1616 126 m 0,0,1
 1715 126 1715 126 1771 204 c 1,2,3
 1824 281 1824 281 1824 379 c 0,4,5
 1824 478 1824 478 1771 545 c 1,6,7
 1717 617 1717 617 1615 617 c 0,8,9
 1515 617 1515 617 1463 546 c 1,10,11
 1412 480 1412 480 1412 373 c 0,12,13
 1412 267 1412 267 1463 197 c 0,14,15
 1514 126 1514 126 1616 126 c 0,0,1
650 145 m 1,16,17
 774 147 774 147 820 253 c 1,18,19
 861 353 861 353 861 568 c 0,20,21
 861 690 861 690 900.5 798.5 c 128,-1,22
 940 907 940 907 1009 996 c 1,23,24
 1096 1086 1096 1086 1204.5 1133.5 c 128,-1,25
 1313 1181 1313 1181 1441 1178 c 1,26,27
 1572 1176 1572 1176 1678.5 1133.5 c 128,-1,28
 1785 1091 1785 1091 1870 1007 c 1,29,30
 2044 838 2044 838 2044 552 c 2,31,-1
 2044 523 l 2,32,33
 2044 414 2044 414 2019.5 322.5 c 128,-1,34
 1995 231 1995 231 1946 156 c 1,35,36
 1828 -31 1828 -31 1604 -31 c 0,37,38
 1426 -31 1426 -31 1324 84 c 1,39,40
 1272 145 1272 145 1246 217 c 128,-1,41
 1220 289 1220 289 1220 376 c 0,42,43
 1220 552 1220 552 1332 666 c 1,44,45
 1439 773 1439 773 1594 773 c 0,46,47
 1702 773 1702 773 1771 732 c 1,48,49
 1845 690 1845 690 1856 676 c 1,50,51
 1848 782 1848 782 1740 894 c 0,52,53
 1631 1008 1631 1008 1436 1019 c 1,54,55
 1243 1016 1243 1016 1154 884 c 0,56,57
 1111 820 1111 820 1090 736 c 128,-1,58
 1069 652 1069 652 1069 547 c 0,59,60
 1069 439 1069 439 1045 342.5 c 128,-1,61
 1021 246 1021 246 978 170 c 1,62,63
 921 78 921 78 836 30 c 1,64,65
 762 -13 762 -13 652 -18 c 1,66,67
 438 -18 438 -18 306 154 c 1,68,69
 177 309 177 309 170 561 c 1,70,-1
 172 539 l 1,71,72
 171 982 171 982 535 1172 c 1,73,-1
 577 1192 l 1,74,-1
 667 1030 l 1,75,-1
 603 1006 l 1,76,77
 388 902 388 902 374 551 c 1,78,79
 365 407 365 407 447 266 c 1,80,81
 513 147 513 147 650 145 c 1,16,17
EndSplineSet
EndChar

StartChar: ml_ssa
Encoding: 3383 3383 175
Width: 2420
Flags: W
LayerCount: 2
Fore
SplineSet
2211 146 m 1,0,-1
 2211 715 l 1,1,2
 2170 666 2170 666 2104 609 c 128,-1,3
 2038 552 2038 552 1970 511 c 128,-1,4
 1902 470 1902 470 1835 444.5 c 128,-1,5
 1768 419 1768 419 1713 409 c 1,6,-1
 1704 146 l 1,7,-1
 2211 146 l 1,0,-1
1519 879 m 1,8,9
 1519 1014 1519 1014 1425 1014 c 0,10,11
 1267 1014 1267 1014 1267 847 c 0,12,13
 1267 746 1267 746 1331 660 c 1,14,15
 1400 580 1400 580 1508 566 c 1,16,-1
 1519 879 l 1,8,9
918 145 m 1,17,-1
 1494 146 l 1,18,-1
 1505 403 l 1,19,20
 1344 418 1344 418 1223 506 c 1,21,-1
 1223 503 l 1,22,23
 1057 645 1057 645 1057 847 c 0,24,25
 1057 1002 1057 1002 1166 1093 c 1,26,27
 1269 1177 1269 1177 1425 1177 c 0,28,29
 1485 1177 1485 1177 1535.5 1157.5 c 128,-1,30
 1586 1138 1586 1138 1632 1100 c 1,31,32
 1677 1061 1677 1061 1701 1004.5 c 128,-1,33
 1725 948 1725 948 1726 882 c 1,34,-1
 1715 571 l 1,35,36
 1811 586 1811 586 1968 704 c 0,37,38
 1998 726 1998 726 2037 764.5 c 128,-1,39
 2076 803 2076 803 2127 858 c 1,40,41
 2170 907 2170 907 2191.5 955 c 128,-1,42
 2213 1003 2213 1003 2211 1043 c 1,43,-1
 2211 1179 l 1,44,-1
 2421 1179 l 1,45,-1
 2421 -17 l 1,46,-1
 647 -17 l 1,47,-1
 607 108 l 1,48,-1
 645 130 l 1,49,50
 782 201 782 201 779 376 c 1,51,52
 779 481 779 481 729.5 544.5 c 128,-1,53
 680 608 680 608 581 613 c 1,54,55
 477 613 477 613 426 548.5 c 128,-1,56
 375 484 375 484 375 383 c 0,57,58
 375 190 375 190 504 131 c 1,59,-1
 557 112 l 1,60,-1
 496 -28 l 1,61,-1
 442 -10 l 1,62,63
 316 34 316 34 243 124 c 128,-1,64
 170 214 170 214 170 389 c 0,65,66
 170 565 170 565 289 667.5 c 128,-1,67
 408 770 408 770 582 770 c 256,68,69
 756 770 756 770 871.5 667 c 128,-1,70
 987 564 987 564 987 390 c 0,71,72
 987 219 987 219 918 145 c 1,17,-1
EndSplineSet
EndChar

StartChar: ml_sa
Encoding: 3384 3384 176
Width: 2583
Flags: W
LayerCount: 2
Fore
SplineSet
2393 584 m 1,0,1
 2388 875 2388 875 2163 1002 c 1,2,-1
 2100 1025 l 1,3,-1
 2189 1187 l 1,4,-1
 2231 1167 l 1,5,6
 2597 963 2597 963 2601 561 c 1,7,8
 2601 328 2601 328 2440 148 c 0,9,10
 2280 -31 2280 -31 2056 -31 c 0,11,12
 1870 -31 1870 -31 1741 78 c 1,13,14
 1608 196 1608 196 1608 433 c 1,15,-1
 1637 730 l 1,16,17
 1637 798 1637 798 1610 862 c 0,18,19
 1553 995 1553 995 1396 1014 c 1,20,21
 1313 1014 1313 1014 1216 929 c 1,22,-1
 1216 931 l 1,23,24
 1133 861 1133 861 1133 725 c 2,25,-1
 1133 -18 l 1,26,-1
 925 -18 l 1,27,-1
 925 725 l 2,28,29
 925 1016 925 1016 695 1016 c 1,30,31
 570 1022 570 1022 468 891 c 1,32,33
 429 828 429 828 405.5 738.5 c 128,-1,34
 382 649 382 649 383 569 c 1,35,36
 405 242 405 242 613 142 c 1,37,-1
 676 116 l 1,38,-1
 587 -45 l 1,39,-1
 545 -25 l 1,40,41
 198 157 198 157 179 567 c 1,42,43
 178 832 178 832 334 1003 c 1,44,45
 486 1179 486 1179 695 1179 c 0,46,47
 941 1179 941 1179 1036 1001 c 1,48,49
 1176 1177 1176 1177 1396 1177 c 0,50,51
 1570 1177 1570 1177 1705 1048 c 0,52,53
 1844 915 1844 915 1844 729 c 1,54,-1
 1815 435 l 1,55,56
 1815 132 1815 132 2056 132 c 0,57,58
 2204 132 2204 132 2303 273 c 0,59,60
 2349 338 2349 338 2370.5 409.5 c 128,-1,61
 2392 481 2392 481 2392 584 c 1,62,-1
 2393 584 l 1,0,1
EndSplineSet
EndChar

StartChar: ml_ha
Encoding: 3385 3385 177
Width: 2518
Flags: W
LayerCount: 2
Fore
SplineSet
907 138 m 1,0,1
 983 219 983 219 983 386 c 0,2,3
 983 557 983 557 869.5 659 c 128,-1,4
 756 761 756 761 584 761 c 0,5,6
 392 761 392 761 275 659.5 c 128,-1,7
 158 558 158 558 158 385 c 0,8,9
 158 213 158 213 230 124 c 128,-1,10
 302 35 302 35 424 -13 c 1,11,-1
 473 -30 l 1,12,-1
 530 105 l 1,13,-1
 484 121 l 1,14,15
 351 182 351 182 351 379 c 0,16,17
 351 484 351 484 403.5 549.5 c 128,-1,18
 456 615 456 615 583 615 c 1,19,20
 684 610 684 610 735.5 545.5 c 128,-1,21
 787 481 787 481 787 373 c 2,22,-1
 787 365 l 2,23,24
 787 191 787 191 651 121 c 1,25,-1
 617 101 l 1,26,-1
 653 -13 l 1,27,-1
 1648 -14 l 1,28,-1
 1711 130 l 1,29,30
 1618 187 1618 187 1570 277 c 1,31,32
 1504 404 1504 404 1504 592 c 1,33,-1
 1499 597 l 1,34,35
 1502 753 1502 753 1596 877 c 1,36,37
 1705 1024 1705 1024 1900 1024 c 0,38,39
 2105 1023 2105 1023 2207 893.5 c 128,-1,40
 2309 764 2309 764 2309 576 c 1,41,-1
 2310 570 l 1,42,43
 2310 415 2310 415 2243 293.5 c 128,-1,44
 2176 172 2176 172 2058 127 c 1,45,-1
 2005 109 l 1,46,-1
 2059 -45 l 1,47,48
 2262 18 2262 18 2384.5 184 c 128,-1,49
 2507 350 2507 350 2513 590 c 1,50,51
 2513 843 2513 843 2335 1006 c 128,-1,52
 2157 1169 2157 1169 1912 1169 c 0,53,54
 1663 1169 1663 1169 1484 1011 c 128,-1,55
 1305 853 1305 853 1300 561 c 1,56,-1
 1300 553 l 2,57,58
 1300 343 1300 343 1420 183 c 0,59,60
 1451 142 1451 142 1455 138 c 1,61,-1
 907 138 l 1,0,1
EndSplineSet
EndChar

StartChar: ml_ttta
Encoding: 3386 3386 178
Width: 1449
Flags: W
LayerCount: 2
Fore
SplineSet
801 -19 m 1,0,-1
 175 -20 l 1,1,-1
 656 1202 l 1,2,-1
 842 1146 l 1,3,-1
 461 157 l 1,4,-1
 1470 157 l 1,5,-1
 1468 -19 l 1,6,-1
 976 -19 l 1,7,-1
 976 -618 l 1,8,-1
 801 -618 l 1,9,-1
 801 -19 l 1,0,-1
EndSplineSet
EndChar

StartChar: ml_avagraha
Encoding: 3389 3389 181
Width: 733
Flags: W
LayerCount: 2
Fore
SplineSet
645 1231 m 1,0,-1
 486 -65 l 2,1,2
 470 -194 470 -194 409 -257 c 0,3,4
 355 -313 355 -313 280 -313 c 2,5,-1
 269 -313 l 1,6,7
 181 -303 181 -303 119 -247 c 1,8,-1
 169 -81 l 1,9,10
 198 -111 198 -111 233 -120 c 0,11,12
 247 -123 247 -123 254 -123 c 0,13,14
 300 -123 300 -123 311 -39 c 2,15,-1
 464 1214 l 1,16,-1
 464 1214 l 1,17,18
 484 1366 484 1366 545 1428 c 0,19,20
 600 1484 600 1484 674 1484 c 2,21,-1
 687 1484 l 1,22,23
 759 1471 759 1471 839 1429 c 1,24,-1
 787 1255 l 1,25,26
 755 1284 755 1284 722 1292 c 1,27,-1
 716 1292 l 2,28,29
 662 1292 662 1292 645 1231 c 1,0,-1
EndSplineSet
EndChar

StartChar: ml_aakaar
Encoding: 3390 3390 182
Width: 1134
Flags: W
LayerCount: 2
Fore
SplineSet
377 306 m 0,1,2
 399 262 399 262 432 232 c 1,3,4
 473 192 473 192 527 169.5 c 128,-1,5
 581 147 581 147 646 147 c 0,6,7
 923 147 923 147 923 581 c 256,8,9
 923 1015 923 1015 650 1015 c 0,10,11
 501 1015 501 1015 423 907 c 1,12,13
 387 852 387 852 365 785 c 0,14,15
 359 768 359 768 349 735 c 1,16,-1
 177 809 l 1,17,18
 196 867 196 867 210 900 c 0,19,20
 250 995 250 995 320 1055 c 1,21,22
 460 1179 460 1179 650 1179 c 0,23,24
 893 1179 893 1179 1031 986 c 1,25,26
 1151 825 1151 825 1151 583 c 0,27,28
 1151 343 1151 343 1039 185 c 1,29,30
 901 -16 901 -16 646 -16 c 0,31,32
 440 -16 440 -16 300 108 c 0,33,34
 215 182 215 182 170 300 c 1,35,-1
 350 385 l 1,36,0
 363 334 363 334 377 306 c 0,1,2
EndSplineSet
EndChar

StartChar: ml_ikaar
Encoding: 3391 3391 183
Width: 430
Flags: W
LayerCount: 2
Fore
SplineSet
220 1353 m 1,0,1
 212 1506 212 1506 63 1506 c 1,2,3
 -7 1510 -7 1510 -33.5 1475 c 128,-1,4
 -60 1440 -60 1440 -68 1410 c 128,-1,5
 -76 1380 -76 1380 -77 1349 c 1,6,7
 -79 1339 -79 1339 -77.5 1322.5 c 128,-1,8
 -76 1306 -76 1306 -66 1253 c 1,9,10
 -128 1253 -128 1253 -168.5 1253.5 c 128,-1,11
 -209 1254 -209 1254 -266 1254 c 1,12,13
 -266 1380 -266 1380 -240.5 1459 c 128,-1,14
 -215 1538 -215 1538 -167 1591 c 1,15,16
 -120 1641 -120 1641 -61 1667.5 c 128,-1,17
 -2 1694 -2 1694 63 1694 c 1,18,19
 131 1697 131 1697 204 1676 c 1,20,21
 280 1652 280 1652 330 1588 c 0,22,23
 418 1476 418 1476 418 1296 c 2,24,-1
 418 1284 l 1,25,-1
 419 -15 l 1,26,-1
 220 -14 l 1,27,-1
 220 1353 l 1,0,1
EndSplineSet
EndChar

StartChar: ml_iikaar
Encoding: 3392 3392 184
Width: 430
Flags: W
LayerCount: 2
Fore
SplineSet
56 1432 m 0,0,1
 55 1483 55 1483 44 1500 c 1,2,3
 20 1507 20 1507 -7 1507 c 0,4,5
 -52 1507 -52 1507 -84 1483 c 1,6,7
 -118 1453 -118 1453 -118 1417 c 0,8,9
 -117 1377 -117 1377 -104 1359 c 1,10,11
 -88 1340 -88 1340 -42 1339 c 0,12,13
 -15 1339 -15 1339 1 1345 c 0,14,15
 18 1352 18 1352 31 1369 c 1,16,17
 56 1396 56 1396 56 1432 c 0,0,1
221 -17 m 1,18,-1
 221 1341 l 2,19,20
 221 1426 221 1426 207 1434 c 1,21,22
 212 1320 212 1320 138 1227 c 1,23,24
 100 1187 100 1187 56.5 1171.5 c 128,-1,25
 13 1156 13 1156 -40 1153 c 1,26,27
 -136 1153 -136 1153 -206 1220 c 1,28,29
 -276 1293 -276 1293 -276 1426 c 0,30,31
 -276 1563 -276 1563 -169 1631 c 1,32,33
 -70 1698 -70 1698 58 1698 c 0,34,35
 371 1698 371 1698 415 1376 c 0,36,37
 421 1337 421 1337 421 1081 c 2,38,-1
 421 -15 l 1,39,-1
 221 -17 l 1,18,-1
EndSplineSet
EndChar

StartChar: ml_ukaar
Encoding: 3393 3393 185
Width: 756
Flags: W
LayerCount: 2
Fore
SplineSet
633 -162 m 0,0,1
 633 -123 633 -123 621 -85.5 c 128,-1,2
 609 -48 609 -48 588.5 -23 c 128,-1,3
 568 2 568 2 532 17.5 c 128,-1,4
 496 33 496 33 459 33 c 0,5,6
 421 33 421 33 386 17 c 128,-1,7
 351 1 351 1 331 -24 c 128,-1,8
 311 -49 311 -49 298.5 -87 c 128,-1,9
 286 -125 286 -125 286 -162 c 0,10,11
 286 -197 286 -197 296.5 -226.5 c 128,-1,12
 307 -256 307 -256 330 -285 c 0,13,14
 380 -345 380 -345 461 -345 c 0,15,16
 497 -345 497 -345 532.5 -329.5 c 128,-1,17
 568 -314 568 -314 589 -289 c 128,-1,18
 610 -264 610 -264 621.5 -231.5 c 128,-1,19
 633 -199 633 -199 633 -162 c 0,0,1
582 198 m 1,20,21
 807 107 807 107 807 -166 c 0,22,23
 807 -351 807 -351 707 -441 c 0,24,25
 657 -485 657 -485 593 -504.5 c 128,-1,26
 529 -524 529 -524 456 -524 c 0,27,28
 304 -524 304 -524 208 -435 c 0,29,30
 111 -345 111 -345 111 -166 c 0,31,32
 111 9 111 9 199 105 c 0,33,34
 243 153 243 153 297 177 c 0,35,36
 345 198 345 198 406 202 c 1,37,38
 407 209 407 209 432.5 298.5 c 128,-1,39
 458 388 458 388 483 484 c 1,40,41
 517 605 517 605 540 724 c 1,42,43
 550 782 550 782 552 823 c 1,44,45
 563 895 563 895 533 946.5 c 128,-1,46
 503 998 503 998 423 1006 c 1,47,48
 330 1022 330 1022 265 905 c 1,49,-1
 112 1007 l 1,50,51
 260 1201 260 1201 431 1185 c 1,52,53
 526 1180 526 1180 581.5 1153.5 c 128,-1,54
 637 1127 637 1127 673.5 1080.5 c 128,-1,55
 710 1034 710 1034 725 969.5 c 128,-1,56
 740 905 740 905 734 830 c 0,57,58
 720 678 720 678 679 534 c 0,59,60
 642 406 642 406 582 198 c 1,20,21
EndSplineSet
EndChar

StartChar: ml_uukaar
Encoding: 3394 3394 186
Width: 787
Flags: W
LayerCount: 2
Fore
SplineSet
487 -49 m 0,0,1
 487 43 487 43 394 39 c 256,2,3
 301 35 301 35 301 -76 c 0,4,5
 301 -169 301 -169 399 -168 c 0,6,7
 442 -168 442 -168 464.5 -137 c 128,-1,8
 487 -106 487 -106 487 -49 c 0,0,1
644 -43 m 1,9,10
 643 -130 643 -130 630 -168 c 128,-1,11
 617 -206 617 -206 594 -235 c 1,12,13
 553 -282 553 -282 503 -305.5 c 128,-1,14
 453 -329 453 -329 399 -329 c 0,15,16
 290 -329 290 -329 222 -282 c 1,17,18
 169 -249 169 -249 145 -191 c 128,-1,19
 121 -133 121 -133 119 -65 c 1,20,21
 127 55 127 55 195.5 133.5 c 128,-1,22
 264 212 264 212 404 217 c 1,23,-1
 420 216 l 1,24,25
 425 229 425 229 447 309 c 128,-1,26
 469 389 469 389 497 499 c 1,27,28
 529 607 529 607 545.5 698 c 128,-1,29
 562 789 562 789 564 822 c 1,30,31
 575 893 575 893 545.5 945 c 128,-1,32
 516 997 516 997 436 1004 c 1,33,34
 343 1020 343 1020 278 903 c 1,35,-1
 124 1007 l 1,36,37
 273 1199 273 1199 444 1183 c 1,38,39
 538 1178 538 1178 594 1151.5 c 128,-1,40
 650 1125 650 1125 686.5 1079 c 128,-1,41
 723 1033 723 1033 737.5 968 c 128,-1,42
 752 903 752 903 746 829 c 0,43,44
 740 754 740 754 727 681 c 1,45,46
 712 606 712 606 692 535 c 0,47,48
 655 407 655 407 594 196 c 1,49,50
 675 178 675 178 748 99 c 0,51,52
 832 7 832 7 832 -188 c 1,53,54
 829 -372 829 -372 690 -494 c 1,55,56
 580 -579 580 -579 434 -584 c 1,57,58
 281 -587 281 -587 191 -549 c 1,59,60
 140 -532 140 -532 95.5 -507 c 128,-1,61
 51 -482 51 -482 -21 -436 c 1,62,63
 16 -382 16 -382 36 -352 c 128,-1,64
 56 -322 56 -322 84 -283 c 1,65,66
 150 -343 150 -343 227 -376 c 128,-1,67
 304 -409 304 -409 400 -417 c 1,68,69
 530 -412 530 -412 595 -354.5 c 128,-1,70
 660 -297 660 -297 667 -187 c 1,71,72
 672 -87 672 -87 644 -43 c 1,9,10
EndSplineSet
EndChar

StartChar: ml_rikaar
Encoding: 3395 3395 187
Width: 474
Flags: W
LayerCount: 2
Fore
SplineSet
-4 -455 m 0,0,1
 146 -455 146 -455 146 -339 c 0,2,3
 146 -212 146 -212 -4 -212 c 0,4,5
 -128 -212 -128 -212 -128 -339 c 0,6,7
 -128 -455 -128 -455 -4 -455 c 0,0,1
353 -273 m 1,9,-1
 353 -266 l 1,10,11
 344 -156 344 -156 296 7 c 1,12,13
 234 202 234 202 201 395 c 128,-1,14
 168 588 168 588 190 786 c 1,15,16
 216 1054 216 1054 318 1219 c 1,17,-1
 490 1135 l 1,18,19
 462 1084 462 1084 431 1021 c 128,-1,20
 400 958 400 958 379 807 c 1,21,22
 347 615 347 615 389 392 c 1,23,24
 413 274 413 274 442.5 166 c 128,-1,25
 472 58 472 58 489.5 0.5 c 128,-1,26
 507 -57 507 -57 518 -117 c 128,-1,27
 529 -177 529 -177 533 -252 c 1,28,29
 530 -469 530 -469 385 -564 c 1,30,31
 317 -613 317 -613 198 -629 c 1,32,33
 138 -644 138 -644 66.5 -643 c 128,-1,34
 -5 -642 -5 -642 -83 -622 c 1,35,36
 -292 -551 -292 -551 -306 -359 c 1,37,38
 -301 -206 -301 -206 -228.5 -126.5 c 128,-1,39
 -156 -47 -156 -47 -16 -44 c 1,40,41
 122 -44 122 -44 190 -89 c 128,-1,42
 258 -134 258 -134 290 -200 c 1,43,44
 317 -258 317 -258 310 -310 c 1,45,46
 317 -380 317 -380 301 -411 c 1,47,8
 347 -389 347 -389 353 -273 c 1,9,-1
EndSplineSet
EndChar

